<svg xmlns="http://www.w3.org/2000/svg" version="1.1" xmlns:xlink="http://www.w3.org/1999/xlink" xmlns:svgjs="http://svgjs.com/svgjs" width="80.1" height="119.03"><svg id="SvgjsSvg1001" data-name="Calque 2" xmlns="http://www.w3.org/2000/svg" viewBox="0 0 80.1 119.03">
  <defs>
    <style>
      .cls-1, .cls-2 {
        opacity: .64;
      }

      .cls-3 {
        fill: #8cbf90;
      }

      .cls-3, .cls-2 {
        stroke-width: 0px;
      }

      .cls-2 {
        fill: #3829cc;
      }
    </style>
  </defs>
  <g id="SvgjsG1000" data-name="Calque 1">
    <g>
      <g>
        <circle class="cls-2" cx="20.71" cy="62.05" r="5.76"></circle>
        <circle class="cls-2" cx="13.15" cy="75.58" r="7.57"></circle>
        <circle class="cls-2" cx="22.1" cy="71.75" r="6.48"></circle>
        <circle class="cls-2" cx="30.38" cy="76.13" r="6.48"></circle>
        <circle class="cls-2" cx="40.5" cy="84.74" r="7.21"></circle>
        <circle class="cls-2" cx="26.61" cy="86.36" r="7.93"></circle>
        <circle class="cls-2" cx="39.38" cy="91.48" r="7.93"></circle>
        <circle class="cls-2" cx="50.29" cy="93.99" r="5.76"></circle>
        <circle class="cls-2" cx="42.39" cy="101.22" r="7.21"></circle>
        <circle class="cls-2" cx="25.35" cy="106.48" r="8.29"></circle>
        <circle class="cls-2" cx="29.05" cy="99.47" r="8.29"></circle>
        <circle class="cls-2" cx="16.08" cy="88.54" r="7.57"></circle>
        <circle class="cls-2" cx="10.47" cy="94.54" r="6.85"></circle>
        <circle class="cls-2" cx="13.43" cy="105.89" r="6.85"></circle>
        <circle class="cls-2" cx="20.76" cy="81.23" r="9.01"></circle>
        <circle class="cls-2" cx="21.03" cy="97.68" r="6.12"></circle>
        <circle class="cls-2" cx="6.85" cy="112.18" r="6.85"></circle>
      </g>
      <g class="cls-1">
        <path class="cls-3" d="M44.9,71.13c2.55-4.04,5.08-8.12,8.19-11.75s6.55-6.77,10.12-9.81c1.45-1.24,3.06-2.6,4.98-2.97.52-.1.96-.05,1.52.12.47.14.96.42,1.37.92-.26-.32.36.76.19.34.12.31.18.51.11,1s-.43,1.14-.84,1.57c-1.28,1.38-3.49,1.83-5.26,2.2-4.26.92-8.67.54-12.28-2.17l1.38,1.79c.06.28-.82,1.61-.8,1.72.06.31-.27-.08-.04.15s.95.27,1.26.38c.65.23,1.24.5,1.67,1.05-.16-.21.22.39.27.48.2.36.09.13.22.53.23.7.39,1.47.44,1.98.38,3.74.06,7.6.01,11.35-.04,3.19-.22,6.87,1.66,9.64,1.13,1.67,2.77,2.76,4.79,3.01s4.16-.56,5.96-1.59c3.62-2.05,6.82-4.87,9.39-8.13,1-1.27,1.24-3,0-4.24-1.04-1.04-3.23-1.28-4.24,0-1.45,1.84-3.08,3.55-4.92,5.02-.76.6-1.57,1.15-2.39,1.66s-1.82,1.23-2.82,1.34c-.25.03-.27.04-.54-.05.4.13-.24-.27-.21-.22.19.25-.15-.27-.17-.33-.22-.46.11.35-.07-.15-.17-.46-.28-.96-.37-1.44.03.18-.07-.66-.08-.91-.03-.51-.04-1.01-.04-1.52,0-1.33.03-2.65.04-3.98.05-4.54.73-9.73-1.08-14.02-1.01-2.38-2.77-4.01-5.17-4.96-2.73-1.08-6.23-1.64-8.07,1.24-3.62,5.65,6.06,8.33,9.93,8.73,4.44.46,10.07-.33,13.86-2.81,4.31-2.82,6.13-8.8,2.4-12.89-3.4-3.72-8.81-3.36-12.77-.82-2.38,1.52-4.51,3.51-6.6,5.4s-4.05,3.77-5.91,5.82c-3.98,4.37-7.18,9.33-10.33,14.32-2.06,3.28,3.13,6.29,5.18,3.03h0Z"></path>
      </g>
      <g class="cls-1">
        <path class="cls-3" d="M37.68,61.64c-.92-6.87-.75-13.84,1-20.57,1.04-4.01,2.8-7.79,3.89-11.79s1.49-8.44,1.22-12.68c-.31-4.92-1.36-9.76-2.81-14.46-.8-2.57-4.03-2.83-5.48-.72-3.01,4.37-4.12,9.61-5.11,14.73s-1.83,9.85-4.78,13.95l5.48.72c-1.93-8.88-6.05-17.09-11.81-24.09-.83-1.01-2.57-1.09-3.64-.47-1.24.73-1.57,2.05-1.38,3.39,1.98,13.56,4.89,26.98,8.71,40.14,1.07,3.7,6.87,2.13,5.79-1.6-3.82-13.16-6.73-26.58-8.71-40.14l-5.01,2.92c4.95,6.01,8.57,13.61,10.27,21.44.25,1.14,1.39,2.02,2.49,2.15,1.27.15,2.26-.42,2.99-1.43,3.09-4.29,4.25-9.53,5.24-14.63s1.8-9.9,4.65-14.04l-5.48-.72c2.36,7.64,3.76,15.87,1.66,23.74-1.05,3.92-2.76,7.62-3.83,11.53s-1.67,8.03-1.85,12.11c-.16,3.52.05,7.04.51,10.53.21,1.61,1.23,3,3,3,1.45,0,3.22-1.38,3-3h0Z"></path>
      </g>
    </g>
  </g>
</svg><style>@media (prefers-color-scheme: light) { :root { filter: none; } }
</style></svg>