<?xml version="1.0" encoding="UTF-8"?>
<svg id="Calque_2" data-name="Calque 2" xmlns="http://www.w3.org/2000/svg" viewBox="0 0 952.87 1794.87">
  <defs>
    <style>
      .cls-1 {
        fill: #9ccf9d;
        stroke-width: 0px;
      }
    </style>
  </defs>
  <g id="Calque_1-2" data-name="Calque 1">
    <g>
      <g id="Trajet_pointillé" data-name="Trajet pointillé">
        <path class="cls-1" d="M216.21,1076.74c-5.33,0-9.83.45-14.17-.17-2.6-.37-5.38-1.95-7.37-3.76-4.88-4.43-3.52-11.15,2.64-13.67,6.98-2.86,13.36-.83,18.25,4.24,3.28,3.4,5.55,3.18,8.61.42,1.73-1.55,3.45-3.25,5.49-4.26,1.21-.6,3.03.03,4.57.1-.12,1.59.38,3.79-.47,4.67-2.4,2.48-5.21,4.67-8.14,6.51-2.52,1.58-3.36,3.21-2.47,6.12.78,2.52,1.31,5.22,1.3,7.83,0,1.34-1.45,2.68-2.25,4.01-1.34-.88-3.43-1.49-3.88-2.7-1.12-3.05-1.49-6.37-2.12-9.35ZM211.42,1069.23c-4.11-4.98-8.32-5.83-12.34-2.48,2.88,4.08,6.97,4.9,12.34,2.48Z"/>
        <path class="cls-1" d="M259.77,1613.19c-1.21,2.93-1.99,5.51-3.32,7.76-.8,1.35-2.3,2.52-3.75,3.2-3.55,1.68-6.94-.6-6.93-4.56.02-4.49,2.58-7.54,6.49-9.08,2.62-1.03,3.01-2.33,2.19-4.64-.46-1.3-1.01-2.64-1.1-3.99-.05-.8.7-1.66,1.1-2.49.85.43,2.17.65,2.46,1.32.82,1.89,1.38,3.93,1.73,5.96.3,1.75,1,2.58,2.81,2.75,1.56.15,3.17.46,4.6,1.07.74.31,1.14,1.41,1.7,2.15-.79.54-1.6,1.55-2.37,1.52-1.93-.08-3.85-.63-5.63-.96ZM254.55,1614.12c-3.68,1.13-5.1,3.25-4.17,6.23,2.9-.65,4.29-2.72,4.17-6.23Z"/>
        <path class="cls-1" d="M177.08,200.54c-.9-3.76-1.98-6.85-2.28-10.02-.18-1.9.46-4.12,1.4-5.83,2.3-4.19,7.26-4.37,10.09-.46,3.2,4.44,2.85,9.28.1,13.59-1.84,2.89-1.3,4.45,1.16,6.14,1.39.95,2.88,1.88,3.93,3.15.63.75.49,2.14.7,3.24-1.14.19-2.6.91-3.37.46-2.16-1.27-4.17-2.88-5.97-4.64-1.54-1.51-2.83-1.83-4.73-.7-1.64.97-3.45,1.81-5.3,2.24-.95.22-2.13-.57-3.21-.91.39-1.09.47-2.67,1.25-3.19,1.96-1.3,4.24-2.13,6.23-3.08ZM181.56,195.89c2.81-3.74,2.7-6.85-.34-9.12-2.39,2.72-2.28,5.74.34,9.12Z"/>
        <path class="cls-1" d="M863.78,648.72c-5.75-2.77-15.66-1.1-18.43,4.39-2.84,5.61-6.7,5.28-11.37,4.51-1.31-.22-2.73-.8-3.91-.5-1.31.34-3.25,1.39-3.37,2.33-.16,1.21.92,3.32,2.01,3.79,2.07.9,4.52,1.25,6.81,1.22,4.84-.05,8.23,1.51,11.09,5.82,3.77,5.68,8.86,6.7,14.25,3.95-3.11-2.72-6.13-5.37-9.93-8.7,3.47-.95,5.6-1.38,7.61-2.12,2.17-.8,4.41-1.63,6.29-2.93,5.09-3.53,4.52-9.09-1.03-11.76ZM859.05,659.72c-1.01.25-2.02.47-2.99.86.04-.02.09-.04.13-.05-1.04.38-2.06.5-3.19.24-1.27-.29-2.3-1.23-2.99-2.3-.68-1.06-.83-2.66-.5-3.85.31-1.11,1.22-2.47,2.3-2.99,1.5-.72,2.99-1.15,4.59-1.55,2.72-.67,5.3.86,6.15,3.49.82,2.52-.95,5.52-3.49,6.15Z"/>
        <path class="cls-1" d="M665.33,1295.8c-.27-2.65-3.07-6.31-5.56-7.24-7.18-2.69-9.44,3.78-12.77,9.22-1.89-2.1-3.49-3.66-4.82-5.42-2.13-2.81-4.74-2.75-6.68-.45-.75.89-.16,4.08.91,5.13,2.55,2.53,5.87,4.26,8.61,6.62,1.58,1.36,3.78,3.33,3.74,4.99-.15,6.75-.77,13.53-1.78,20.21-.56,3.75.49,5.66,4.51,6.7,4.28-9.74,5.4-19.74,3.87-30.44,4.83-2.03,10.59-3.14,9.97-9.3ZM656.72,1300.73c-6.45,0-6.43-10,0-10s6.43,10,0,10Z"/>
        <path class="cls-1" d="M247.23,1600.01c2.39-1.34,4.8-2.64,7.25-3.87-.3-.75-.6-1.49-.92-2.24-1.23.37-2.7.42-3.58-.04-4.52-2.36-8.86-5.11-13.1-7.97-2.88-1.94-5.51-2.61-8.95-.06,4.39,5.8,9.66,10.12,15.91,12.74,1.15.48,2.28.95,3.39,1.44Z"/>
        <path class="cls-1" d="M442.81,948c10.23-3.21,19.64-6.44,29.23-8.97,2.14-.56,4.94,1.34,7.43,2.11-.04.61-.08,1.23-.12,1.84-4,1.39-7.99,2.84-12.01,4.16-5.05,1.66-10.13,3.23-15.2,4.83-3.58,1.12-6.43.21-9.33-3.97Z"/>
        <path class="cls-1" d="M427.6,1202.81c2.48.79,4.21,1.34,5.95,1.9,6.16,1.96,12.38,3.76,18.44,6.02,1.36.51,2.12,2.6,3.16,3.97-1.54.77-3.33,2.5-4.57,2.16-7.35-1.99-14.64-4.3-21.79-6.92-1.33-.49-2.26-2.77-2.8-4.41-.22-.68,1.07-1.86,1.62-2.72Z"/>
        <path class="cls-1" d="M372.11,1432.79c8.95-1.34,17.89-2.8,26.88-3.85,1.02-.12,2.7,1.93,3.3,3.32.22.52-1.62,2.7-2.74,2.91-6.84,1.29-13.72,2.57-20.64,3.1-2.38.18-4.92-1.8-7.39-2.8.2-.89.4-1.79.59-2.68Z"/>
        <path class="cls-1" d="M385.86,1193.91c2.57-.72,5.37-2.48,7.65-1.96,6.62,1.52,13.11,3.74,19.45,6.19,1.37.53,1.92,3.17,2.85,4.84-1.66.43-3.52,1.57-4.94,1.17-7.19-2.05-14.27-4.47-21.37-6.83-1.2-.4-2.27-1.15-3.4-1.74-.08-.56-.16-1.12-.24-1.68Z"/>
        <path class="cls-1" d="M387.65,547.87c-6.92-2.55-13.23-4.65-19.31-7.31-1.19-.52-1.44-3.16-2.13-4.83,1.5-.36,3.2-1.37,4.46-.97,5.87,1.81,11.7,3.82,17.34,6.23,1.24.53,1.98,2.95,2.25,4.62.1.63-1.78,1.58-2.61,2.26Z"/>
        <path class="cls-1" d="M592.22,597.35c7.01,1.66,13.35,2.95,19.5,4.82,1.18.36,1.65,3.02,2.45,4.61-1.33.53-2.79,1.7-3.98,1.47-6.01-1.14-12.01-2.44-17.86-4.19-1.25-.37-2.17-2.8-2.58-4.45-.14-.56,1.74-1.63,2.47-2.26Z"/>
        <path class="cls-1" d="M435.34,554.84c6.92,2.07,13.7,3.96,20.34,6.26.87.3,1.63,2.85,1.3,4.03-.25.88-2.52,1.95-3.59,1.7-5.15-1.21-10.23-2.75-15.27-4.36-3.37-1.07-3.86-3.61-2.77-7.63Z"/>
        <path class="cls-1" d="M416.1,1433.03c-.71-.7-2.11-2.09-3.51-3.47,1.34-1.09,2.55-2.87,4.04-3.15,4.7-.89,9.49-1.53,14.26-1.6,1.49-.02,3,2.09,4.5,3.23-1.3,1.07-2.47,2.81-3.93,3.09-4.53.87-9.17,1.19-15.36,1.9Z"/>
        <path class="cls-1" d="M304.29,1006.5c5.63-2.63,11.14-5.6,16.96-7.69,1.84-.66,4.53,1.01,6.82,1.62,0,.65.02,1.3.02,1.95-6.21,2.92-12.33,6.05-18.7,8.56-1.22.48-3.42-1.5-5.17-2.35.02-.7.04-1.39.06-2.09Z"/>
        <path class="cls-1" d="M824.23,794.57c5.64-3.1,11.16-6.46,17-9.13,1.36-.62,3.78,1.11,5.72,1.75l.24,2.17c-5.91,3.14-11.72,6.51-17.81,9.24-1.2.54-3.48-1.35-5.27-2.12.04-.64.08-1.28.12-1.91Z"/>
        <path class="cls-1" d="M613.47,1387.5c-1.77-1.99-3.03-2.81-3.3-3.89-.26-.99.17-2.68.93-3.34,4.1-3.58,8.36-7,12.68-10.32.72-.56,2.5-.84,2.98-.38.97.91,2.2,3.24,1.89,3.55-4.8,4.82-9.83,9.4-15.18,14.38Z"/>
        <path class="cls-1" d="M649,1345.8c-4.72,7.12-8.04,12.22-11.53,17.2-.25.36-2.22.2-2.49-.25-.77-1.3-1.91-3.29-1.42-4.28,2.35-4.74,5.11-9.28,7.93-13.77.38-.6,1.96-.81,2.88-.64,1.47.28,2.84,1.03,4.63,1.73Z"/>
        <path class="cls-1" d="M241.72,1125.67c2.64-3.78,5.01-3.98,7.96-1.05,2.45,2.44,5.22,4.58,7.97,6.68,2.21,1.69,3.22,3.77,1.07,5.72-.85.77-3.62.48-4.8-.34-3.51-2.45-6.69-5.37-9.93-8.19-.84-.73-1.42-1.75-2.27-2.83Z"/>
        <path class="cls-1" d="M354.84,984.97c7.88-6.76,17.36-8.59,21.78-4.2-6.58,6.73-17.83,8.9-21.78,4.2Z"/>
        <path class="cls-1" d="M586.68,1402.48c-1.14-1.44-2.32-2.31-2.54-3.38-.21-1.03.21-2.83.98-3.31,4.19-2.65,8.51-5.12,12.93-7.36.78-.4,2.61.21,3.29.96.71.79,1.15,3.12.77,3.38-4.91,3.3-9.98,6.35-15.43,9.72Z"/>
        <path class="cls-1" d="M318.21,1164.31c5.61,2.5,10.78,4.71,15.82,7.17.53.26.85,2.36.4,2.94-.8,1.03-2.57,2.42-3.39,2.13-4.98-1.75-9.85-3.83-14.62-6.09-.66-.31-.98-2.35-.69-3.38.29-1.03,1.54-1.78,2.48-2.76Z"/>
        <path class="cls-1" d="M301.31,1456.52c5.03-2.02,9.95-4.37,15.13-5.85,1.66-.47,3.98,1.39,6,2.18-.02.72-.04,1.44-.05,2.16-5.44,2.1-10.79,4.47-16.37,6.1-1.32.39-3.36-1.72-5.08-2.68.12-.64.24-1.27.36-1.91Z"/>
        <path class="cls-1" d="M219.49,225.3c4.83-4.41,10.84-1.03,17.33,10.3-1.77,2.44-3.82,4.12-6.61,1.3-3.62-3.65-7-7.55-10.72-11.6Z"/>
        <path class="cls-1" d="M598.55,899.08c-5.46,1.77-10.86,3.83-16.44,5.08-1.4.31-3.38-1.99-5.1-3.08l.32-1.82c5.3-1.68,10.54-3.71,15.96-4.83,1.56-.32,3.65,1.96,5.5,3.05l-.24,1.61Z"/>
        <path class="cls-1" d="M246.59,269.02c4.45-1.47,6.72-.39,7.7,3.26.85,3.21,2.02,6.38,2.51,9.64.2,1.34-1.03,2.9-1.61,4.36-1.5-.73-3.93-1.12-4.34-2.25-1.72-4.79-2.84-9.8-4.26-15.02Z"/>
        <path class="cls-1" d="M297.47,1017.39c-4.48,2.4-8.88,4.96-13.49,7.07-.96.44-3.35-.39-3.86-1.31-.54-.98-.12-3.5.73-4.06,3.43-2.26,7.03-4.45,10.88-5.77,1.6-.55,3.97,1.14,6,1.81l-.26,2.25Z"/>
        <path class="cls-1" d="M593.23,1262.82c-3.19.15-6.44.72-9.56.31-2.55-.34-5.13-1.57-7.35-2.95-1.16-.72-1.57-2.62-2.33-3.99,1.44-.72,3.19-2.37,4.27-2.01,5.14,1.71,10.09,3.96,15.11,6.02-.05.87-.1,1.75-.14,2.62Z"/>
        <path class="cls-1" d="M502.12,582.74c-4.46-1.48-8.4-2.38-11.88-4.16-1.34-.68-1.64-3.39-2.41-5.17,1.55-.25,3.22-.98,4.64-.65,3.68.87,7.38,1.94,10.8,3.51,1.04.48,1.63,2.9,1.57,4.4-.04.79-1.92,1.51-2.71,2.07Z"/>
        <path class="cls-1" d="M758.3,826.65c4.62-2.27,8.94-4.69,13.53-6.42,1.15-.43,3.14,1.36,4.75,2.14-.75,1.24-1.22,2.94-2.32,3.63-2.65,1.67-5.64,2.81-8.43,4.28-3.37,1.78-5.66.89-7.53-3.62Z"/>
        <path class="cls-1" d="M561.46,1254.99c-4.98-1.65-9.12-2.85-13.08-4.47-.86-.36-1.82-2.66-1.44-3.37.61-1.14,2.51-2.59,3.51-2.36,4.33.98,8.57,2.41,12.73,3.98.77.29,1.67,2.34,1.34,3-.67,1.35-2.13,2.31-3.06,3.23Z"/>
        <path class="cls-1" d="M238.02,1514.89c2.69-3.75,5.27-7.58,8.09-11.21,2.27-2.91,4.55-1.58,7.44.76-3.01,4.1-5.65,8.3-8.96,11.87-1,1.08-3.86.43-5.87.57-.23-.67-.47-1.33-.7-2Z"/>
        <path class="cls-1" d="M222.63,1099.79c6.79-2.1,8.17-1.14,12.83,9.28.72,1.6-.77,4.18-1.23,6.31-.79.04-1.57.09-2.36.13-2.99-5.09-5.99-10.19-9.24-15.72Z"/>
        <path class="cls-1" d="M230.64,411.33c.08-1.57-.22-2.8.27-3.48.82-1.16,2.12-2.7,3.24-2.72,1.05-.02,2.85,1.6,3.06,2.73.65,3.55,1.06,7.23.84,10.81-.09,1.41-2.08,2.7-3.2,4.04-1.03-1.04-2.66-1.92-2.99-3.14-.76-2.84-.9-5.85-1.21-8.23Z"/>
        <path class="cls-1" d="M271.98,475.9c-.69.87-1.3,2.2-2.33,2.77-.74.41-2.39.17-3.03-.42-2.91-2.69-5.75-5.5-8.27-8.54-.61-.74-.39-2.94.29-3.75.7-.82,3.07-1.47,3.63-.97,3.2,2.85,6.1,6.05,9.06,9.17.31.33.35.9.66,1.74Z"/>
        <path class="cls-1" d="M606.58,890.34c9.03-6.04,15.25-6.52,18.65-1.59-6,5.78-15.08,6.71-18.65,1.59Z"/>
        <path class="cls-1" d="M700.94,625.75c-4.31-.86-7.41-1.05-10.09-2.21-1.28-.55-1.76-2.96-2.6-4.53,1.32-.56,2.67-1.65,3.96-1.58,2.8.15,5.65.62,8.32,1.47,1.56.5,2.79,2,4.17,3.05-1.42,1.43-2.83,2.86-3.76,3.79Z"/>
        <path class="cls-1" d="M551.41,908.4c4.34-1.53,8.56-3.41,12.99-4.34,1.42-.3,3.37,1.92,5.4,3.19-8.34,6.84-15.77,7.34-18.39,1.15Z"/>
        <path class="cls-1" d="M664.86,612.22c4.21.81,7.3.99,10.01,2.1,1.35.56,1.99,2.84,2.95,4.34-1.43.66-2.89,1.94-4.27,1.86-2.96-.16-5.99-.7-8.75-1.74-1.2-.45-2.48-2.53-2.45-3.85.02-1.08,1.92-2.13,2.51-2.72Z"/>
        <path class="cls-1" d="M539.89,1421.09c-.77-.8-2.28-1.75-2.17-2.4.28-1.57.96-3.81,2.14-4.35,2.96-1.36,6.24-2.15,9.48-2.7.94-.16,2.77,1.11,3.07,2.07.32,1.05-.32,3.31-1.13,3.65-3.48,1.46-7.17,2.41-11.39,3.74Z"/>
        <path class="cls-1" d="M219.25,1550.78c1.31-3.75,2.06-7.05,3.65-9.89.67-1.2,3.1-1.41,4.73-2.07.41,1.47,1.38,3.05,1.13,4.4-.51,2.73-1.36,5.53-2.72,7.93-.68,1.2-2.74,1.98-4.27,2.16-.74.09-1.69-1.65-2.52-2.53Z"/>
        <path class="cls-1" d="M892.33,736.8c-1.49,3.91-2.31,7-3.87,9.65-.6,1.02-2.97,1.54-4.38,1.31-.69-.11-1.62-2.56-1.39-3.76.52-2.72,1.48-5.42,2.69-7.92.55-1.13,2.42-2.71,3.13-2.46,1.5.52,2.63,2.1,3.83,3.18Z"/>
        <path class="cls-1" d="M281.24,482.18c3.47,3.08,6.75,5.76,9.65,8.8.5.53-.3,2.89-1.13,3.87-.47.55-2.52.42-3.36-.14-2.72-1.83-5.34-3.87-7.72-6.12-.68-.64-.87-2.42-.51-3.38.38-1.03,1.68-1.73,3.08-3.03Z"/>
        <path class="cls-1" d="M746.63,635.64c-3.81-1.07-6.91-1.71-9.78-2.89-.95-.39-2.1-2.47-1.79-3.21.5-1.19,2.24-2.8,3.26-2.67,3.4.43,6.78,1.36,10.01,2.54.76.28,1.48,2.54,1.13,3.48-.45,1.21-2,2-2.82,2.74Z"/>
        <path class="cls-1" d="M715.35,855.27c-3.91,1.69-7.43,3.55-11.17,4.65-1.17.34-2.93-1.34-4.42-2.1.68-1.25,1.07-2.91,2.11-3.64,1.74-1.22,3.92-1.78,5.87-2.73,3.41-1.66,5.72-.69,7.61,3.82Z"/>
        <path class="cls-1" d="M249.91,1038.23c3.39,3.17,3.59,5.64.96,8.31-1.75,1.77-3.26,3.81-5.18,5.37-.89.73-3.41,1.1-3.61.75-.78-1.39-1.79-3.79-1.15-4.62,2.65-3.46,5.86-6.49,8.98-9.8Z"/>
        <path class="cls-1" d="M346.54,1440.55c6.66-5,12.66-4.98,15.96.07-6.5,5.19-13.37,5.16-15.96-.07Z"/>
        <path class="cls-1" d="M268.73,1478.1c5.71-8.46,10.56-10.39,14.93-6.16-4.12,6.91-9.91,9.41-14.93,6.16Z"/>
        <path class="cls-1" d="M805.28,648.99c3.74,1.6,6.99,2.6,9.72,4.38.99.64.73,3.18,1.05,4.85-1.31.2-2.75.83-3.91.5-2.7-.76-5.39-1.76-7.82-3.14-.91-.52-1.57-2.43-1.41-3.58.15-1.09,1.53-2.01,2.38-3.01Z"/>
        <path class="cls-1" d="M525.88,589.35c-3.54-.98-6.27-1.33-8.55-2.53-1.11-.59-1.9-2.79-1.82-4.2.04-.69,2.45-1.8,3.72-1.73,2.27.14,4.59.81,6.7,1.69,1.45.6,2.59,1.94,3.86,2.94-1.39,1.35-2.77,2.71-3.92,3.82Z"/>
        <path class="cls-1" d="M633.49,880.4c3.56-1.32,7-2.9,10.61-3.73,1.11-.26,3.06,1.28,3.88,2.49.35.52-.92,2.89-1.97,3.46-7.16,3.84-9.69,3.42-12.52-2.21Z"/>
        <path class="cls-1" d="M572.74,1401.82c.9.97,2.2,1.74,2.37,2.72.21,1.2-.1,3.2-.91,3.74-2.46,1.61-5.22,2.85-7.99,3.85-.94.34-3.12-.18-3.28-.73-.42-1.38-.59-3.86.19-4.4,2.79-1.96,6.02-3.31,9.63-5.17Z"/>
        <path class="cls-1" d="M500.36,1418.31c1.67,1.24,4.38,2.21,4.81,3.78.96,3.58-2.32,4-4.75,3.84-3.03-.19-7.36,2.82-8.7-2.55-.73-2.93.73-3.59,8.65-5.07Z"/>
        <path class="cls-1" d="M722.37,845.7c7.32-6.52,11.2-7.02,14.14-1.99-5.18,6.08-10.45,6.95-14.14,1.99Z"/>
        <path class="cls-1" d="M523.88,1241.1c.28-1.67.2-2.3.47-2.62,3.68-4.3,6.75.42,10.09.85,2.27.29,4.06,1.72,2.55,4.56-.15.29-.34.82-.5.82-2.6-.1-5.31.11-7.77-.56-1.9-.52-3.5-2.16-4.85-3.04Z"/>
        <path class="cls-1" d="M472.74,1428.6c-1.54-1.2-4.05-2.15-4.42-3.63-.84-3.42,2.06-3.87,4.68-4,1.65-.09,3.4-.5,4.91-.08,1.27.36,3.27,1.87,3.16,2.61-.19,1.37-1.46,3.02-2.73,3.68-1.35.7-3.22.37-4.87.49-.25.31-.49.63-.74.94Z"/>
        <path class="cls-1" d="M503.34,933.58c-6.52,5.16-11.04,5.41-15.4.85,5.97-5.62,12.16-5.96,15.4-.85Z"/>
        <path class="cls-1" d="M787.92,819.27c-1.1-1.15-2.47-2.02-2.88-3.21-.28-.83.45-2.58,1.26-3.1,2.2-1.42,4.6-2.72,7.1-3.42,1.09-.31,3.25.61,3.77,1.58.5.93-.04,3.32-.92,3.92-2.4,1.66-5.22,2.71-8.33,4.22Z"/>
        <path class="cls-1" d="M671.3,873.54c-3.48,1.2-6.91,2.76-10.49,3.34-.87.14-2.27-2.92-3.42-4.5,3.15-1.26,6.23-2.98,9.5-3.56,1.35-.24,3.13,1.97,4.71,3.07l-.3,1.65Z"/>
        <path class="cls-1" d="M248.72,257.26c-5.54,1.42-11.72-4.2-10.79-8.71.17-.84,1.51-1.96,2.36-2.01,1.26-.08,3.21.29,3.74,1.16,1.77,2.88,3.03,6.07,4.69,9.56Z"/>
        <path class="cls-1" d="M247.98,444.74c1.95,3.11,4,5.74,5.25,8.71.48,1.13-.9,3.04-1.44,4.6-1.35-.49-3.15-.59-3.97-1.54-4.66-5.38-4.68-7.57.15-11.77Z"/>
        <path class="cls-1" d="M418,963.53c-6.56,5.34-10.64,5.55-14.39.95,5.85-5.25,10.03-5.6,14.39-.95Z"/>
        <path class="cls-1" d="M378.14,1186.67c-4.4,4.57-8.79,5.27-12.57,2.25-.95-.76-1.41-2.88-1.13-4.16.18-.79,2.35-1.87,3.33-1.63,3.32.82,6.5,2.16,10.37,3.53Z"/>
        <path class="cls-1" d="M307.89,509.78c-3.01-1.97-5.93-3.48-8.25-5.63-.84-.78-.62-3.25-.09-4.65.2-.53,2.98-.79,3.98-.18,3.41,2.05,7.8,3.92,4.35,10.46Z"/>
        <path class="cls-1" d="M453.49,1420.83c1.84,1.85,4.05,3.02,4.18,4.4.42,4.41-3.45,3.48-5.99,3.86-2.9.43-6.26-.55-5.7-3.59.32-1.76,4.36-2.83,7.5-4.67Z"/>
        <path class="cls-1" d="M852.39,778c2.54-1.99,4.68-4.14,7.24-5.48,1.12-.59,3.35.11,4.57.96.49.34.11,3.07-.7,3.97-4.71,5.25-7.19,5.44-11.11.55Z"/>
        <path class="cls-1" d="M272.85,1030.22c-2.45,1.8-4.19,3.38-6.19,4.47-1.44.79-3.38,1.49-4.82,1.13-.75-.19-1.69-3.68-1.19-4.1,2.42-2.07,5.2-3.81,8.1-5.15.54-.25,2.17,1.88,4.11,3.65Z"/>
        <path class="cls-1" d="M518.69,1425.05c-.93-1.08-2.92-2.34-2.87-3.53.21-5.47,5.05-3.4,8-4.11.87-.21,3.27,1.78,3.26,2.75-.03,5.19-4.65,3.28-8.39,4.89Z"/>
        <path class="cls-1" d="M161.67,212.04c-3.46-.25-6.71-.3-9.89-.82-.92-.15-2.44-1.88-2.26-2.48.4-1.38,1.42-3.19,2.62-3.61,4.23-1.49,8.15,1.26,9.53,6.92Z"/>
        <path class="cls-1" d="M505.91,1227.32c3.34,2.8,5.95,4.91,8.36,7.23.1.1-1.52,2.92-2.56,3.08-3.41.53-8.95-3.29-8.55-5.64.22-1.28,1.36-2.39,2.75-4.67Z"/>
        <path class="cls-1" d="M252.45,300.63c1.32-1.33,2.53-3.65,3.98-3.81,3.93-.44,3.64,2.95,3.65,5.52,0,2.28.91,5.43-3.07,5.42-4.53,0-3.16-3.66-4.56-7.13Z"/>
        <path class="cls-1" d="M217.59,1567.01c2.37-1.62,3.53-3.09,4.63-3.05,5.25.19,3.7,5.02,4.77,7.96.17.48-1.92,1.78-2.97,2.7-1.92-2.28-3.85-4.55-6.43-7.6Z"/>
        <path class="cls-1" d="M355.2,1181.3c-1.21.99-2.75,3.02-3.57,2.77-2.82-.87-5.38-2.54-8.04-3.91,1.19-1.34,2.55-3.93,3.54-3.8,2.76.38,5.36,1.88,8.03,2.95.02.67.03,1.33.05,2Z"/>
        <path class="cls-1" d="M881.52,758.62c-2.14,2.66-3.77,5.13-5.88,7.05-.79.71-3.27.73-4,.03-.83-.78-1.19-3.04-.66-4.11,2.2-4.46,5.14-5.35,10.55-2.97Z"/>
        <path class="cls-1" d="M878.18,692.22c-6.12,1.94-8.62.54-11.54-6.2,5.75-2.26,8.46-.86,11.54,6.2Z"/>
        <path class="cls-1" d="M212.51,215.83c-3.61,5.28-5.47,5.32-11.61.53,2.18-5.56,4.35-5.7,11.61-.53Z"/>
        <path class="cls-1" d="M679.6,864.6c6.08-5.17,9.42-5.06,11.76.38-5.87,4.85-8.89,4.75-11.76-.38Z"/>
        <path class="cls-1" d="M561.97,597.66c-2.89-.67-5.76-1.12-8.46-2.09-.83-.29-1.68-2.03-1.57-3.01.11-1.04,1.15-2.52,2.11-2.84,4.46-1.49,8.39,2.17,7.92,7.94Z"/>
        <path class="cls-1" d="M721.68,630.91c-3.06-2.07-5.17-3.5-7.27-4.93,1.41-1.27,2.91-3.66,4.21-3.55,2.35.19,6.37-.69,6.33,3.58-.01,1.38-1.77,2.74-3.27,4.9Z"/>
        <path class="cls-1" d="M648.63,617.61c-3.17-2.31-5.45-3.97-7.74-5.63,1.07-1.11,2.29-3.26,3.18-3.13,2.93.42,7.29-.88,7.72,3.99.1,1.17-1.59,2.5-3.16,4.77Z"/>
        <path class="cls-1" d="M239.48,355.5c3.11-2.78,5.06-4.53,7.02-6.28.85,1.25,2.67,2.87,2.37,3.69-.85,2.32-2.58,4.31-3.97,6.43-1.35-.96-2.7-1.92-5.41-3.85Z"/>
        <path class="cls-1" d="M486.48,1220.13c3.01,2.56,5.11,4.33,7.2,6.11-1.07,1.16-2.65,3.5-3.12,3.29-2.5-1.09-4.79-2.72-6.9-4.48-.2-.17,1.42-2.51,2.82-4.92Z"/>
        <path class="cls-1" d="M477.47,571.93c-.69.44-1.7,1.61-2.75,1.66-4.11.18-8.11-2.69-7.44-5.3.28-1.09,2.19-2.71,3.04-2.54,3.04.63,6.93.64,7.16,6.18Z"/>
        <path class="cls-1" d="M303.79,1165.97c-2.83-2.45-5.02-4.19-6.87-6.23-.16-.17,2.52-3.61,2.87-3.44,2.5,1.2,4.83,2.84,6.9,4.69.23.21-1.51,2.63-2.91,4.98Z"/>
        <path class="cls-1" d="M817.35,804.7c-3.6,1.44-6,5.87-10.13,2.3-.62-.53-.15-3.55.76-4.41,3.27-3.06,5.95-2.46,9.37,2.11Z"/>
        <path class="cls-1" d="M471.41,1224.68c-2.91-2.4-4.87-4.01-6.83-5.63,1.14-1.15,2.65-3.46,3.36-3.24,2.22.7,4.28,2.2,6.03,3.8.3.27-1.28,2.59-2.56,5.07Z"/>
        <path class="cls-1" d="M526.94,924.04c-4.67,3.53-6.8,3.43-11.61-.51,6.14-5.22,9.55-5.07,11.61.51Z"/>
        <path class="cls-1" d="M230.46,391.55c2.32-2.82,3.82-4.64,5.32-6.46,1.14,1.22,3.16,2.4,3.22,3.68.12,2.45.03,5.79-3.79,5.68-1.26-.03-2.48-1.46-4.74-2.9Z"/>
        <path class="cls-1" d="M781.94,640.51c-2.62,2.09-4.23,4.13-5.01,3.85-2.32-.82-4.31-2.56-6.42-3.93,1.15-1.13,2.43-3.31,3.42-3.18,2.26.28,4.38,1.69,8.01,3.27Z"/>
        <path class="cls-1" d="M259.47,321.69c-2.41,2.08-4.06,3.5-5.7,4.92-1-1.17-2.89-2.38-2.84-3.5.11-2.59.82-5.69,4.59-4.98,1.14.21,2.03,1.77,3.94,3.56Z"/>
        <path class="cls-1" d="M619.72,1280.24c5.26-3.41,7.07-3.1,10.76,1.58-3.83,4.05-5.73,3.81-10.76-1.58Z"/>
        <path class="cls-1" d="M264.98,1489.17c-2.56,5.9-4.15,6.58-9.04,3.85,1.71-6.31,4.42-7.47,9.04-3.85Z"/>
        <path class="cls-1" d="M292.24,1625.44c-2.19-2.08-3.54-3.36-4.89-4.65,1.18-1.22,2.6-3.61,3.48-3.42,1.9.4,3.53,2.12,5.27,3.31-1.07,1.32-2.13,2.64-3.86,4.77Z"/>
        <path class="cls-1" d="M601.25,1270.13c4.13-3.02,7.73-3.19,11.34.06-3.66,4.4-6.09,4.45-11.34-.06Z"/>
        <path class="cls-1" d="M423.61,557.63c-3.34.05-6.71.32-6.79-4.24-.01-.92,1.92-2.75,2.77-2.65,3.88.46,5.24,2.86,4.01,6.89Z"/>
        <path class="cls-1" d="M346.63,993.59c-4.85,3.29-6.23,3.18-10.52-.55,3.93-4.14,6.21-4.08,10.52.55Z"/>
        <path class="cls-1" d="M323.5,518.41c-5.67-1.58-6.28-2.77-4.04-7.78,5.71,1.04,6.7,2.93,4.04,7.78Z"/>
        <path class="cls-1" d="M358.08,533.16c-1.35.48-3.07,1.72-3.97,1.28-1.95-.94-3.49-2.75-5.2-4.21.99-1.1,2.39-3.31,2.9-3.12,1.88.7,3.46,2.19,5.16,3.39.37.88.75,1.77,1.12,2.65Z"/>
        <path class="cls-1" d="M395.36,973.33c-3.73,3.28-7.04,2.26-10.35-.69,4.04-4.15,6.39-4,10.35.69Z"/>
        <path class="cls-1" d="M886.73,709.17c-4.58,1.55-6.73-.47-7.49-4.84,5.27-2.17,7.14-.96,7.49,4.84Z"/>
        <path class="cls-1" d="M280.12,1151.37c1.66-.91,3.28-2.37,5.01-2.52,1.03-.09,2.69,1.7,3.21,2.99.32.78-1.11,3.25-1.53,3.2-2.21-.28-4.35-1.12-6.51-1.76-.06-.64-.12-1.27-.18-1.91Z"/>
        <path class="cls-1" d="M543.75,917.65c-3.06,2.32-5.74,3.16-7.81-.35-.38-.65.52-2.81,1.39-3.29,3.46-1.94,5.12.21,6.42,3.65Z"/>
        <path class="cls-1" d="M404.42,554.3c-1.91-2.51-3.44-3.78-3.83-5.34-.2-.79,1.63-2.1,2.54-3.18,1.21,1.28,2.76,2.39,3.48,3.9.33.7-.97,2.17-2.18,4.61Z"/>
        <path class="cls-1" d="M627.1,612.48c-.87-1.45-2.14-2.82-2.44-4.37-.15-.76,2.01-2.8,2.25-2.67,1.41.77,3.06,1.81,3.62,3.17.35.85-1.06,2.43-1.68,3.69-.58.06-1.17.12-1.75.18Z"/>
        <path class="cls-1" d="M240.24,376.83c-1.74-2.07-3.54-3.33-3.36-4.2.28-1.43,1.84-2.62,2.86-3.9,1.2,1.05,3.15,1.96,3.38,3.19.21,1.13-1.43,2.61-2.87,4.91Z"/>
        <path class="cls-1" d="M335.14,519.01c3.43.87,6.04,1.83,4.68,5.37-.35.9-2.71,1.95-3.56,1.58-3.43-1.48-2.2-4.05-1.12-6.96Z"/>
        <path class="cls-1" d="M274.42,1612.05c1.42,1.8,3.15,3.07,3.01,4.08-.17,1.28-1.92,3.33-2.9,3.28-1.34-.08-2.58-1.81-3.87-2.83,1.07-1.29,2.14-2.58,3.75-4.52Z"/>
        <path class="cls-1" d="M751.38,836.79c-1.95,2.05-4.14,3.23-6.34.29-.57-.75.07-2.41.15-3.65,2.15.37,4.31.74,6.46,1.12-.09.75-.18,1.49-.27,2.24Z"/>
        <path class="cls-1" d="M337.73,1448.39c-3.46,2.62-5.6.98-7.44-2.08,3.84-3.35,4.93-3.05,7.44,2.08Z"/>
        <path class="cls-1" d="M573.26,594.2c3.78-.38,6.01.36,5.84,3.74-.05.91-1.45,2.56-2.09,2.49-3.67-.38-3.39-3.24-3.75-6.23Z"/>
        <path class="cls-1" d="M434.1,958.3c-2.61-.49-5.23-.98-8.26-1.54,2.81-4.31,4.69-4.07,8.26,1.54Z"/>
        <path class="cls-1" d="M135.93,210.95c-1.28-2.11-2.81-3.77-2.5-4.28.81-1.3,2.44-2.08,3.74-3.07.64.94,1.95,2.04,1.77,2.78-.32,1.34-1.54,2.46-3.02,4.57Z"/>
        <path class="cls-1" d="M237.09,437.69c.29-1.69.31-3.52,1.04-5,.24-.49,2.31-.07,3.55-.07-.58,1.9-1.17,3.8-1.75,5.7-.94-.21-1.89-.43-2.83-.64Z"/>
        <path class="cls-1" d="M791.26,642.7c1.28,1.62,2.59,2.67,2.41,3.17-.49,1.35-1.62,2.46-2.5,3.66-.68-.78-1.96-1.61-1.91-2.33.09-1.24,1.02-2.43,2-4.5Z"/>
        <path class="cls-1" d="M267.39,1144.1c1.67-.82,3.34-1.64,5-2.46.26.82.94,2.21.7,2.38-1.37,1.04-2.96,1.79-4.47,2.64-.41-.85-.83-1.71-1.24-2.56Z"/>
      </g>
      <g>
        <g>
          <path class="cls-1" d="M318.39,1702.86c1.22-1.41,2.52-2.01,3.92-.97,1.42,1.04,1.14,2.51.62,3.97-2.48,6.9-7.45,10.6-14.64,11.5-7.5.95-14.28-.83-20.49-5.15-2.87-2-4.67-4.55-4.46-8.07.34-5.82-1.58-11.22-2.89-16.72-1.02-4.28-2.05-8.5-.43-12.86.18-.48-.16-1.18-.3-1.76-1.08-4.6-2.37-9.16-3.15-13.81-.37-2.24-.96-4.6-.92-6.74.1-4.49,2.36-8.21,6.91-9.71,2.73-.9,5.65-1.72,8.49-1.75,5.1-.05,10.21.5,15.32.84,1.96.13,3.91.58,5.85.52,4.18-.13,6.88,1.99,8.04,5.66,1.04,3.27,1.8,6.79,1.78,10.2-.04,5.67-.79,11.33-1.26,17-.54,6.43-1.11,12.85-1.66,19.27-.24,2.76-.48,5.52-.74,8.58ZM283.95,1677.49c.28,2.39.35,4.15.72,5.85,1.56,7.06,4.14,13.93,3.77,21.36-.04.83.88,1.95,1.65,2.54,4.86,3.71,10.37,5.44,16.5,4.83,2.42-.24,4.85-.56,6.66-1.92-.16-1.98-.52-3.69-.39-5.35.29-3.64.88-7.26,1.24-10.9.55-5.39,1.01-10.79,1.57-16.87-10.62,5.6-20.87,4.68-31.72.46ZM317.42,1657.97c-12.38,4.06-24.13,2.61-35.91-1.24-.2,4.89,1.32,9.08,2.61,13.28,11.33-5.28,21.86-4.48,32.07,2.96.41-4.96.79-9.73,1.22-14.99ZM316.36,1652.6c-.45-3.95-1.37-4.78-5.05-5.07-3.33-.27-6.66-.66-9.98-1.04-5.62-.64-11.21-.85-16.68.99-1.63.55-2.92,1.42-3.59,3.3,11.65,4.24,23.31,6,35.29,1.82ZM289.63,1673.45c6.53,2.67,13.95,2.92,18.19.61-6.02-2.38-11.96-2.64-18.19-.61Z"/>
          <path class="cls-1" d="M170.99,1711.28c-.23-3.36.57-4.29,3.89-4.44,3.47-.16,6.48,1.08,8.99,3.4,1.48,1.37,2.82,2.91,4.12,4.45.67.79,1.2,1.02,2.24.57,6.58-2.88,13.23-2.31,19.82-.09,3.87,1.3,5.99,4.07,5.96,7.5-.04,3.81-2.23,6.22-5.55,7.66-1.44.63-2.97,1.11-4.51,1.4-2.9.55-5.36-.33-7.24-2.7-2.19-2.77-4.04-5.68-3.86-9.83-1.7.74-3.14,1.29-4.52,1.99-2.27,1.15-2.8,1.02-4.5-.98-1.72-2.02-3.47-4.02-5.35-5.88-.86-.85-2.08-1.32-3.23-2.03-.57,3.51-.65,3.59-3.83,4.12-3.45.58-4.86,2.29-4.5,6.01.29,3.01,1.04,5.98,1.38,8.99.47,4.14.9,8.3,1.03,12.46.08,2.5.7,4.61,2.45,6.34,2.16,2.13,4.19,4.47,6.62,6.25,2.08,1.53,4.55,2.72,7.02,3.49,3.56,1.1,6.28,3.16,8.07,6.23,4.2,7.22,10.41,12.54,16.62,17.82,1.8,1.53,4.39,2.14,6.62,3.14,3.74,1.67,7.49,2.99,11.31.19,13.17-3.54,26.34-7.07,39.5-10.65,1.01-.27,1.87-1.03,2.86-1.4,1.27-.48,2.58-1,3.91-1.15,1.48-.16,2.35.88,2.5,2.3.17,1.5-.5,2.53-2.02,2.99-.95.29-1.83.78-2.76,1.11-2.01.71-4,1.47-6.05,2.03-11.57,3.18-23.16,6.29-34.73,9.49-1.75.48-3.44,1.24-5.09,2-2.01.93-3.97,1.21-6,.1-.61-.33-1.26-.61-1.93-.78-12.49-3.23-20.17-12.46-27.54-22.06-1-1.3-1.78-2.81-2.95-3.93-.96-.91-2.3-1.49-3.55-2.02-1.5-.65-3.21-.88-4.61-1.67-5.3-3.01-9.61-7.23-13.18-12.1-1.16-1.58-1.93-3.87-1.9-5.81.12-6.65-.95-13.11-2.25-19.57-.17-.87-.29-1.75-.36-2.63-.39-5.09.82-10.05,7.08-12.3ZM199.86,1718.86c-.21,3.24,1.43,5.29,3.33,7.19.3.3,1,.49,1.41.37,1.69-.48,3.46-.88,4.97-1.73,2.07-1.16,1.9-2.95-.29-3.98-2.89-1.36-5.99-1.81-9.42-1.85Z"/>
          <path class="cls-1" d="M230.05,1769.85c-.35.41-.66.78-.99,1.16,5.65,3.74,12.57,3.38,18.11-.98,1.54-1.21,2.92-2.61,4.3-4.01,4.37-4.45,8.8-5.37,14.46-2.7,3.24,1.53,6.19,1.28,9.16-.62,1.86-1.19,3.73-2.51,5.79-3.17,2.03-.65,4.34-.9,6.46-.69,3.77.37,7.42.09,10.72-1.65,6.61-3.48,13.82-5.14,20.8-7.53,6.13-2.1,12.35-2.42,18.63-2.98,1.49-.13,2.96-.6,4.39-1.07,1.58-.51,2.75-.19,3.47,1.33.66,1.41.14,3.07-1.42,3.61-2.19.76-4.53,1.75-6.76,1.66-7.98-.32-15.34,2.25-22.75,4.48-4.63,1.39-9.11,3.33-13.57,5.22-4.58,1.93-9.18,3-14.22,2.34-1.79-.23-3.8.48-5.59,1.12-1.46.52-2.73,1.56-4.08,2.38-3.96,2.42-8.03,2.74-12.32.88-5.16-2.24-6.54-1.91-10.51,2.18-3.72,3.84-7.87,6.95-13.31,7.91-5.04.88-9.68-.33-14.06-2.73-.79-.43-1.24-1.47-1.88-2.28-2.02,1.04-2.59,2.17-1.92,4.56.41,1.46.97,2.87,1.52,4.29.8,2.05.47,3.69-.95,4.31-1.56.68-2.8-.03-3.66-2.23-.69-1.76-1.35-3.54-1.84-5.36-1.02-3.8,0-7.03,3.09-9.49,1.61-1.28,3.34-2.41,5.2-3.72-.41-.16-.63-.31-.85-.31-6.95.03-11.77-3.64-15.58-9.02-1.75-2.48-3.25-5.15-5.18-7.47-1.33-1.6-3.03-3.08-4.86-4.04-5.1-2.68-9.71-5.74-11.93-11.38-.14-.35-.31-.7-.38-1.07-.42-2-1.04-3.7-3.16-4.71-1.49-.71-2.13-2.45-1.69-4.1.22-.82,1.09-1.8,1.87-2.04.66-.2,1.66.49,2.42.94.39.23.52.99.91,1.14,2.83,1.08,3.58,3.42,4.14,6.09.79,3.76,3.16,6.72,6.55,8.17,6.68,2.85,10.9,7.94,14.47,13.92,1.93,3.24,4.38,6.1,8.13,7.36,1.36.46,2.83.67,4.26.8,3.88.34,6.59,2.33,8.4,5.68.68,1.26.84,2.55-.2,3.7-1.09,1.21-2.34.99-3.61.14Z"/>
          <path class="cls-1" d="M232.65,1722.52c1.91-.69,3.83-1.93,5.74-1.93,2.11,0,4.2,1.88,6.38-.05.19-.17.84.11,1.25.26,7.58,2.83,15.4,3.13,23.37,2.48,2.31-.19,4.7.52,7.05.85,1.11.16,2.23.64,3.32.58,3.51-.18,4.78.54,6.02,3.8.16.41.3.83.54,1.51.62-.55,1.15-1.03,1.69-1.5,3.32-2.89,6.46-3.3,10.28-1.13,2.2,1.25,4.24,2.75,6.4,4.06,4.81,2.91,9.83,3.79,15.23,1.66,2.57-1.01,3.77-.66,5.5,1.47,1.86,2.27,4.36,2.53,7.01,2.62,5.74.21,11.51.3,17.22.84,3.75.36,7.45,1.38,11.15,2.2,1.75.39,2.68,1.84,2.33,3.32-.37,1.56-1.72,2.41-3.55,1.93-9.32-2.44-18.78-3.35-28.4-2.95-3.37.14-6.3-1.07-8.77-3.43-.39-.37-1.25-.64-1.72-.48-6.31,2.21-12.23,1.14-17.88-2.08-2.14-1.22-4.14-2.69-6.23-3.99-2.58-1.6-3.68-1.46-5.88.63-.5.48-.98.99-1.46,1.5-1.58,1.66-2.06,1.75-4.21.78-2.43,2.68-5.34,3.72-8.8,2.02-3.57-1.75-5.57-4.48-5.15-8.91-8.62.98-17.08.67-25.37-2.15-.29.58-.5,1.09-.79,1.56-2.42,3.96-6.44,4.81-10.24,2.18-.52-.36-1.02-.76-1.49-1.17-2.32-2.02-2.45-2.86-.92-5.91.12-.18.24-.37.36-.55ZM276.1,1729.98c.79,2.06,2.77,3.27,4.14,2.63,1.09-.51,1.36-1.34.74-2.22-1.74-.14-3.22-.27-4.88-.41Z"/>
          <path class="cls-1" d="M292.01,1776.09c-1.06-.21-2.6-.5-4.14-.8-1.48-.29-2.95-.64-4.44-.87-1.65-.25-2.54-1.24-2.51-2.81.02-1.59.96-2.63,2.63-2.65,1.06,0,2.21.02,3.17.42,5.13,2.11,10.11,1.11,14.97-.74,5.01-1.91,9.84-4.34,14.9-6.1,3.54-1.23,7.33-1.83,11.05-2.49,2.21-.39,4.26-.83,6.09-2.29,5.36-4.26,11.86-5.74,18.35-7.27,4.16-.98,8.27-2.23,12.37-3.46,1.94-.58,3.16-.28,3.78,1.27.61,1.53.08,3.11-1.68,3.66-4.81,1.51-9.64,3.02-14.55,4.15-6.09,1.4-11.93,3.16-16.95,7.15-1.4,1.11-3.46,1.83-5.25,1.92-7,.37-13.2,3.1-19.53,5.72-4.7,1.95-9.65,3.29-14.52,4.82-1,.31-2.13.23-3.72.38Z"/>
          <path class="cls-1" d="M286.08,1753.34c-5.5-.74-11.01-1.49-16.51-2.21-.69-.09-1.43-.23-2.08-.07-3.23.82-5.87-.6-8.54-2.07-2.16-1.19-3.14-3.03-3.22-5.41-.01-.38.02-.76.05-1.14.43-5.19,2.62-5.32,6.06-3.24,3.2,1.93,6.98,2.89,10.44,4.42,1.08.48,1.88,1.58,2.94,2.13.7.36,1.94.64,2.42.28,4.09-3.07,8.77-1.8,13.23-1.86.62,0,1.68.98,1.81,1.65.75,3.83-.02,7.82-5.45,7.51-.38-.02-.76-.06-1.14-.08,0,.03,0,.06-.01.09Z"/>
          <path class="cls-1" d="M241.2,1744.69c2.6-2.08,4.19-1.54,5.07,1.63,1.08,3.92-.23,6.86-3.94,8.5-2.19.96-4.4,1.95-6.7,2.53-1.59.4-3.42.45-5.02.08-3.86-.88-5.83-3.59-5.53-7.03.42-4.84,3.29-7.9,7.78-8.28,3.13-.26,6.02.28,8.34,2.56ZM241.76,1747.98c-.2-.14-.41-.27-.61-.41-1.26,1.55-2.58,1.44-4.22.59-1.05-.54-2.44-.69-3.65-.6-2.2.17-3.43,1.62-3.14,3.27.21,1.19,2.15,1.95,4.05,1.34,2.21-.71,4.38-1.59,6.5-2.55.5-.23.72-1.08,1.07-1.64Z"/>
          <path class="cls-1" d="M223.87,1731.9c1.01,0,2.01-.01,3.02,0,1.66.03,2.63.95,2.77,2.53.13,1.48-.57,2.68-2.14,2.86-1.34.15-2.15.67-2.65,1.92-.2.49-.68.92-1.12,1.26-1.5,1.13-3.01,2.25-4.56,3.31-2.44,1.66-5.19,1.08-6.93-1.4-1.82-2.59-1.4-5.52,1-7.38,3.14-2.44,6.63-3.58,10.61-3.09Z"/>
          <path class="cls-1" d="M232.65,1722.52c-.12.18-.24.37-.36.55-1.21-.14-2.5-.06-3.62-.46-2.83-1-5.61-.63-8.42-.09-2.04.39-3.35-.29-3.67-1.93-.33-1.7.54-2.99,2.47-3.38,3.88-.78,7.77-1.18,11.57.41,2.62,1.09,3.08,2.22,2.03,4.9Z"/>
          <path class="cls-1" d="M182.59,1751.36c.19-2.61.3-4.89.55-7.14.25-2.27,1.22-4.23,3-5.72,1.16-.97,2.42-1.23,3.53-.02,1.07,1.16,1.24,2.67.08,3.74-1.47,1.36-1.76,2.94-1.82,4.76-.05,1.57-.18,3.16-.43,4.71-.24,1.49-1.17,2.42-2.78,2.21-1.62-.21-2.1-1.41-2.13-2.53Z"/>
          <path class="cls-1" d="M171.3,1734.17c.37-2.17.43-4.45,1.2-6.46.67-1.73,2.02-3.27,3.32-4.66.96-1.04,2.35-.99,3.35.13,1.05,1.17,1.25,2.76.02,3.73-2.18,1.7-2.51,3.93-2.59,6.37-.02.5-.13,1-.19,1.5-.2,1.58-.97,2.61-2.69,2.55-1.43-.06-2.41-1.44-2.43-3.15Z"/>
        </g>
        <g>
          <path class="cls-1" d="M706.41,1258.68c.93-7.04,1.89-14.06,2.78-21.09,1.2-9.38,2.17-18.79.76-28.22-.47-3.14-1.6-6.18-2.55-9.23-.18-.58-.9-1.07-1.48-1.43-1.09-.68-2.35-1.11-3.38-1.86-3.63-2.63-4.05-4.6-2.02-8.67.43-.85.78-1.77,1.35-2.51.96-1.25,1.21-2.37.7-4-.4-1.26-.27-3.07.37-4.21,2.2-3.88,5.76-6.1,10.2-6.13,4.32-.03,7.51,2.25,9.49,6.17.39.76.93,1.73,1.63,2.01,6.13,2.41,8.45,8.41,5.01,13.93-1.1,1.76-.94,2.97-.09,4.64,4.77,9.34,10.89,17.76,18.29,25.11,8.07,8.02,13.54,17.53,17.2,28.1,6.84,19.75,13.48,39.57,20.03,59.42,3.48,10.54,1.01,17.57-7.79,24.42-10.56,8.22-22.48,9.78-35.4,8.17-7.38-.92-11.43-4.74-13.78-11.43-3.26-9.29-7.29-18.34-10.12-27.76-1.48-4.91-3.24-9.61-5.08-14.36-1.74-4.5-2.94-9.27-3.84-14.02-1.06-5.59-1.54-11.29-2.28-17.04ZM729.81,1325.69c1.54,3.52,2.56,6.75,4.31,9.53.94,1.49,2.99,2.8,4.75,3.17,6.2,1.31,12.49,1.92,18.84.85,8.15-1.37,15-5.23,20.68-11.11,4.81-4.98,4.13-10.86,2.16-16.8-5.52-16.67-10.96-33.38-16.64-50-3.55-10.4-7.06-20.91-14.29-29.52-5.99-7.14-12.26-14.05-18.34-20.98-.32.43-.87,1.19-1.42,1.94,1.66,4.16,1.11,5.66-2.78,7.75-.61.33-1.22.68-1.72,1.14-3.25,2.96-6.71,3.79-10.54,1-.38,4.6-.76,9.03-1.11,13.28,2.8.67,5.7.67,7.76,1.99,4.18,2.68,7.03,1.11,9.86-1.87.3-.31.67-.55.97-.86,1.46-1.49,3.08-1.26,3.86.38,1.26,2.7,2.15,5.6,2.89,8.49.12.46-1.46,1.99-2,1.87-1.43-.32-1.77.53-2.36,1.33-3.32,4.52-7.58,7.59-13.26,8.26-3.39.4-6.8.56-10.89.89.6,5.4,1.51,10.85,1.73,16.33.2,5.04,2.35,7.82,7.29,8.48,3.13.42,6.55,1.86,9.32,1.05,6.08-1.77,11.84-4.68,17.33-6.97-.24-2.51-.68-4.47-.52-6.38.08-1.03,1.05-2.67,1.83-2.81,1.73-.31,2.17,1.25,2.22,2.77.01.32.08.65.04.36,1.36.47,2.93.57,3.2,1.21.36.86-.19,2.18-.53,3.24-.17.53-.88.87-1.12,1.4-.29.64-.61,1.46-.46,2.09,2.61,10.86,5.85,21.51,11.17,31.42,1.56,2.91,1.28,5.56-.88,7.91-4.14,4.5-9.08,7.69-15.06,9.24-5.23,1.36-10.44,1.02-16.32-.08ZM720.57,1300.12c.25.81.46,1.64.76,2.43,1.8,4.86,3.79,9.66,5.35,14.6.94,2.98,2.49,4.29,5.62,4.81,9.64,1.6,18.02-.38,25.05-7.43,1.55-1.55,1.79-2.82.68-4.76-1.37-2.38-2.55-4.92-3.48-7.51-2.69-7.46-5.21-14.98-7.83-22.58-4.48,1.9-9.32,3.94-14.15,6-3.57,1.52-7.21,1.67-10.91.6-1.93-.56-3.85-1.14-5.85-1.73-.02,4.29,2.11,8.63,5.68,11.18-.28-1.27-.37-2.15-.68-2.95-.56-1.46-.75-3,1.03-3.34.79-.15,2.06.99,2.76,1.84,1.22,1.47,2.16,3.17,3.47,5.16,1.73-3.25,3.33-5.6,6.93-4.26.31.11.81-.4,1.19-.35.92.13,2.33.16,2.59.69.35.71.13,2.27-.44,2.73-.91.74-2.36,1.3-3.49,1.16-1.54-.19-2.07.21-2.72,1.54-1.35,2.74-3.68,3.2-6.19,1.47-.49-.34-.98-.69-1.36-.97-1.3.54-2.46,1.02-4.01,1.66ZM705.06,1188.97c-2.14,3.01-1.98,3.69,1.2,5.3.53.27,1.24.31,1.65.68,1.23,1.12,2.91,2.16,3.4,3.58,1.25,3.66,2.17,7.46,2.81,11.28.56,3.35.57,6.78.86,10.65,4.26-5.42,7.49-11.59,15.26-12.13-2.53-4.42-4.89-8.62-7.34-12.76-.96-1.63-.6-3.02,1.4-3.47,2.23-.5,2.23-2.19,2.28-3.77.06-1.85-.23-3.74-2.4-4.4-1.74-.52-3.09-.29-4.36,1.49-4.01,5.66-7.21,6.48-13.6,3.99-.39-.15-.79-.3-1.18-.44ZM733.77,1239.69c-.99.73-1.82,1.33-2.63,1.95-2.98,2.27-5.85,3.07-9.51.9-2.39-1.41-5.47-1.67-8.52-2.52-.45,3.02-.8,5.37-1.24,8.34,2.35-1.07,4.12-2.02,6-2.67.65-.23,1.83.03,2.27.51.43.47.58,1.9.22,2.24-1.19,1.13-2.56,2.4-4.07,2.79-1.43.37-3.12-.29-5.37-.58.91.57,1.37,1.09,1.88,1.14,1.37.15,2.76.15,4.14.14,5.69-.04,10.42-2.07,14.08-6.57.83-1.02,2.2-1.61,3.57-2.56-.16-.6-.46-1.77-.82-3.13ZM716.33,1176.57c-3.07-1.49-5.22-1.34-7.67.62-1.1.88-2.7,1.66-1.96,3.87,3.19-1.63,7.14-1.15,9.63-4.49ZM707.77,1185.35c2.46,1.29,4.58,1.82,6.6.1,1.69-1.44,3.29-2.98,4.91-4.5.07-.06-.12-.41-.06-.21-3.74,1.51-7.42,2.99-11.45,4.61ZM725.71,1213.95c-1.57,1.74-2.89,3.19-4.2,4.65q4.94-2.55,4.2-4.65Z"/>
          <path class="cls-1" d="M676.9,1235.67c-1.62-6.62-3.21-13.13-4.74-19.39-3.83,1.17-7.6,2.59-11.51,3.45-3.95.87-8.02,1.18-12.42,1.79-1.07,1.79-1.33,3.94-.39,6.42,1.16,3.06,1.92,6.28,2.91,9.41.88,2.77.06,5.93,2.18,8.5.44.53-.26,2.33-.84,3.31-2.33,3.91-9.01,6.52-13.46,5.42-4.24-1.04-5.33-4.16-2.56-7.55,2.17-2.66,5.1-4.17,8.47-4.62,2.48-.33,3.02-1.55,2.32-3.74-1.05-3.3-1.93-6.65-3.09-9.9-1.16-3.25-1.06-6.26,1.1-9.23-1.19-1.07-2.54-1.94-3.4-3.17-.49-.7-.18-1.96-.23-2.97.94-.04,2.4-.5,2.76-.06,4.54,5.56,10.25,3.12,15.66,2.4,1.96-.26,3.89-.86,5.77-1.48,2.79-.93,4.98-2.35,5.95-5.54.74-2.42,2.3-4.64,3.75-6.77.42-.63,1.95-1.14,2.55-.84.61.3,1.21,1.85.95,2.51-.78,1.99-1.97,3.82-3.03,5.7-.9,1.6-1.2,2.92.14,4.68,1.02,1.34,1.44,3.35,1.57,5.1.31,4.37,1.15,8.52,3.25,12.4.44.81.63,1.79.75,2.72.24,1.83.67,3.73.42,5.51-.23,1.6-.93,3.38-2,4.57-2.67,2.98-6.35,4.04-10.26,4.34-.43.03-.87,0-1.3-.02-1.49-.09-3.62,1.57-4.31-.69-.68-2.22-1-4.75.77-6.91,2.77-3.38,6.48-4.77,10.66-5.23.58-.06,1.17-.08,1.61-.11Z"/>
          <path class="cls-1" d="M685.55,1129.65c-4.26-.26-6.29-1.7-7.33-4.99-1.09-3.47-.24-6.48,2.91-8.63,3.52-2.41,7.25-4.53,11.78-2.54.22.1.48.15.72.16,1.14.02,2.59-.42,3.35.11,1.87,1.31,3.66,2.82,3.24,5.68-.48,3.32,1.02,5.94,3.79,7.67,2.16,1.35,2.29,2.9.89,4.72-1.52,1.98-3.04,4-4.83,5.71-2.85,2.74-8.24,3.39-11.58,1.25-1.19-.76-2.01-2.49-2.46-3.94-.49-1.59-.36-3.37-.5-5.21ZM690.07,1135.02c5.78,1.36,7.7.48,10.5-4.23-1.82-3.19-3.5-6.14-5.4-9.46-2.27-.37-2.25-.38-4.19-3.38-.28-.44-.83-.89-1.32-.97-1.95-.3-6.44,2.05-7.35,3.82-.9,1.76-.31,3.39,1.21,4.29,1.18.7,2.72.97,3.58-1.03.24-.55,1.84-1.04,2.49-.77,1.54.64,2.22,2.28,1.27,3.65-1.82,2.63-.74,5.3-.79,8.09Z"/>
          <path class="cls-1" d="M764.91,1135.95c.97-5.23,1.74-10.24,2.89-15.16.51-2.16,1.62-4.25,2.85-6.12.35-.53,2.36-.6,3.1-.11,1.24.82.73,2.06-.29,3.06-.54.53-1.13,1.2-1.26,1.9-.92,4.83-1.88,9.65-2.55,14.52-1.38,10.02-7.1,14.14-17.62,10.51-2-.69-3.66-2.11-3.59-4.58.07-2.33,1.72-3.52,3.57-4.37,4.28-1.96,8.57-1.64,12.9.35Z"/>
          <path class="cls-1" d="M711.47,1162.12c.87-13.25,4.24-25.93,8.61-38.4.6-1.72,1.25-3.42,1.93-5.1.54-1.34.95-3.01,3.02-2.19,1.98.78,1.36,2.25.91,3.7-2.65,8.49-5.69,16.89-7.76,25.53-1.52,6.34-1.71,13-2.57,19.5-.13.96-.42,2.12-1.06,2.74-1.16,1.13-2.9.18-3.06-1.63-.12-1.38-.02-2.77-.02-4.16Z"/>
          <path class="cls-1" d="M661.43,1144.04c9.59.05,17.36,3.68,23.47,11.23,3.36,4.15,7.37,7.78,11.13,11.61,1.03,1.05,2.12,2.1.94,3.54-1.31,1.6-2.66.71-3.75-.41-3.75-3.84-7.74-7.48-11.11-11.63-5.59-6.9-12.55-10.34-21.42-10.15-1.79.04-4.66.94-4.69-2.06-.04-3.11,2.9-1.76,4.64-2.11.25-.05.52,0,.78,0Z"/>
          <path class="cls-1" d="M708.06,1045.44c-1.06.14-2.68-1.21-4.07.9-1.36,2.06-2.38,3.66-.21,5.75,1.02.98,1.36,2.36,0,3.37-1.47,1.09-2.46.23-3.41-1.04-3.27-4.35-3.53-5.33-.2-9.55,2.26-2.86,5.02-5.39,7.85-7.71,1.7-1.4,4.22-1.88,5.92-.07,1.02,1.09,1.65,3.1,1.49,4.6-.27,2.55-2.62,3.16-4.83,3.54-.68.12-1.38.12-2.53.21Z"/>
          <path class="cls-1" d="M711,1097.63c.54-6.79,2.93-13.17,5.82-19.37.32-.68,1.76-.83,2.69-1.22.3,1.01,1.08,2.17.83,3.02-1.51,5.2-3.27,10.33-4.9,15.5-.23.73-.25,1.53-.3,2.31-.09,1.5-.02,3.12-2.19,3.07-2.24-.05-1.96-1.72-1.95-3.31Z"/>
          <path class="cls-1" d="M737.59,1132.3c-2.29-.35-2.94-1.53-2.13-3.01,2.25-4.08,4.62-8.11,7.16-12.02.39-.6,1.88-.5,2.86-.72.1,1.07.64,2.37.22,3.16-1.97,3.74-4.18,7.36-6.39,10.97-.44.71-1.26,1.19-1.73,1.61Z"/>
          <path class="cls-1" d="M651.33,1097.52c1.46.93,2.8,1.57,3.86,2.51,1.48,1.3,2.86,2.75,4.05,4.31.45.59.63,2.05.25,2.44-.56.57-1.81.85-2.63.65-.82-.2-1.45-1.13-2.16-1.75-1.47-1.28-3.01-2.5-4.36-3.89-.57-.59-1.14-1.65-.99-2.34.16-.71,1.2-1.22,1.98-1.94Z"/>
          <path class="cls-1" d="M735.99,1089.32c.43.27,1.23.49,1.43.97.27.62.3,1.55.01,2.15-.75,1.6-1.63,3.16-2.66,4.59-.43.6-1.5,1.27-2.05,1.11-.74-.21-1.9-1.47-1.76-1.81.93-2.23,2.13-4.36,3.34-6.46.18-.32.91-.31,1.69-.55Z"/>
          <path class="cls-1" d="M732.36,1262.77c1.77,1.5,3.1,2.62,4.4,3.77.15.13.23.63.14.72-.75.68-1.5,1.72-2.37,1.84-1.63.23-4.91-2.38-4.53-3.43.34-.95,1.32-1.67,2.36-2.9Z"/>
          <path class="cls-1" d="M729.94,1311.58c-.61-.36-1.75-.82-2.61-1.6-.46-.42-.66-1.41-.57-2.09.15-1.14,5.22-3.79,6.16-3.14,1,.69,2.19,1.8,2.36,2.87.26,1.66-2.94,4.04-5.34,3.96Z"/>
        </g>
        <g>
          <path class="cls-1" d="M169.44,1076.28c0,4.5-.09,8.66.03,12.82.12,4.15.42,8.29.72,12.43.03.38.53.87.92,1.05,2.26,1.03,4.51,2.15,6.87,2.91,2.47.8,3.84,2.21,3.95,4.77,0,.13.02.26,0,.39-.24,3.23-.9,6.43.67,9.61.51,1.02,0,2.52.07,3.8.32,6.4.89,12.8.94,19.21.04,6.21.02,12.48-.81,18.61-1.26,9.23-6.41,16.23-14.28,21.17-7.58,4.76-15.97,7.24-24.74,8.58-9.99,1.52-20.01,2.34-30.13,1.58-11.78-.88-23.18-3.57-34.48-6.85-2.27-.66-4.5-1.51-6.81-2.02-6.18-1.35-11.11-4.82-15.71-8.93-1.68-1.49-2.6-3.33-2.71-5.55-.18-3.72-.25-7.44-.46-11.16-.1-1.77-.44-3.52-.63-5.28-.08-.7-.3-1.52-.03-2.09.88-1.89.21-3.5-.42-5.26-.42-1.17-.49-2.52-.5-3.79-.03-6.62.02-13.23.02-19.85,0-2.8.12-5.51,2.1-7.8.34-.39.29-1.18.29-1.79,0-4.37.93-8.4,4.87-10.89,1.5-.94,3.43-1.22,5.19-1.74,3.29-.97,6.61-1.86,9.89-2.87.31-.1.58-.8.62-1.25.14-1.66.22-3.33.26-5,.14-5.52.15-11.04.4-16.56.12-2.61-.53-4.86-1.99-6.96-1.29-1.88-1.01-4.11.74-6.17,4.63-5.46,10.7-8.23,17.62-9.38,1.45-.24,3.31,0,4.23-.82.77-.69.24-2.67.65-3.96.53-1.66.15-3.07-.39-4.62-1.8-5.1-.29-7.39,4.6-9.66,6.53-3.04,13.32-3.44,20.27-3.35,4.94.06,9.91-.03,14.82.44,2.94.28,5.9,1.25,8.66,2.38,4.88,2,7.44,10.12,4.88,14.77-.27.5-.61,1.04-1.07,1.33-1.68,1.08-1,2.67-.73,3.99.1.47,1.39.72,2.16,1.02,3.1,1.18,6.34,2.1,9.29,3.58,3.55,1.78,6.84,4.04,10.27,6.06,1.77,1.04,2.91,2.48,3.19,4.55.2,1.45.58,2.9.56,4.35-.02,1.93-1.32,3.11-3.88,4.19ZM171.18,1158.15c-1.15-.18-2.29-.36-2.88-.46-1.12.92-1.88,1.98-2.87,2.31-4.19,1.38-8.4,2.74-12.69,3.73-12.47,2.88-25.17,3-37.88,2.7-.68-.02-1.36,0-2.03,0-.05.19-.09.37-.14.56.65.23,1.31.68,1.95.66,9.55-.26,19.1-.42,28.63-.96,3.65-.21,7.37-.95,10.85-2.09,5.76-1.9,11.34-4.31,17-6.52,2.58-1.52,5.17-3.03,7.75-4.55-.14-.21-.27-.43-.41-.64-2.68,1.39-5.6,2.4-7.28,5.27ZM177.66,1120.36c-.83.56-1.45.97-2.06,1.4-3.1,2.19-6.28,4.21-10.09,4.97-3.45.68-6.87,1.58-10.35,2.13-4.54.72-9.11,1.32-13.69,1.71-1.32.11-2.42.21-3.49,1.06-1.99,1.59-4.09,1.77-6.42.46-2.69-1.51-5.78-.7-7.53,1.75-1.8,2.52-4.07,4.46-7.27,4.43-4.79-.04-8.72-1.85-11-6.37-.42-.82-.88-1.62-1.26-2.31-1.86,1.49-3.44,3.03-5.28,4.17-4.51,2.78-9.16,1.78-12.08-2.62-1.12-1.69-1.76-3.69-2.67-5.51-.22-.45-.6-.98-1.02-1.13-3.05-1.09-6.13-2.12-9.21-3.1-1.45-.46-2.99-1.26-4.4-1.1-3.91.46-7.51-.55-11.1-1.75-1.18-.39-1.62.07-1.71,1.02-.15,1.59-.18,3.2-.19,4.8-.02,4.27,0,8.54,0,12.8.2.07.41.14.61.21.39-.48.75-1,1.17-1.45,3.54-3.76,8.68-2.97,10.82,1.77.39.87.36,2.25-.06,3.12-2.16,4.54-7.41,5.25-10.8,1.59-.48-.52-.93-1.08-1.5-1.74-.95,4.17.72,6.77,5.04,8.13,1.52.48,3.21.61,3.71,2.56.04.16.38.25.58.36,1.05.62,2.28,1.06,3.11,1.91,2.52,2.58,5.27,4.78,8.61,6.47.02-3.58.58-4.13,3.97-4.05.96.02,1.94.09,2.86.32,4.22,1.07,8.43,2.17,12.62,3.35,1.61.45,2.19,1.69,1.85,3.31-.11.5-.38.97-.59,1.48,3.07.59,5.96,1.14,8.44,1.62-.08-1.42-.49-2.77-.14-3.88.5-1.59,2.11-1.29,3.47-1.25,4.36.12,8.73.26,13.1.27,13.29.02,26.38-1.29,39.03-5.71,1.39-.48,2.95-.48,4.68-.74,1.29-2.58,4.04-4.11,6.8-5.63,1.53-.85,3.74-1.3,4.45-2.59.74-1.35.06-3.49,0-5.29-.22-6.4-.44-12.8-.68-19.19-.02-.49-.16-.97-.3-1.74ZM80.21,1096.16c4.47-.53,7.03.72,8.87,4.92.93,2.12,2.4,3.06,4.47,3.36,2.98.44,6,.66,8.95,1.23,2.23.43,3.96.15,5.79-1.39,2.61-2.19,5.05-1.33,6.37,1.86.2.47.27,1.01.55,1.43.28.42.7.96,1.12,1.03,2.27.36,4.62,1.04,6.83.77,4.88-.59,9.68-1.73,14.53-2.55,1.45-.25,2.39-.77,2.93-2.26,1.18-3.3,6.8-5.18,8.99-.9.27.52,1.08,1.18,1.55,1.11,1.76-.27,3.5-.72,5.19-1.27,1.31-.43,2.49-.64,3.41.61.87,1.18.66,2.91-.71,3.72-1.29.76-2.78,1.26-4.25,1.6-1.72.39-3.19.79-4.38,2.37-1.93,2.55-5.74,3.17-8.31,1.2-1.72-1.32-3.17-1.1-4.95-.66-6.92,1.69-13.84,3.53-21.05,1.68-.36-.09-.97.16-1.25.45-3.83,4.12-8.2,3.2-10.14-2.1-.2-.56-.96-1.18-1.55-1.28-2.4-.4-4.84-.57-7.25-.88-4.92-.62-9.55-1.64-11.42-7.2-.6-1.79-2.14-2.03-3.82-1.39-1.01.39-2.16,1.27-3.02,1.05-2.06-.54-3.58.6-5.33,1.04-2.78.69-5.58,1.26-8.38,1.88-.56.13-1.11.28-1.78.46.27.31.33.45.43.49,9.39,3.22,18.06,8.64,28.38,9.05,1.42.06,3.02,1.1,4.09,2.15.8.78.89,2.3,1.13,3.02,2.25.68,4.66.95,6.53,2.1,2.01,1.24,3.64,1.46,5.83.7,2.05-.71,4.86,1.22,5.23,3.17.33,1.75-.61,2.75-3.16,3.38,2.04,3.5,6.93,3.94,9.32.82.39-.51.76-1.03,1.12-1.56,1.82-2.6,4.16-3.94,7.42-3.14.36.09.99.01,1.17-.23,2.14-2.79,5.13-3.24,8.38-3.46,3.63-.25,3.65-.43,4.91,3.11,3.32-.49,6.7-.99,9.6-1.41-.41-1.5-1.11-2.77-.99-3.97.16-1.59,1.67-1.88,3.11-1.94.43-.02.86-.24,1.26-.43,2.16-1.05,4.33-2.02,6.81-1.12.21.08.52.02.73-.08,1.86-.93,3.75-1.82,5.56-2.85,2.42-1.37,4.64-3.2,8.07-2.82-2.06-.82-3.7-1.47-5.34-2.13-2.86-1.15-5.07-3.66-8.43-3.89-.62-.04-1.5-1.43-1.6-2.28-.09-.76.58-1.8,1.23-2.37.51-.44,1.5-.34,1.98-.43-.23-7.23-.47-14.38-.71-22.04-1.89,1.19-3.42,2.07-4.88,3.07-3.95,2.72-7.95,3.43-12.13.54-1.41-.97-2.78-.57-3.86.49-4,3.9-8.34,3.97-13.05,1.44-3.65-1.96-7.02-1.4-10.16,1.23-1.62,1.36-3.26,2.71-5.02,3.88-3.04,2.04-5.87,1.91-8.66-.47-1.5-1.28-2.67-2.95-4.12-4.29-.69-.64-1.68-1.19-2.59-1.31-2.71-.35-5.09-1.28-7.04-3.21-1.46-1.45-2.81-3.01-4.35-4.36-.71-.62-1.77-1.13-2.69-1.16-1.71-.07-3.43.25-5.48.44v21.98ZM178.12,1160.46c-3.41,1.63-6.49,3.4-9.77,4.59-6.43,2.34-12.84,5.36-19.51,6.26-10.26,1.38-20.73,1.24-31.12,1.68-1.74.07-3.64.47-5.01-1.25-.15-.19-.71-.04-1.08-.05-1.28-.02-2.57.07-3.83-.09-5.84-.78-11.67-1.58-17.49-2.48-6.91-1.07-13.55-2.97-19.21-7.3-1.7-1.31-3.24-2.31-5.61-2.18-1.69.1-3.44-.84-5.15-1.36-.58-.18-1.12-.47-1.56-.66,0,3.88-.11,7.59.07,11.29.05,1,.76,2.17,1.52,2.88,3.89,3.64,8.27,6.46,13.61,7.55,1.81.37,3.57,1.04,5.35,1.58,10.2,3.09,20.53,5.59,31.14,6.75,11.57,1.26,23.08.41,34.5-1.57,8.21-1.42,16.09-3.9,22.94-8.89,5.66-4.12,9.07-9.63,10.2-16.75ZM147.81,1057.98c-.84,4.32-3.53,5.73-6.81,6.35-2.57.49-5.17.87-7.76,1.28-2.26.37-3.32-.3-3.6-2.23-.23-1.61.87-2.61,2.99-2.95,2.84-.45,5.68-.91,8.48-1.57.7-.17,1.7-1.04,1.76-1.66.21-2.27.08-4.57.08-6.94-2.07.22-3.59.53-5.1.51-1.53-.01-3.07-.23-4.57-.56-2.36-.52-4.31-.13-6.21,1.53-4.86,4.25-9.17,3.5-12.67-1.84-.55-.84-1.74-1.69-2.69-1.75-3.29-.21-6.61-.08-10.05-.08-.07,1.09-.16,2.17-.19,3.25-.17,4.88,1.26,6.47,6.15,7.24,5.19.82,10.35,1.78,15.53,2.68,1.44.25,2.09,1.16,2.11,2.55.03,1.74-1.1,2.84-3.05,2.52-6.13-1-12.29-1.93-18.32-3.39-2.06-.5-4.47-2.07-5.46-3.85-1.45-2.61-3.15-2.34-5.29-1.94-.5.09-1.01.18-1.51.28-5.2,1.08-9.88,3.11-13.4,7.25q1.88,4.14,6.18,3.89c.26-.02.51-.03.77-.05,2.53-.25,4.67.5,6.44,2.36,1.37,1.44,2.64,3.03,4.22,4.21,1.27.94,2.87,1.68,4.42,1.95,2.33.41,4.28,1.18,5.78,3.06,1,1.25,2.08,2.45,3.18,3.61,1.01,1.07,2.2,1.28,3.43.33,1.48-1.13,2.96-2.25,4.39-3.44,4.86-4.03,10.09-4.77,15.72-1.77,2.74,1.46,5.1,1.39,7.52-.88,2.54-2.38,5.78-3.25,8.84-1.26,3.09,2.01,5.47,1.28,8.25-.52,3.36-2.17,6.99-3.94,10.73-6,.27-1.19-.38-2.16-1.82-2.95-3.14-1.73-6.1-3.81-9.3-5.43-2.82-1.43-5.85-2.45-9.16-3.79ZM117.36,1035.02c-5.65-.39-10.78,1.13-15.77,3.26-.4.17-.86.64-.93,1.04-.28,1.62,1.11,3.36,2.77,3.42,2.24.08,4.5.1,6.74,0,3.99-.19,6.93,1.31,8.82,4.92.87,1.67,2.08,1.91,3.72.99.66-.37,1.24-.9,1.81-1.42,2.29-2.1,5.08-3.14,7.99-2.38,4.41,1.15,8.63.19,13.07-.29.08-2.7.38-5.82-2.51-7.05-3.06-1.3-6.51-1.69-9.81-2.39-.41-.09-1.26.31-1.35.64-1.13,3.99-4.09,4.84-7.74,4.83-4.73-.02-5.92-.9-6.81-5.54ZM95.63,1121.55c-1.61,1.28-2.68.88-4-.1-.95-.71-2.42-.72-3.98-1.12,1.15,2.76,1.91,5,3,7.06,1.49,2.82,3.7,3.31,6.41,1.66.75-.46,1.41-1.05,2.17-1.63-4.11-2.35-4.36-2.71-3.59-5.88ZM68.44,1115.11c0-.2,0-.4,0-.61-2.98-1.19-5.97-2.37-8.97-3.57-.52,1.61-.11,2.51,1.44,2.85,1.3.29,2.56.8,3.87,1.03,1.2.22,2.44.2,3.66.29ZM81.98,1161.06c-.06.25-.12.5-.18.75,3.02.72,6.05,1.45,9.07,2.17l.15-.64c-3.01-.76-6.03-1.52-9.04-2.28Z"/>
          <path class="cls-1" d="M159.09,1150.08c-1.36-.77-2.92-1.33-4-2.38-.63-.62-.92-2.2-.59-3.04.67-1.69,1.72-3.28,2.88-4.7,1.63-2,3.99-1.98,5.57.06,1.25,1.6,3.01,3.17,2.16,5.6-.81,2.3-2.46,3.67-4.88,4.08-.31.05-.63.06-.95.1-.06.1-.13.2-.19.3Z"/>
        </g>
        <g>
          <path class="cls-1" d="M858.51,458.77c7.45-.63,14.57-1.56,21.71-1.72,4.42-.1,8.87.98,13.31,1.51,1.19.14,2.38.2,3.58.27,2.93.18,3.24.4,4.11,3.11,2.85-1.26,4.26-.19,4.11,2.93-.21,4.53-.34,9.07-.38,13.6-.13,15.44-2.91,30.49-7.48,45.15-5.13,16.43-7.06,33.21-7.02,50.31,0,3.72.08,7.44.28,11.15.15,2.78,1.73,4.7,4.04,6.23,4.67,3.09,9.33,6.22,13.83,9.55,2.75,2.03,2.66,3.07.46,5.77-6.06,7.43-14.11,10.83-23.44,10.51-7.27-.25-14.55-1.22-21.72-2.49-6.15-1.09-10.97-4.63-13.95-10.33-1.29-2.46-.84-3.45,1.5-4.86,6.2-3.73,12.33-7.59,18.44-11.46.47-.3.77-1.12.85-1.74,2.16-17.88-.63-35.11-7.6-51.58-7.17-16.96-10.28-34.58-10.1-52.87.07-7.5.47-14.99.69-22.49.04-1.37.59-2.39,1.92-2.67,1.37-.29,2.28.43,2.71,1.76.08.23.19.45.16.37ZM900.05,471.47c-1.9,1.75-4.26,2.06-6.7,2.2-2.83.16-5.73.07-8.45.71-8.7,2.02-16.88.82-24.74-3.26-.54-.28-1.09-.52-1.79-.85-.52,8.54-.89,16.84.02,25.23,2.37-1.32,2.83-1.06,4.63.78,3.54,3.63,7.58,5.91,12.99,4.43,2.03-.55,4.21-.65,6.33-.73,4.19-.17,7.93-1.35,10.94-4.39,1.56-1.58,1.11-3.18-1.13-3.57-3.96-.7-7.95-1.35-11.95-1.77-4.23-.44-8.43-.21-12.45,1.46-1.44.6-2.68.05-3.24-1.39-.55-1.43-.02-2.6,1.42-3.26.51-.24,1.04-.45,1.58-.62,4.19-1.4,8.51-1.8,12.88-1.28,4,.48,7.97,1.15,11.96,1.67,2.7.35,4.64,1.73,5.93,4.09.2.37.46.71.94,1.45.88-7.25,1.21-14.07.8-20.94.21-2.69.42-5.38.62-7.97-1.03.2-1.99.6-2.92.54-2.82-.19-5.64-.53-8.45-.86-5.43-.64-10.82-1.79-16.34-.95-3.79.58-7.6,1.03-11.39,1.59-.78.12-1.54.45-2.41.71,3.44,2.95,10.96,5.79,15.69,5.66,3.25-.09,6.48-.66,9.73-.96,3.69-.34,7.42-.43,11.08-.96,3.17-.45,4.08.03,4.42,3.24ZM905.31,604.05c-4.64-3-8.66-5.68-12.76-8.22-4.04-2.51-6.52-5.99-6.61-10.78-.14-6.99-.08-13.98,0-20.97.13-11.07,1.66-21.97,4.39-32.7,2.36-9.27,4.8-18.52,7.14-27.79.48-1.88.68-3.84,1.02-5.89-.4.1-.47.1-.51.13-.54.53-1.08,1.06-1.61,1.6-3.6,3.62-8.03,5.3-13.07,5.56-1.94.1-3.98-.02-5.79.55-7.15,2.25-12.61-.71-17.6-5.32-.33-.3-.42-.87-.63-1.31-.35.21-.69.41-1.04.62,1.6,6.97,2.82,14.06,4.88,20.9,2.47,8.18,5.84,16.08,8.47,24.21,4.66,14.44,5.61,29.25,3.59,44.26-.13.98-.86,2.19-1.68,2.73-5.89,3.86-11.88,7.58-17.84,11.35-.19.12-.31.35-.49.55,2.44,3.54,5.89,5.58,9.88,6.22,6.57,1.05,13.21,1.78,19.85,2.31,4.84.39,9.59-.58,13.81-3.1,2.17-1.29,4.08-3.02,6.59-4.91Z"/>
          <path class="cls-1" d="M930.19,558.37c0-.38-.03-1.32,0-2.26.11-2.79,1.54-4.8,3.98-5.95.72-.34,2.13-.18,2.72.33,2.51,2.18,5.17,4.37,5.02,8.23-.01.32.38.74.69.98,2.84,2.27,4.1,5.39,4.46,8.85.24,2.25-.63,4.39-2.53,5.62-5.41,3.5-11.23,5.18-17.51,2.51-1.69-.72-3.12-2.08-4.88-3.29-1.55,1.8-3.32,3.72-4.93,5.77-1.02,1.31-.94,2.69.46,3.82,1.4,1.13,2.65.83,3.85-.33,3.18-3.07,5.87-2.15,8.27,0,.61.55,1.12,1.2,1.75,1.72,2.02,1.69,3.8,1.65,5.74-.09,2.21-1.98,4.83-2.59,7.72-2.34.99.09,1.98.19,3.65.35-.59-1.88-1.02-3.38-1.54-4.85-.19-.51-.7-.9-.92-1.41-.54-1.24-.32-2.38.79-3.2,1.19-.89,2.3-.47,3.18.52,1.69,1.89,2.8,4.15,2.74,6.67-.06,2.69-.59,5.36-.81,8.05-.19,2.3-.47,4.63-.27,6.9.32,3.45-.79,6.19-3.28,8.45-4.56,4.14-9.93,5.93-16.02,5.05-7.78-1.12-11.59-6.44-13.63-13.46-.07-.24-.14-.49-.16-.74-.37-3.21-1.03-5.87-4.35-7.87-3.38-2.03-3.6-6.63-1.08-10.12,3.42-4.74,7-9.39,10.83-13.8,1.44-1.67,3.75-2.58,6.1-4.13ZM946.92,587.36c-2.74-.41-5.5-.87-7.7,1.98-.66.85-2.13,1.39-3.27,1.47-3.07.21-5.81-.78-8.04-3.02-2.14-2.15-2.19-2.18-4.46-.21-.45.39-.81,1.32-.69,1.88.57,2.56,1.16,5.15,2.06,7.6.97,2.62,2.83,4.56,5.5,5.65,5.07,2.07,12.04.5,15.54-3.71.64-.77.96-2.01,1.01-3.05.14-2.74.05-5.49.05-8.59ZM924.74,569.25c2.17,1.3,3.79,2.79,5.68,3.29,3.75.99,7.34-.21,10.7-1.97,1.15-.6,1.49-1.66.94-2.91-.33-.75-.62-1.51-.95-2.26-.64-1.41-1.62-1.77-3.06-1.08-1.71.82-3.43,1-5.28.21-1.55-.66-3.17-.44-4.43.73-1.14,1.05-2.09,2.3-3.6,3.99ZM935.29,559.67c.22.09.45.19.67.28.35-.56,1.09-1.22.97-1.66-.22-.89-.9-1.66-1.4-2.48-.2.09-.41.18-.61.27.12,1.2.24,2.39.36,3.59Z"/>
          <path class="cls-1" d="M878.79,545.33c-1.34-.45-3.69-1.11-5.91-2.06-1.19-.51-1.61-1.72-1.14-3.05.49-1.36,1.56-1.81,2.86-1.51,1.21.28,2.37.82,3.56,1.19,2.2.7,2.82.4,3.97-1.59.39-.68.85-1.55,1.48-1.79.69-.26,1.83-.15,2.39.29.57.45.99,1.53.91,2.28-.34,3.24-3.83,6.23-8.12,6.25Z"/>
        </g>
        <g>
          <path class="cls-1" d="M122.1,85.66c0-1.89,0-3.52,0-5.16,0-4.43-.02-8.86,0-13.29.01-2.13,1.23-3.36,3.16-3.3,1.41.05,2.71,1.07,2.7,2.66-.04,6.63-.23,13.26-.37,19.89-.03,1.19-.23,2.4-.09,3.58.81,7.12.68,14.2-.53,21.27-.21,1.21-.12,2.66.37,3.78,1.12,2.57,1.12,5.02.15,7.58-.18.49-.31,1.12-.17,1.59,2.73,8.96,3.87,18.15,4.04,27.47.11,5.9.07,11.81.09,17.71,0,1.98,0,1.97,1.92,1.97,2.08,0,4.16,0,6.34,0,.04-.42.11-.76.09-1.08-.41-6.41,1.54-12.16,4.89-17.5,1.15-1.83,2.43-3.6,3.71-5.34,1.06-1.44,2.43-1.73,4-.89,8.49,4.54,13.7,11.51,15.5,20.99.06.3.1.6.16.9.04.21.09.42.18.8,2.93-.46,5.86-.93,8.92-1.41-.51-2.25-1.05-4.42-1.48-6.61-1.91-9.65-2.83-19.4-3.07-29.22-.12-5.08-.27-10.16-.22-15.24.04-4.6.43-9.19.47-13.79.08-10.07-.03-20.14.06-30.21.03-3.46.44-6.92.68-10.39.03-.47.07-.94.11-1.6-2.59-.42-5.13-.96-7.69-1.21-4.83-.47-9.67-.93-14.52-1.1-5.18-.18-10.28.62-15.31,1.89-3.17.8-6.28.63-9.12-1.28-1.61-1.09-2.63-2.4-1.94-4.47.03-.08.07-.18.05-.25-.93-2.46.68-3.85,2.17-5.37,7-7.17,12.76-15.33,18.52-23.48.8-1.13,1.66-2.22,2.48-3.34.14-.19.28-.46.25-.68-.28-2.1-.6-4.19-.92-6.33-.45,0-.96.01-1.47,0-1.86-.04-3.14-1.31-3.17-3.1-.03-1.74,1.16-3,2.95-3.16.91-.08,1.81-.17,2.58-.24,1.02-2.29,1.94-4.53,3.01-6.69.92-1.86,2.51-2.44,4.06-1.66,1.58.79,2.11,2.73,1.22,4.5-.55,1.1-1.12,2.2-1.71,3.36,1.27,0,2.3-.02,3.33,0,1.74.04,2.92,1.22,2.99,2.96.07,1.81-1.05,3.13-2.81,3.27-1.55.13-3.1.22-4.77.33-.24,3.52.3,6.87,2.44,9.63,3.6,4.67,7.33,9.25,11.2,13.7,3.58,4.12,7.77,7.56,12.62,10.15,1.67.89,2.22,2.23,1.63,4.05-2.64,8.21-3.04,16.69-3.03,25.22,0,8.16.15,16.32.09,24.48-.05,6.51-.33,13.02-.5,19.52,0,.26,0,.52,0,.69,5.96,3.33,9.15,8.47,10.12,14.99.41,2.77.55,5.63.44,8.43-.23,5.79.79,11.41,1.81,17.05.36,2,.75,4,1.18,5.99.18.83.48,1.65.78,2.45.47,1.26.28,2.39-.59,3.4-.79.92-1.86,1.23-2.95.83-5.09-1.86-10.26-1.57-15.41-.57-9.87,1.9-19.82,2.83-29.87,2.84-17.62.03-35.25.13-52.87.17-10.63.03-21.27,0-31.9,0-11.29,0-22.57-.04-33.86.04-4.81.04-9.63.34-14.44.53-.21,0-.42.05-.71.09,0,.55.02,1.06,0,1.56-.09,1.48-1.14,2.66-2.55,2.88-1.32.2-2.75-.59-3.09-2.02-.28-1.15-.57-2.55-.16-3.56.97-2.39.58-4.69.42-7.11-.3-4.53-.28-9.09-.28-13.64,0-5.86.33-11.72.12-17.56-.24-6.54-.78-13.08-1.5-19.59-.56-5.03-1.65-10-2.41-15.02-.83-5.45-.88-10.89.41-16.29.45-1.88,1.2-2.64,3.23-2.79,1.83-.14,3.67-.03,5.51.02.32,0,.73.17.93.41.96,1.16,2.18.88,3.44.79,6.92-.51,13.84-1.25,20.78-1.38,12.19-.24,24.39-.05,36.59-.16,10.76-.1,21.52-.31,32.28-.57,5.18-.13,10.32.11,15.42,1.02.8.14,1.62.13,2.93.23ZM8.67,116.7c.21,1.9.46,3.83.62,5.76.34,4.15.78,8.3.91,12.46.21,6.63.23,13.27.26,19.91.02,4.29-.14,8.58-.12,12.87,0,1.44.34,2.88.52,4.33.56,0,.9,0,1.24,0,10.2-.21,20.39-.56,30.59-.59,23.79-.06,47.57.02,71.36.08,1.09,0,1.48-.28,1.63-1.39.6-4.56-.23-8.98-.99-13.43-.85-4.95-1.82-9.89-2.29-14.88-.56-5.95.88-11.48,4.89-16.12,1.13-1.31,2.47-2.44,3.63-3.73,1.27-1.41,1.95-3.01.71-4.8-.23-.33-.73-.69-1.1-.68-4.25.1-8.5.36-12.75.4-18.97.15-37.93.25-56.9.35-8.07.04-16.14.1-24.21.01-5.94-.06-11.87-.36-18-.56ZM13.18,110.65c3.09.1,5.86.28,8.63.26,16.58-.08,33.16-.24,49.74-.3,12.55-.04,25.09.06,37.64.02,3.64-.01,7.28-.29,10.92-.44.67-.03,1.07-.25,1.2-1.04.77-4.69.94-9.41.69-14.15-.05-.95.14-2.18-.37-2.76-.46-.53-1.74-.29-2.64-.48-6.78-1.42-13.64-1.07-20.49-.94-10.37.21-20.74.49-31.12.42-14.28-.1-28.56-.31-42.83.61-3.84.25-7.67.68-11.38,1.01v17.79ZM175.5,52.68c-10.15-6.06-16.81-15.5-24.04-24.58-6.43,9.12-12.76,18.1-20.44,26.14,1.12.16,2.2.3,3.23.14,3.67-.58,7.31-1.47,11-1.86,7.99-.84,15.93-.07,23.83,1.2,1.95.31,3.9.61,5.91.92.19-.72.34-1.3.52-1.96ZM125.53,171.42c.12-14.26.62-28.37-3.03-42.35-.32.3-.49.42-.63.58-2.61,2.88-3.87,6.36-3.62,10.15.27,4.26.93,8.51,1.66,12.73,1.05,6.06,2.51,12.06,1.66,18.28-.03.19.04.4.07.62h3.9ZM162.36,170.46c-1.04-7.58-4.45-13.22-10.75-17.18-3.83,5.41-6.71,11.04-5.72,18.18,5.47-.33,10.86-.66,16.47-1ZM185.65,167.86c-.05-.34-.08-.6-.12-.85-.77-4.74-1.74-9.46-2.26-14.23-.38-3.39-.15-6.85-.22-10.27-.06-2.97-.34-5.92-1.69-8.61-.69-1.39-1.67-2.62-2.52-3.93-.13.07-.25.14-.38.21,0,.46-.02.92,0,1.38.13,2.69.23,5.38.42,8.06.63,8.88,1.67,17.69,3.96,26.32q.54,2.04,2.82,1.93ZM6.9,91.37c-.15,0-.3-.02-.45-.02-.99,4.72-.53,9.42.45,14.11v-14.09Z"/>
          <path class="cls-1" d="M154.75,129.1c.77-3.84-.07-7.34-1.39-10.78-1.91-.16-2.42.12-3.22,1.77-.78,1.63-2.24,2.33-3.69,1.78-1.54-.58-2.33-2.28-1.85-3.96,1.32-4.55,6.44-7.14,10.91-5.51,1.86.68,2.85,2.12,3.57,3.89,2.11,5.22,1.91,10.69,1.78,16.15-.04,1.71-1.31,2.86-3.04,2.92-2.77.09-5.55.11-8.32.24-.9.04-1.79.29-2.68.46-1.67.32-3.16-.5-3.6-2.01-.52-1.77.21-3.53,1.97-3.9,2.53-.53,5.12-.73,7.69-1.04.63-.08,1.28-.01,1.87-.01Z"/>
          <path class="cls-1" d="M145.23,81.73c-.04-4.1,1.39-7.64,3.08-11.16.94-1.95,5.64-2.05,6.48-.08,1.56,3.66,2.98,7.34,2.46,11.42-.53,4.11-3.05,6.91-6.36,9.05-1.43.92-3.17.16-3.95-1.55-1.12-2.48-1.78-5.07-1.72-7.68Z"/>
          <path class="cls-1" d="M170.54,77.79c-.14.99-.4,2.53-.54,4.08-.12,1.33-.19,2.67-.12,4,.08,1.7-.7,2.96-2.32,3.44-.79.23-1.57.46-2.37.65-3.59.85-6.2-1.42-6.1-5.18.05-1.98.01-3.98-.18-5.95-.45-4.62,1.87-8.08,6.33-9.26,1.36-.36,2.47.03,3.3,1.18,1.39,1.93,1.98,4.11,2.01,7.04Z"/>
          <path class="cls-1" d="M142.06,83.61c.14,1.51-.98,3.88-3.22,5.77-1.28,1.08-2.99,1.1-3.95-.17-1.99-2.63-3.85-5.39-4.46-8.71-.67-3.67,1.08-6.74,4.78-8.67,1.92-1,3.24-.69,4.42,1.14,1.79,2.8,2.15,5.97,2.44,10.64Z"/>
          <path class="cls-1" d="M50.72,145.78c.07-4.25,2.05-7.71,4.5-10.99,1.05-1.41,2.15-2.75,3.87-3.34,2.59-.88,4.88-.27,6.37,2.06,2.27,3.55,4.26,7.26,4.6,11.59.06.73.01,1.47,0,2.2,0,1.32-.09,2.64-.01,3.96.13,2.21-1.64,3.99-3.68,3.29-3.16-1.09-6.24-.64-9.36-.08-2.5.45-3.94.13-4.72-2.33-.66-2.08-1.3-4.17-1.95-6.25.12-.04.24-.08.37-.12ZM60.87,137.33c-2.42,3.38-5.16,6.29-3.86,10.66,2.43-.19,4.73-.36,7.15-.55.45-3.8-1.63-6.71-3.3-10.11Z"/>
          <path class="cls-1" d="M39.4,147.25c0,1.43.06,2.86-.01,4.29-.09,1.84-.9,2.65-2.69,3.13-.99.27-1.9.82-2.87,1.16-4.84,1.71-9.02.48-11.78-3.36-1.52-2.12-1.89-4.48-1.44-6.94.92-5.01,3.45-9.12,7.46-12.27.81-.63,1.76-1.09,2.71-1.52,1.41-.64,2.67-.37,3.78.77,2.82,2.88,4.24,6.38,4.67,10.32.16,1.46.18,2.94.26,4.41-.03,0-.05,0-.08,0ZM31.48,138.33c-2.81,2.45-4.78,5.29-5.07,9.04-.11,1.38,1.31,2.85,2.83,2.83,1.18-.01,2.37-.34,3.52-.68.34-.1.73-.71.75-1.1.06-1.42.04-2.86-.08-4.28-.18-2.03-.55-4.02-1.94-5.81Z"/>
          <path class="cls-1" d="M100.78,143.4c0,1.3,0,2.6,0,3.91-.02,2.97-1.83,4.43-4.8,4.36-2.01-.05-4.02.57-6.05.67-1.54.07-3.12-.05-4.63-.37-1.9-.41-2.81-1.91-2.5-3.81.56-3.33,1.13-6.66,1.79-9.97.45-2.24,1.39-4.31,3.01-5.97,3.75-3.85,10.01-2.55,12.11,2.49.3.72.62,1.47.7,2.22.23,2.15.34,4.32.49,6.48-.05,0-.09,0-.14,0ZM88.88,146.2c2.18-.33,3.81-.55,5.42-.85.24-.04.6-.43.6-.65-.05-2.2-.12-4.41-.3-6.6-.07-.87-.45-1.68-1.55-1.8-1.08-.12-1.71.53-1.95,1.37-.78,2.71-1.43,5.46-2.22,8.52Z"/>
        </g>
      </g>
    </g>
  </g>
</svg>