<?xml version="1.0" encoding="UTF-8"?>
<svg id="Calque_2" data-name="Calque 2" xmlns="http://www.w3.org/2000/svg" viewBox="0 0 939.92 2209.3">
  <defs>
    <style>
      .cls-1 {
        fill: #9ccf9d;
        stroke-width: 0px;
      }
    </style>
  </defs>
  <g id="Calque_2-2" data-name="Calque 2">
    <g>
      <g>
        <g>
          <path class="cls-1" d="M384.13,2117.3c1.22-1.41,2.52-2.01,3.92-.97,1.42,1.04,1.14,2.51.62,3.97-2.48,6.9-7.45,10.6-14.64,11.5-7.5.95-14.28-.83-20.49-5.15-2.87-2-4.67-4.55-4.46-8.07.34-5.82-1.58-11.22-2.89-16.72-1.02-4.28-2.05-8.5-.43-12.86.18-.48-.16-1.18-.3-1.76-1.08-4.6-2.37-9.16-3.15-13.81-.37-2.24-.96-4.6-.92-6.74.1-4.49,2.36-8.21,6.91-9.71,2.73-.9,5.65-1.72,8.49-1.75,5.1-.05,10.21.5,15.32.84,1.96.13,3.91.58,5.85.52,4.18-.13,6.88,1.99,8.04,5.66,1.04,3.27,1.8,6.79,1.78,10.2-.04,5.67-.79,11.33-1.26,17-.54,6.43-1.11,12.85-1.66,19.27-.24,2.76-.48,5.52-.74,8.58ZM349.7,2091.92c.28,2.39.35,4.15.72,5.85,1.56,7.06,4.14,13.93,3.77,21.36-.04.83.88,1.95,1.65,2.54,4.86,3.71,10.37,5.44,16.5,4.83,2.42-.24,4.85-.56,6.66-1.92-.16-1.98-.52-3.69-.39-5.35.29-3.64.88-7.26,1.24-10.9.55-5.39,1.01-10.79,1.57-16.87-10.62,5.6-20.87,4.68-31.72.46ZM383.17,2072.4c-12.38,4.06-24.13,2.61-35.91-1.24-.2,4.89,1.32,9.08,2.61,13.28,11.33-5.28,21.86-4.48,32.07,2.96.41-4.96.79-9.73,1.22-14.99ZM382.11,2067.04c-.45-3.95-1.37-4.78-5.05-5.07-3.33-.27-6.66-.66-9.98-1.04-5.62-.64-11.21-.85-16.68.99-1.63.55-2.92,1.42-3.59,3.3,11.65,4.24,23.31,6,35.29,1.82ZM355.37,2087.88c6.53,2.67,13.95,2.92,18.19.61-6.02-2.38-11.96-2.64-18.19-.61Z"/>
          <path class="cls-1" d="M236.73,2125.71c-.23-3.36.57-4.29,3.89-4.44,3.47-.16,6.48,1.08,8.99,3.4,1.48,1.37,2.82,2.91,4.12,4.45.67.79,1.2,1.02,2.24.57,6.58-2.88,13.23-2.31,19.82-.09,3.87,1.3,5.99,4.07,5.96,7.5-.04,3.81-2.23,6.22-5.55,7.66-1.44.63-2.97,1.11-4.51,1.4-2.9.55-5.36-.33-7.24-2.7-2.19-2.77-4.04-5.68-3.86-9.83-1.7.74-3.14,1.29-4.52,1.99-2.27,1.15-2.8,1.02-4.5-.98-1.72-2.02-3.47-4.02-5.35-5.88-.86-.85-2.08-1.32-3.23-2.03-.57,3.51-.65,3.59-3.83,4.12-3.45.58-4.86,2.29-4.5,6.01.29,3.01,1.04,5.98,1.38,8.99.47,4.14.9,8.3,1.03,12.46.08,2.5.7,4.61,2.45,6.34,2.16,2.13,4.19,4.47,6.62,6.25,2.08,1.53,4.55,2.72,7.02,3.49,3.56,1.1,6.28,3.16,8.07,6.23,4.2,7.22,10.41,12.54,16.62,17.82,1.8,1.53,4.39,2.14,6.62,3.14,3.74,1.67,7.49,2.99,11.31.19,13.17-3.54,26.34-7.07,39.5-10.65,1.01-.27,1.87-1.03,2.86-1.4,1.27-.48,2.58-1,3.91-1.15,1.48-.16,2.35.88,2.5,2.3.17,1.5-.5,2.53-2.02,2.99-.95.29-1.83.78-2.76,1.11-2.01.71-4,1.47-6.05,2.03-11.57,3.18-23.16,6.29-34.73,9.49-1.75.48-3.44,1.24-5.09,2-2.01.93-3.97,1.21-6,.1-.61-.33-1.26-.61-1.93-.78-12.49-3.23-20.17-12.46-27.54-22.06-1-1.3-1.78-2.81-2.95-3.93-.96-.91-2.3-1.49-3.55-2.02-1.5-.65-3.21-.88-4.61-1.67-5.3-3.01-9.61-7.23-13.18-12.1-1.16-1.58-1.93-3.87-1.9-5.81.12-6.65-.95-13.11-2.25-19.57-.17-.87-.29-1.75-.36-2.63-.39-5.09.82-10.05,7.08-12.3ZM265.61,2133.3c-.21,3.24,1.43,5.29,3.33,7.19.3.3,1,.49,1.41.37,1.69-.48,3.46-.88,4.97-1.73,2.07-1.16,1.9-2.95-.29-3.98-2.89-1.36-5.99-1.81-9.42-1.85Z"/>
          <path class="cls-1" d="M295.8,2184.28c-.35.41-.66.78-.99,1.16,5.65,3.74,12.57,3.38,18.11-.98,1.54-1.21,2.92-2.61,4.3-4.01,4.37-4.45,8.8-5.37,14.46-2.7,3.24,1.53,6.19,1.28,9.16-.62,1.86-1.19,3.73-2.51,5.79-3.17,2.03-.65,4.34-.9,6.46-.69,3.77.37,7.42.09,10.72-1.65,6.61-3.48,13.82-5.14,20.8-7.53,6.13-2.1,12.35-2.42,18.63-2.98,1.49-.13,2.96-.6,4.39-1.07,1.58-.51,2.75-.19,3.47,1.33.66,1.41.14,3.07-1.42,3.61-2.19.76-4.53,1.75-6.76,1.66-7.98-.32-15.34,2.25-22.75,4.48-4.63,1.39-9.11,3.33-13.57,5.22-4.58,1.93-9.18,3-14.22,2.34-1.79-.23-3.8.48-5.59,1.12-1.46.52-2.73,1.56-4.08,2.38-3.96,2.42-8.03,2.74-12.32.88-5.16-2.24-6.54-1.91-10.51,2.18-3.72,3.84-7.87,6.95-13.31,7.91-5.04.88-9.68-.33-14.06-2.73-.79-.43-1.24-1.47-1.88-2.28-2.02,1.04-2.59,2.17-1.92,4.56.41,1.46.97,2.87,1.52,4.29.8,2.05.47,3.69-.95,4.31-1.56.68-2.8-.03-3.66-2.23-.69-1.76-1.35-3.54-1.84-5.36-1.02-3.8,0-7.03,3.09-9.49,1.61-1.28,3.34-2.41,5.2-3.72-.41-.16-.63-.31-.85-.31-6.95.03-11.77-3.64-15.58-9.02-1.75-2.48-3.25-5.15-5.18-7.47-1.33-1.6-3.03-3.08-4.86-4.04-5.1-2.68-9.71-5.74-11.93-11.38-.14-.35-.31-.7-.38-1.07-.42-2-1.04-3.7-3.16-4.71-1.49-.71-2.13-2.45-1.69-4.1.22-.82,1.09-1.8,1.87-2.04.66-.2,1.66.49,2.42.94.39.23.52.99.91,1.14,2.83,1.08,3.58,3.42,4.14,6.09.79,3.76,3.16,6.72,6.55,8.17,6.68,2.85,10.9,7.94,14.47,13.92,1.93,3.24,4.38,6.1,8.13,7.36,1.36.46,2.83.67,4.26.8,3.88.34,6.59,2.33,8.4,5.68.68,1.26.84,2.55-.2,3.7-1.09,1.21-2.34.99-3.61.14Z"/>
          <path class="cls-1" d="M298.4,2136.95c1.91-.69,3.83-1.93,5.74-1.93,2.11,0,4.2,1.88,6.38-.05.19-.17.84.11,1.25.26,7.58,2.83,15.4,3.13,23.37,2.48,2.31-.19,4.7.52,7.05.85,1.11.16,2.23.64,3.32.58,3.51-.18,4.78.54,6.02,3.8.16.41.3.83.54,1.51.62-.55,1.15-1.03,1.69-1.5,3.32-2.89,6.46-3.3,10.28-1.13,2.2,1.25,4.24,2.75,6.4,4.06,4.81,2.91,9.83,3.79,15.23,1.66,2.57-1.01,3.77-.66,5.5,1.47,1.86,2.27,4.36,2.53,7.01,2.62,5.74.21,11.51.3,17.22.84,3.75.36,7.45,1.38,11.15,2.2,1.75.39,2.68,1.84,2.33,3.32-.37,1.56-1.72,2.41-3.55,1.93-9.32-2.44-18.78-3.35-28.4-2.95-3.37.14-6.3-1.07-8.77-3.43-.39-.37-1.25-.64-1.72-.48-6.31,2.21-12.23,1.14-17.88-2.08-2.14-1.22-4.14-2.69-6.23-3.99-2.58-1.6-3.68-1.46-5.88.63-.5.48-.98.99-1.46,1.5-1.58,1.66-2.06,1.75-4.21.78-2.43,2.68-5.34,3.72-8.8,2.02-3.57-1.75-5.57-4.48-5.15-8.91-8.62.98-17.08.67-25.37-2.15-.29.58-.5,1.09-.79,1.56-2.42,3.96-6.44,4.81-10.24,2.18-.52-.36-1.02-.76-1.49-1.17-2.32-2.02-2.45-2.86-.92-5.91.12-.18.24-.37.36-.55ZM341.85,2144.41c.79,2.06,2.77,3.27,4.14,2.63,1.09-.51,1.36-1.34.74-2.22-1.74-.14-3.22-.27-4.88-.41Z"/>
          <path class="cls-1" d="M357.76,2190.53c-1.06-.21-2.6-.5-4.14-.8-1.48-.29-2.95-.64-4.44-.87-1.65-.25-2.54-1.24-2.51-2.81.02-1.59.96-2.63,2.63-2.65,1.06,0,2.21.02,3.17.42,5.13,2.11,10.11,1.11,14.97-.74,5.01-1.91,9.84-4.34,14.9-6.1,3.54-1.23,7.33-1.83,11.05-2.49,2.21-.39,4.26-.83,6.09-2.29,5.36-4.26,11.86-5.74,18.35-7.27,4.16-.98,8.27-2.23,12.37-3.46,1.94-.58,3.16-.28,3.78,1.27.61,1.53.08,3.11-1.68,3.66-4.81,1.51-9.64,3.02-14.55,4.15-6.09,1.4-11.93,3.16-16.95,7.15-1.4,1.11-3.46,1.83-5.25,1.92-7,.37-13.2,3.1-19.53,5.72-4.7,1.95-9.65,3.29-14.52,4.82-1,.31-2.13.23-3.72.38Z"/>
          <path class="cls-1" d="M351.83,2167.78c-5.5-.74-11.01-1.49-16.51-2.21-.69-.09-1.43-.23-2.08-.07-3.23.82-5.87-.6-8.54-2.07-2.16-1.19-3.14-3.03-3.22-5.41-.01-.38.02-.76.05-1.14.43-5.19,2.62-5.32,6.06-3.24,3.2,1.93,6.98,2.89,10.44,4.42,1.08.48,1.88,1.58,2.94,2.13.7.36,1.94.64,2.42.28,4.09-3.07,8.77-1.8,13.23-1.86.62,0,1.68.98,1.81,1.65.75,3.83-.02,7.82-5.45,7.51-.38-.02-.76-.06-1.14-.08,0,.03,0,.06-.01.09Z"/>
          <path class="cls-1" d="M306.95,2159.13c2.6-2.08,4.19-1.54,5.07,1.63,1.08,3.92-.23,6.86-3.94,8.5-2.19.96-4.4,1.95-6.7,2.53-1.59.4-3.42.45-5.02.08-3.86-.88-5.83-3.59-5.53-7.03.42-4.84,3.29-7.9,7.78-8.28,3.13-.26,6.02.28,8.34,2.56ZM307.51,2162.42c-.2-.14-.41-.27-.61-.41-1.26,1.55-2.58,1.44-4.22.59-1.05-.54-2.44-.69-3.65-.6-2.2.17-3.43,1.62-3.14,3.27.21,1.19,2.15,1.95,4.05,1.34,2.21-.71,4.38-1.59,6.5-2.55.5-.23.72-1.08,1.07-1.64Z"/>
          <path class="cls-1" d="M289.62,2146.34c1.01,0,2.01-.01,3.02,0,1.66.03,2.63.95,2.77,2.53.13,1.48-.57,2.68-2.14,2.86-1.34.15-2.15.67-2.65,1.92-.2.49-.68.92-1.12,1.26-1.5,1.13-3.01,2.25-4.56,3.31-2.44,1.66-5.19,1.08-6.93-1.4-1.82-2.59-1.4-5.52,1-7.38,3.14-2.44,6.63-3.58,10.61-3.09Z"/>
          <path class="cls-1" d="M298.4,2136.95c-.12.18-.24.37-.36.55-1.21-.14-2.5-.06-3.62-.46-2.83-1-5.61-.63-8.42-.09-2.04.39-3.35-.29-3.67-1.93-.33-1.7.54-2.99,2.47-3.38,3.88-.78,7.77-1.18,11.57.41,2.62,1.09,3.08,2.22,2.03,4.9Z"/>
          <path class="cls-1" d="M248.33,2165.79c.19-2.61.3-4.89.55-7.14.25-2.27,1.22-4.23,3-5.72,1.16-.97,2.42-1.23,3.53-.02,1.07,1.16,1.24,2.67.08,3.74-1.47,1.36-1.76,2.94-1.82,4.76-.05,1.57-.18,3.16-.43,4.71-.24,1.49-1.17,2.42-2.78,2.21-1.62-.21-2.1-1.41-2.13-2.53Z"/>
          <path class="cls-1" d="M237.05,2148.61c.37-2.17.43-4.45,1.2-6.46.67-1.73,2.02-3.27,3.32-4.66.96-1.04,2.35-.99,3.35.13,1.05,1.17,1.25,2.76.02,3.73-2.18,1.7-2.51,3.93-2.59,6.37-.02.5-.13,1-.19,1.5-.2,1.58-.97,2.61-2.69,2.55-1.43-.06-2.41-1.44-2.43-3.15Z"/>
        </g>
        <g>
          <path class="cls-1" d="M860.1,1576.55c.93-7.04,1.89-14.06,2.78-21.09,1.2-9.38,2.17-18.79.76-28.22-.47-3.14-1.6-6.18-2.55-9.23-.18-.58-.9-1.07-1.48-1.43-1.09-.68-2.35-1.11-3.38-1.86-3.63-2.63-4.05-4.6-2.02-8.67.43-.85.78-1.77,1.35-2.51.96-1.25,1.21-2.37.7-4-.4-1.26-.27-3.07.37-4.21,2.2-3.88,5.76-6.1,10.2-6.13,4.32-.03,7.51,2.25,9.49,6.17.39.76.93,1.73,1.63,2.01,6.13,2.41,8.45,8.41,5.01,13.93-1.1,1.76-.94,2.97-.09,4.64,4.77,9.34,10.89,17.76,18.29,25.11,8.07,8.02,13.54,17.53,17.2,28.1,6.84,19.75,13.48,39.57,20.03,59.42,3.48,10.54,1.01,17.57-7.79,24.42-10.56,8.22-22.48,9.78-35.4,8.17-7.38-.92-11.43-4.74-13.78-11.43-3.26-9.29-7.29-18.34-10.12-27.76-1.48-4.91-3.24-9.61-5.08-14.36-1.74-4.5-2.94-9.27-3.84-14.02-1.06-5.59-1.54-11.29-2.28-17.04ZM883.5,1643.56c1.54,3.52,2.56,6.75,4.31,9.53.94,1.49,2.99,2.8,4.75,3.17,6.2,1.31,12.49,1.92,18.84.85,8.15-1.37,15-5.23,20.68-11.11,4.81-4.98,4.13-10.86,2.16-16.8-5.52-16.67-10.96-33.38-16.64-50-3.55-10.4-7.06-20.91-14.29-29.52-5.99-7.14-12.26-14.05-18.34-20.98-.32.43-.87,1.19-1.42,1.94,1.66,4.16,1.11,5.66-2.78,7.75-.61.33-1.22.68-1.72,1.14-3.25,2.96-6.71,3.79-10.54,1-.38,4.6-.76,9.03-1.11,13.28,2.8.67,5.7.67,7.76,1.99,4.18,2.68,7.03,1.11,9.86-1.87.3-.31.67-.55.97-.86,1.46-1.49,3.08-1.26,3.86.38,1.26,2.7,2.15,5.6,2.89,8.49.12.46-1.46,1.99-2,1.87-1.43-.32-1.77.53-2.36,1.33-3.32,4.52-7.58,7.59-13.26,8.26-3.39.4-6.8.56-10.89.89.6,5.4,1.51,10.85,1.73,16.33.2,5.04,2.35,7.82,7.29,8.48,3.13.42,6.55,1.86,9.32,1.05,6.08-1.77,11.84-4.68,17.33-6.97-.24-2.51-.68-4.47-.52-6.38.08-1.03,1.05-2.67,1.83-2.81,1.73-.31,2.17,1.25,2.22,2.77.01.32.08.65.04.36,1.36.47,2.93.57,3.2,1.21.36.86-.19,2.18-.53,3.24-.17.53-.88.87-1.12,1.4-.29.64-.61,1.46-.46,2.09,2.61,10.86,5.85,21.51,11.17,31.42,1.56,2.91,1.28,5.56-.88,7.91-4.14,4.5-9.08,7.69-15.06,9.24-5.23,1.36-10.44,1.02-16.32-.08ZM874.27,1617.99c.25.81.46,1.64.76,2.43,1.8,4.86,3.79,9.66,5.35,14.6.94,2.98,2.49,4.29,5.62,4.81,9.64,1.6,18.02-.38,25.05-7.43,1.55-1.55,1.79-2.82.68-4.76-1.37-2.38-2.55-4.92-3.48-7.51-2.69-7.46-5.21-14.98-7.83-22.58-4.48,1.9-9.32,3.94-14.15,6-3.57,1.52-7.21,1.67-10.91.6-1.93-.56-3.85-1.14-5.85-1.73-.02,4.29,2.11,8.63,5.68,11.18-.28-1.27-.37-2.15-.68-2.95-.56-1.46-.75-3,1.03-3.34.79-.15,2.06.99,2.76,1.84,1.22,1.47,2.16,3.17,3.47,5.16,1.73-3.25,3.33-5.6,6.93-4.26.31.11.81-.4,1.19-.35.92.13,2.33.16,2.59.69.35.71.13,2.27-.44,2.73-.91.74-2.36,1.3-3.49,1.16-1.54-.19-2.07.21-2.72,1.54-1.35,2.74-3.68,3.2-6.19,1.47-.49-.34-.98-.69-1.36-.97-1.3.54-2.46,1.02-4.01,1.66ZM858.75,1506.84c-2.14,3.01-1.98,3.69,1.2,5.3.53.27,1.24.31,1.65.68,1.23,1.12,2.91,2.16,3.4,3.58,1.25,3.66,2.17,7.46,2.81,11.28.56,3.35.57,6.78.86,10.65,4.26-5.42,7.49-11.59,15.26-12.13-2.53-4.42-4.89-8.62-7.34-12.76-.96-1.63-.6-3.02,1.4-3.47,2.23-.5,2.23-2.19,2.28-3.77.06-1.85-.23-3.74-2.4-4.4-1.74-.52-3.09-.29-4.36,1.49-4.01,5.66-7.21,6.48-13.6,3.99-.39-.15-.79-.3-1.18-.44ZM887.47,1557.56c-.99.73-1.82,1.33-2.63,1.95-2.98,2.27-5.85,3.07-9.51.9-2.39-1.41-5.47-1.67-8.52-2.52-.45,3.02-.8,5.37-1.24,8.34,2.35-1.07,4.12-2.02,6-2.67.65-.23,1.83.03,2.27.51.43.47.58,1.9.22,2.24-1.19,1.13-2.56,2.4-4.07,2.79-1.43.37-3.12-.29-5.37-.58.91.57,1.37,1.09,1.88,1.14,1.37.15,2.76.15,4.14.14,5.69-.04,10.42-2.07,14.08-6.57.83-1.02,2.2-1.61,3.57-2.56-.16-.6-.46-1.77-.82-3.13ZM870.03,1494.44c-3.07-1.49-5.22-1.34-7.67.62-1.1.88-2.7,1.66-1.96,3.87,3.19-1.63,7.14-1.15,9.63-4.49ZM861.46,1503.22c2.46,1.29,4.58,1.82,6.6.1,1.69-1.44,3.29-2.98,4.91-4.5.07-.06-.12-.41-.06-.21-3.74,1.51-7.42,2.99-11.45,4.61ZM879.41,1531.81c-1.57,1.74-2.89,3.19-4.2,4.65q4.94-2.55,4.2-4.65Z"/>
          <path class="cls-1" d="M830.6,1553.54c-1.62-6.62-3.21-13.13-4.74-19.39-3.83,1.17-7.6,2.59-11.51,3.45-3.95.87-8.02,1.18-12.42,1.79-1.07,1.79-1.33,3.94-.39,6.42,1.16,3.06,1.92,6.28,2.91,9.41.88,2.77.06,5.93,2.18,8.5.44.53-.26,2.33-.84,3.31-2.33,3.91-9.01,6.52-13.46,5.42-4.24-1.04-5.33-4.16-2.56-7.55,2.17-2.66,5.1-4.17,8.47-4.62,2.48-.33,3.02-1.55,2.32-3.74-1.05-3.3-1.93-6.65-3.09-9.9-1.16-3.25-1.06-6.26,1.1-9.23-1.19-1.07-2.54-1.94-3.4-3.17-.49-.7-.18-1.96-.23-2.97.94-.04,2.4-.5,2.76-.06,4.54,5.56,10.25,3.12,15.66,2.4,1.96-.26,3.89-.86,5.77-1.48,2.79-.93,4.98-2.35,5.95-5.54.74-2.42,2.3-4.64,3.75-6.77.42-.63,1.95-1.14,2.55-.84.61.3,1.21,1.85.95,2.51-.78,1.99-1.97,3.82-3.03,5.7-.9,1.6-1.2,2.92.14,4.68,1.02,1.34,1.44,3.35,1.57,5.1.31,4.37,1.15,8.52,3.25,12.4.44.81.63,1.79.75,2.72.24,1.83.67,3.73.42,5.51-.23,1.6-.93,3.38-2,4.57-2.67,2.98-6.35,4.04-10.26,4.34-.43.03-.87,0-1.3-.02-1.49-.09-3.62,1.57-4.31-.69-.68-2.22-1-4.75.77-6.91,2.77-3.38,6.48-4.77,10.66-5.23.58-.06,1.17-.08,1.61-.11Z"/>
          <path class="cls-1" d="M839.25,1447.52c-4.26-.26-6.29-1.7-7.33-4.99-1.09-3.47-.24-6.48,2.91-8.63,3.52-2.41,7.25-4.53,11.78-2.54.22.1.48.15.72.16,1.14.02,2.59-.42,3.35.11,1.87,1.31,3.66,2.82,3.24,5.68-.48,3.32,1.02,5.94,3.79,7.67,2.16,1.35,2.29,2.9.89,4.72-1.52,1.98-3.04,4-4.83,5.71-2.85,2.74-8.24,3.39-11.58,1.25-1.19-.76-2.01-2.49-2.46-3.94-.49-1.59-.36-3.37-.5-5.21ZM843.77,1452.89c5.78,1.36,7.7.48,10.5-4.23-1.82-3.19-3.5-6.14-5.4-9.46-2.27-.37-2.25-.38-4.19-3.38-.28-.44-.83-.89-1.32-.97-1.95-.3-6.44,2.05-7.35,3.82-.9,1.76-.31,3.39,1.21,4.29,1.18.7,2.72.97,3.58-1.03.24-.55,1.84-1.04,2.49-.77,1.54.64,2.22,2.28,1.27,3.65-1.82,2.63-.74,5.3-.79,8.09Z"/>
          <path class="cls-1" d="M918.61,1453.82c.97-5.23,1.74-10.24,2.89-15.16.51-2.16,1.62-4.25,2.85-6.12.35-.53,2.36-.6,3.1-.11,1.24.82.73,2.06-.29,3.06-.54.53-1.13,1.2-1.26,1.9-.92,4.83-1.88,9.65-2.55,14.52-1.38,10.02-7.1,14.14-17.62,10.51-2-.69-3.66-2.11-3.59-4.58.07-2.33,1.72-3.52,3.57-4.37,4.28-1.96,8.57-1.64,12.9.35Z"/>
          <path class="cls-1" d="M865.17,1479.99c.87-13.25,4.24-25.93,8.61-38.4.6-1.72,1.25-3.42,1.93-5.1.54-1.34.95-3.01,3.02-2.19,1.98.78,1.36,2.25.91,3.7-2.65,8.49-5.69,16.89-7.76,25.53-1.52,6.34-1.71,13-2.57,19.5-.13.96-.42,2.12-1.06,2.74-1.16,1.13-2.9.18-3.06-1.63-.12-1.38-.02-2.77-.02-4.16Z"/>
          <path class="cls-1" d="M815.12,1461.91c9.59.05,17.36,3.68,23.47,11.23,3.36,4.15,7.37,7.78,11.13,11.61,1.03,1.05,2.12,2.1.94,3.54-1.31,1.6-2.66.71-3.75-.41-3.75-3.84-7.74-7.48-11.11-11.63-5.59-6.9-12.55-10.34-21.42-10.15-1.79.04-4.66.94-4.69-2.06-.04-3.11,2.9-1.76,4.64-2.11.25-.05.52,0,.78,0Z"/>
          <path class="cls-1" d="M861.75,1363.31c-1.06.14-2.68-1.21-4.07.9-1.36,2.06-2.38,3.66-.21,5.75,1.02.98,1.36,2.36,0,3.37-1.47,1.09-2.46.23-3.41-1.04-3.27-4.35-3.53-5.33-.2-9.55,2.26-2.86,5.02-5.39,7.85-7.71,1.7-1.4,4.22-1.88,5.92-.07,1.02,1.09,1.65,3.1,1.49,4.6-.27,2.55-2.62,3.16-4.83,3.54-.68.12-1.38.12-2.53.21Z"/>
          <path class="cls-1" d="M864.7,1415.5c.54-6.79,2.93-13.17,5.82-19.37.32-.68,1.76-.83,2.69-1.22.3,1.01,1.08,2.17.83,3.02-1.51,5.2-3.27,10.33-4.9,15.5-.23.73-.25,1.53-.3,2.31-.09,1.5-.02,3.12-2.19,3.07-2.24-.05-1.96-1.72-1.95-3.31Z"/>
          <path class="cls-1" d="M891.29,1450.17c-2.29-.35-2.94-1.53-2.13-3.01,2.25-4.08,4.62-8.11,7.16-12.02.39-.6,1.88-.5,2.86-.72.1,1.07.64,2.37.22,3.16-1.97,3.74-4.18,7.36-6.39,10.97-.44.71-1.26,1.19-1.73,1.61Z"/>
          <path class="cls-1" d="M805.03,1415.39c1.46.93,2.8,1.57,3.86,2.51,1.48,1.3,2.86,2.75,4.05,4.31.45.59.63,2.05.25,2.44-.56.57-1.81.85-2.63.65-.82-.2-1.45-1.13-2.16-1.75-1.47-1.28-3.01-2.5-4.36-3.89-.57-.59-1.14-1.65-.99-2.34.16-.71,1.2-1.22,1.98-1.94Z"/>
          <path class="cls-1" d="M889.69,1407.19c.43.27,1.23.49,1.43.97.27.62.3,1.55.01,2.15-.75,1.6-1.63,3.16-2.66,4.59-.43.6-1.5,1.27-2.05,1.11-.74-.21-1.9-1.47-1.76-1.81.93-2.23,2.13-4.36,3.34-6.46.18-.32.91-.31,1.69-.55Z"/>
          <path class="cls-1" d="M886.06,1580.64c1.77,1.5,3.1,2.62,4.4,3.77.15.13.23.63.14.72-.75.68-1.5,1.72-2.37,1.84-1.63.23-4.91-2.38-4.53-3.43.34-.95,1.32-1.67,2.36-2.9Z"/>
          <path class="cls-1" d="M883.63,1629.45c-.61-.36-1.75-.82-2.61-1.6-.46-.42-.66-1.41-.57-2.09.15-1.14,5.22-3.79,6.16-3.14,1,.69,2.19,1.8,2.36,2.87.26,1.66-2.94,4.04-5.34,3.96Z"/>
        </g>
        <g>
          <path class="cls-1" d="M188.57,1089.79c0,4.5-.09,8.66.03,12.82.12,4.15.42,8.29.72,12.43.03.38.53.87.92,1.05,2.26,1.03,4.51,2.15,6.87,2.91,2.47.8,3.84,2.21,3.95,4.77,0,.13.02.26,0,.39-.24,3.23-.9,6.43.67,9.61.51,1.02,0,2.52.07,3.8.32,6.4.89,12.8.94,19.21.04,6.21.02,12.48-.81,18.61-1.26,9.23-6.41,16.23-14.28,21.17-7.58,4.76-15.97,7.24-24.74,8.58-9.99,1.52-20.01,2.34-30.13,1.58-11.78-.88-23.18-3.57-34.48-6.85-2.27-.66-4.5-1.51-6.81-2.02-6.18-1.35-11.11-4.82-15.71-8.93-1.68-1.49-2.6-3.33-2.71-5.55-.18-3.72-.25-7.44-.46-11.16-.1-1.77-.44-3.52-.63-5.28-.08-.7-.3-1.52-.03-2.09.88-1.89.21-3.5-.42-5.26-.42-1.17-.49-2.52-.5-3.79-.03-6.62.02-13.23.02-19.85,0-2.8.12-5.51,2.1-7.8.34-.39.29-1.18.29-1.79,0-4.37.93-8.4,4.87-10.89,1.5-.94,3.43-1.22,5.19-1.74,3.29-.97,6.61-1.86,9.89-2.87.31-.1.58-.8.62-1.25.14-1.66.22-3.33.26-5,.14-5.52.15-11.04.4-16.56.12-2.61-.53-4.86-1.99-6.96-1.29-1.88-1.01-4.11.74-6.17,4.63-5.46,10.7-8.23,17.62-9.38,1.45-.24,3.31,0,4.23-.82.77-.69.24-2.67.65-3.96.53-1.66.15-3.07-.39-4.62-1.8-5.1-.29-7.39,4.6-9.66,6.53-3.04,13.32-3.44,20.27-3.35,4.94.06,9.91-.03,14.82.44,2.94.28,5.9,1.25,8.66,2.38,4.88,2,7.44,10.12,4.88,14.77-.27.5-.61,1.04-1.07,1.33-1.68,1.08-1,2.67-.73,3.99.1.47,1.39.72,2.16,1.02,3.1,1.18,6.34,2.1,9.29,3.58,3.55,1.78,6.84,4.04,10.27,6.06,1.77,1.04,2.91,2.48,3.19,4.55.2,1.45.58,2.9.56,4.35-.02,1.93-1.32,3.11-3.88,4.19ZM190.31,1171.65c-1.15-.18-2.29-.36-2.88-.46-1.12.92-1.88,1.98-2.87,2.31-4.19,1.38-8.4,2.74-12.69,3.73-12.47,2.88-25.17,3-37.88,2.7-.68-.02-1.36,0-2.03,0-.05.19-.09.37-.14.56.65.23,1.31.68,1.95.66,9.55-.26,19.1-.42,28.63-.96,3.65-.21,7.37-.95,10.85-2.09,5.76-1.9,11.34-4.31,17-6.52,2.58-1.52,5.17-3.03,7.75-4.55-.14-.21-.27-.43-.41-.64-2.68,1.39-5.6,2.4-7.28,5.27ZM196.79,1133.87c-.83.56-1.45.97-2.06,1.4-3.1,2.19-6.28,4.21-10.09,4.97-3.45.68-6.87,1.58-10.35,2.13-4.54.72-9.11,1.32-13.69,1.71-1.32.11-2.42.21-3.49,1.06-1.99,1.59-4.09,1.77-6.42.46-2.69-1.51-5.78-.7-7.53,1.75-1.8,2.52-4.07,4.46-7.27,4.43-4.79-.04-8.72-1.85-11-6.37-.42-.82-.88-1.62-1.26-2.31-1.86,1.49-3.44,3.03-5.28,4.17-4.51,2.78-9.16,1.78-12.08-2.62-1.12-1.69-1.76-3.69-2.67-5.51-.22-.45-.6-.98-1.02-1.13-3.05-1.09-6.13-2.12-9.21-3.1-1.45-.46-2.99-1.26-4.4-1.1-3.91.46-7.51-.55-11.1-1.75-1.18-.39-1.62.07-1.71,1.02-.15,1.59-.18,3.2-.19,4.8-.02,4.27,0,8.54,0,12.8.2.07.41.14.61.21.39-.48.75-1,1.17-1.45,3.54-3.76,8.68-2.97,10.82,1.77.39.87.36,2.25-.06,3.12-2.16,4.54-7.41,5.25-10.8,1.59-.48-.52-.93-1.08-1.5-1.74-.95,4.17.72,6.77,5.04,8.13,1.52.48,3.21.61,3.71,2.56.04.16.38.25.58.36,1.05.62,2.28,1.06,3.11,1.91,2.52,2.58,5.27,4.78,8.61,6.47.02-3.58.58-4.13,3.97-4.05.96.02,1.94.09,2.86.32,4.22,1.07,8.43,2.17,12.62,3.35,1.61.45,2.19,1.69,1.85,3.31-.11.5-.38.97-.59,1.48,3.07.59,5.96,1.14,8.44,1.62-.08-1.42-.49-2.77-.14-3.88.5-1.59,2.11-1.29,3.47-1.25,4.36.12,8.73.26,13.1.27,13.29.02,26.38-1.29,39.03-5.71,1.39-.48,2.95-.48,4.68-.74,1.29-2.58,4.04-4.11,6.8-5.63,1.53-.85,3.74-1.3,4.45-2.59.74-1.35.06-3.49,0-5.29-.22-6.4-.44-12.8-.68-19.19-.02-.49-.16-.97-.3-1.74ZM99.35,1109.66c4.47-.53,7.03.72,8.87,4.92.93,2.12,2.4,3.06,4.47,3.36,2.98.44,6,.66,8.95,1.23,2.23.43,3.96.15,5.79-1.39,2.61-2.19,5.05-1.33,6.37,1.86.2.47.27,1.01.55,1.43.28.42.7.96,1.12,1.03,2.27.36,4.62,1.04,6.83.77,4.88-.59,9.68-1.73,14.53-2.55,1.45-.25,2.39-.77,2.93-2.26,1.18-3.3,6.8-5.18,8.99-.9.27.52,1.08,1.18,1.55,1.11,1.76-.27,3.5-.72,5.19-1.27,1.31-.43,2.49-.64,3.41.61.87,1.18.66,2.91-.71,3.72-1.29.76-2.78,1.26-4.25,1.6-1.72.39-3.19.79-4.38,2.37-1.93,2.55-5.74,3.17-8.31,1.2-1.72-1.32-3.17-1.1-4.95-.66-6.92,1.69-13.84,3.53-21.05,1.68-.36-.09-.97.16-1.25.45-3.83,4.12-8.2,3.2-10.14-2.1-.2-.56-.96-1.18-1.55-1.28-2.4-.4-4.84-.57-7.25-.88-4.92-.62-9.55-1.64-11.42-7.2-.6-1.79-2.14-2.03-3.82-1.39-1.01.39-2.16,1.27-3.02,1.05-2.06-.54-3.58.6-5.33,1.04-2.78.69-5.58,1.26-8.38,1.88-.56.13-1.11.28-1.78.46.27.31.33.45.43.49,9.39,3.22,18.06,8.64,28.38,9.05,1.42.06,3.02,1.1,4.09,2.15.8.78.89,2.3,1.13,3.02,2.25.68,4.66.95,6.53,2.1,2.01,1.24,3.64,1.46,5.83.7,2.05-.71,4.86,1.22,5.23,3.17.33,1.75-.61,2.75-3.16,3.38,2.04,3.5,6.93,3.94,9.32.82.39-.51.76-1.03,1.12-1.56,1.82-2.6,4.16-3.94,7.42-3.14.36.09.99.01,1.17-.23,2.14-2.79,5.13-3.24,8.38-3.46,3.63-.25,3.65-.43,4.91,3.11,3.32-.49,6.7-.99,9.6-1.41-.41-1.5-1.11-2.77-.99-3.97.16-1.59,1.67-1.88,3.11-1.94.43-.02.86-.24,1.26-.43,2.16-1.05,4.33-2.02,6.81-1.12.21.08.52.02.73-.08,1.86-.93,3.75-1.82,5.56-2.85,2.42-1.37,4.64-3.2,8.07-2.82-2.06-.82-3.7-1.47-5.34-2.13-2.86-1.15-5.07-3.66-8.43-3.89-.62-.04-1.5-1.43-1.6-2.28-.09-.76.58-1.8,1.23-2.37.51-.44,1.5-.34,1.98-.43-.23-7.23-.47-14.38-.71-22.04-1.89,1.19-3.42,2.07-4.88,3.07-3.95,2.72-7.95,3.43-12.13.54-1.41-.97-2.78-.57-3.86.49-4,3.9-8.34,3.97-13.05,1.44-3.65-1.96-7.02-1.4-10.16,1.23-1.62,1.36-3.26,2.71-5.02,3.88-3.04,2.04-5.87,1.91-8.66-.47-1.5-1.28-2.67-2.95-4.12-4.29-.69-.64-1.68-1.19-2.59-1.31-2.71-.35-5.09-1.28-7.04-3.21-1.46-1.45-2.81-3.01-4.35-4.36-.71-.62-1.77-1.13-2.69-1.16-1.71-.07-3.43.25-5.48.44v21.98ZM197.25,1173.96c-3.41,1.63-6.49,3.4-9.77,4.59-6.43,2.34-12.84,5.36-19.51,6.26-10.26,1.38-20.73,1.24-31.12,1.68-1.74.07-3.64.47-5.01-1.25-.15-.19-.71-.04-1.08-.05-1.28-.02-2.57.07-3.83-.09-5.84-.78-11.67-1.58-17.49-2.48-6.91-1.07-13.55-2.97-19.21-7.3-1.7-1.31-3.24-2.31-5.61-2.18-1.69.1-3.44-.84-5.15-1.36-.58-.18-1.12-.47-1.56-.66,0,3.88-.11,7.59.07,11.29.05,1,.76,2.17,1.52,2.88,3.89,3.64,8.27,6.46,13.61,7.55,1.81.37,3.57,1.04,5.35,1.58,10.2,3.09,20.53,5.59,31.14,6.75,11.57,1.26,23.08.41,34.5-1.57,8.21-1.42,16.09-3.9,22.94-8.89,5.66-4.12,9.07-9.63,10.2-16.75ZM166.94,1071.49c-.84,4.32-3.53,5.73-6.81,6.35-2.57.49-5.17.87-7.76,1.28-2.26.37-3.32-.3-3.6-2.23-.23-1.61.87-2.61,2.99-2.95,2.84-.45,5.68-.91,8.48-1.57.7-.17,1.7-1.04,1.76-1.66.21-2.27.08-4.57.08-6.94-2.07.22-3.59.53-5.1.51-1.53-.01-3.07-.23-4.57-.56-2.36-.52-4.31-.13-6.21,1.53-4.86,4.25-9.17,3.5-12.67-1.84-.55-.84-1.74-1.69-2.69-1.75-3.29-.21-6.61-.08-10.05-.08-.07,1.09-.16,2.17-.19,3.25-.17,4.88,1.26,6.47,6.15,7.24,5.19.82,10.35,1.78,15.53,2.68,1.44.25,2.09,1.16,2.11,2.55.03,1.74-1.1,2.84-3.05,2.52-6.13-1-12.29-1.93-18.32-3.39-2.06-.5-4.47-2.07-5.46-3.85-1.45-2.61-3.15-2.34-5.29-1.94-.5.09-1.01.18-1.51.28-5.2,1.08-9.88,3.11-13.4,7.25q1.88,4.14,6.18,3.89c.26-.02.51-.03.77-.05,2.53-.25,4.67.5,6.44,2.36,1.37,1.44,2.64,3.03,4.22,4.21,1.27.94,2.87,1.68,4.42,1.95,2.33.41,4.28,1.18,5.78,3.06,1,1.25,2.08,2.45,3.18,3.61,1.01,1.07,2.2,1.28,3.43.33,1.48-1.13,2.96-2.25,4.39-3.44,4.86-4.03,10.09-4.77,15.72-1.77,2.74,1.46,5.1,1.39,7.52-.88,2.54-2.38,5.78-3.25,8.84-1.26,3.09,2.01,5.47,1.28,8.25-.52,3.36-2.17,6.99-3.94,10.73-6,.27-1.19-.38-2.16-1.82-2.95-3.14-1.73-6.1-3.81-9.3-5.43-2.82-1.43-5.85-2.45-9.16-3.79ZM136.49,1048.53c-5.65-.39-10.78,1.13-15.77,3.26-.4.17-.86.64-.93,1.04-.28,1.62,1.11,3.36,2.77,3.42,2.24.08,4.5.1,6.74,0,3.99-.19,6.93,1.31,8.82,4.92.87,1.67,2.08,1.91,3.72.99.66-.37,1.24-.9,1.81-1.42,2.29-2.1,5.08-3.14,7.99-2.38,4.41,1.15,8.63.19,13.07-.29.08-2.7.38-5.82-2.51-7.05-3.06-1.3-6.51-1.69-9.81-2.39-.41-.09-1.26.31-1.35.64-1.13,3.99-4.09,4.84-7.74,4.83-4.73-.02-5.92-.9-6.81-5.54ZM114.76,1135.06c-1.61,1.28-2.68.88-4-.1-.95-.71-2.42-.72-3.98-1.12,1.15,2.76,1.91,5,3,7.06,1.49,2.82,3.7,3.31,6.41,1.66.75-.46,1.41-1.05,2.17-1.63-4.11-2.35-4.36-2.71-3.59-5.88ZM87.57,1128.62c0-.2,0-.4,0-.61-2.98-1.19-5.97-2.37-8.97-3.57-.52,1.61-.11,2.51,1.44,2.85,1.3.29,2.56.8,3.87,1.03,1.2.22,2.44.2,3.66.29ZM101.11,1174.56c-.06.25-.12.5-.18.75,3.02.72,6.05,1.45,9.07,2.17l.15-.64c-3.01-.76-6.03-1.52-9.04-2.28Z"/>
          <path class="cls-1" d="M178.22,1163.58c-1.36-.77-2.92-1.33-4-2.38-.63-.62-.92-2.2-.59-3.04.67-1.69,1.72-3.28,2.88-4.7,1.63-2,3.99-1.98,5.57.06,1.25,1.6,3.01,3.17,2.16,5.6-.81,2.3-2.46,3.67-4.88,4.08-.31.05-.63.06-.95.1-.06.1-.13.2-.19.3Z"/>
        </g>
        <g>
          <path class="cls-1" d="M821.95,510.94c7.45-.63,14.57-1.56,21.71-1.72,4.42-.1,8.87.98,13.31,1.51,1.19.14,2.38.2,3.58.27,2.93.18,3.24.4,4.11,3.11,2.85-1.26,4.26-.19,4.11,2.93-.21,4.53-.34,9.07-.38,13.6-.13,15.44-2.91,30.49-7.48,45.15-5.13,16.43-7.06,33.21-7.02,50.31,0,3.72.08,7.44.28,11.15.15,2.78,1.73,4.7,4.04,6.23,4.67,3.09,9.33,6.22,13.83,9.55,2.75,2.03,2.66,3.07.46,5.77-6.06,7.43-14.11,10.83-23.44,10.51-7.27-.25-14.55-1.22-21.72-2.49-6.15-1.09-10.97-4.63-13.95-10.33-1.29-2.46-.84-3.45,1.5-4.86,6.2-3.73,12.33-7.59,18.44-11.46.47-.3.77-1.12.85-1.74,2.16-17.88-.63-35.11-7.6-51.58-7.17-16.96-10.28-34.58-10.1-52.87.07-7.5.47-14.99.69-22.49.04-1.37.59-2.39,1.92-2.67,1.37-.29,2.28.43,2.71,1.76.08.23.19.45.16.37ZM863.49,523.63c-1.9,1.75-4.26,2.06-6.7,2.2-2.83.16-5.73.07-8.45.71-8.7,2.02-16.88.82-24.74-3.26-.54-.28-1.09-.52-1.79-.85-.52,8.54-.89,16.84.02,25.23,2.37-1.32,2.83-1.06,4.63.78,3.54,3.63,7.58,5.91,12.99,4.43,2.03-.55,4.21-.65,6.33-.73,4.19-.17,7.93-1.35,10.94-4.39,1.56-1.58,1.11-3.18-1.13-3.57-3.96-.7-7.95-1.35-11.95-1.77-4.23-.44-8.43-.21-12.45,1.46-1.44.6-2.68.05-3.24-1.39-.55-1.43-.02-2.6,1.42-3.26.51-.24,1.04-.45,1.58-.62,4.19-1.4,8.51-1.8,12.88-1.28,4,.48,7.97,1.15,11.96,1.67,2.7.35,4.64,1.73,5.93,4.09.2.37.46.71.94,1.45.88-7.25,1.21-14.07.8-20.94.21-2.69.42-5.38.62-7.97-1.03.2-1.99.6-2.92.54-2.82-.19-5.64-.53-8.45-.86-5.43-.64-10.82-1.79-16.34-.95-3.79.58-7.6,1.03-11.39,1.59-.78.12-1.54.45-2.41.71,3.44,2.95,10.96,5.79,15.69,5.66,3.25-.09,6.48-.66,9.73-.96,3.69-.34,7.42-.43,11.08-.96,3.17-.45,4.08.03,4.42,3.24ZM868.75,656.21c-4.64-3-8.66-5.68-12.76-8.22-4.04-2.51-6.52-5.99-6.61-10.78-.14-6.99-.08-13.98,0-20.97.13-11.07,1.66-21.97,4.39-32.7,2.36-9.27,4.8-18.52,7.14-27.79.48-1.88.68-3.84,1.02-5.89-.4.1-.47.1-.51.13-.54.53-1.08,1.06-1.61,1.6-3.6,3.62-8.03,5.3-13.07,5.56-1.94.1-3.98-.02-5.79.55-7.15,2.25-12.61-.71-17.6-5.32-.33-.3-.42-.87-.63-1.31-.35.21-.69.41-1.04.62,1.6,6.97,2.82,14.06,4.88,20.9,2.47,8.18,5.84,16.08,8.47,24.21,4.66,14.44,5.61,29.25,3.59,44.26-.13.98-.86,2.19-1.68,2.73-5.89,3.86-11.88,7.58-17.84,11.35-.19.12-.31.35-.49.55,2.44,3.54,5.89,5.58,9.88,6.22,6.57,1.05,13.21,1.78,19.85,2.31,4.84.39,9.59-.58,13.81-3.1,2.17-1.29,4.08-3.02,6.59-4.91Z"/>
          <path class="cls-1" d="M893.63,610.54c0-.38-.03-1.32,0-2.26.11-2.79,1.54-4.8,3.98-5.95.72-.34,2.13-.18,2.72.33,2.51,2.18,5.17,4.37,5.02,8.23-.01.32.38.74.69.98,2.84,2.27,4.1,5.39,4.46,8.85.24,2.25-.63,4.39-2.53,5.62-5.41,3.5-11.23,5.18-17.51,2.51-1.69-.72-3.12-2.08-4.88-3.29-1.55,1.8-3.32,3.72-4.93,5.77-1.02,1.31-.94,2.69.46,3.82,1.4,1.13,2.65.83,3.85-.33,3.18-3.07,5.87-2.15,8.27,0,.61.55,1.12,1.2,1.75,1.72,2.02,1.69,3.8,1.65,5.74-.09,2.21-1.98,4.83-2.59,7.72-2.34.99.09,1.98.19,3.65.35-.59-1.88-1.02-3.38-1.54-4.85-.19-.51-.7-.9-.92-1.41-.54-1.24-.32-2.38.79-3.2,1.19-.89,2.3-.47,3.18.52,1.69,1.89,2.8,4.15,2.74,6.67-.06,2.69-.59,5.36-.81,8.05-.19,2.3-.47,4.63-.27,6.9.32,3.45-.79,6.19-3.28,8.45-4.56,4.14-9.93,5.93-16.02,5.05-7.78-1.12-11.59-6.44-13.63-13.46-.07-.24-.14-.49-.16-.74-.37-3.21-1.03-5.87-4.35-7.87-3.38-2.03-3.6-6.63-1.08-10.12,3.42-4.74,7-9.39,10.83-13.8,1.44-1.67,3.75-2.58,6.1-4.13ZM910.36,639.52c-2.74-.41-5.5-.87-7.7,1.98-.66.85-2.13,1.39-3.27,1.47-3.07.21-5.81-.78-8.04-3.02-2.14-2.15-2.19-2.18-4.46-.21-.45.39-.81,1.32-.69,1.88.57,2.56,1.16,5.15,2.06,7.6.97,2.62,2.83,4.56,5.5,5.65,5.07,2.07,12.04.5,15.54-3.71.64-.77.96-2.01,1.01-3.05.14-2.74.05-5.49.05-8.59ZM888.18,621.41c2.17,1.3,3.79,2.79,5.68,3.29,3.75.99,7.34-.21,10.7-1.97,1.15-.6,1.49-1.66.94-2.91-.33-.75-.62-1.51-.95-2.26-.64-1.41-1.62-1.77-3.06-1.08-1.71.82-3.43,1-5.28.21-1.55-.66-3.17-.44-4.43.73-1.14,1.05-2.09,2.3-3.6,3.99ZM898.73,611.83c.22.09.45.19.67.28.35-.56,1.09-1.22.97-1.66-.22-.89-.9-1.66-1.4-2.48-.2.09-.41.18-.61.27.12,1.2.24,2.39.36,3.59Z"/>
          <path class="cls-1" d="M842.23,597.49c-1.34-.45-3.69-1.11-5.91-2.06-1.19-.51-1.61-1.72-1.14-3.05.49-1.36,1.56-1.81,2.86-1.51,1.21.28,2.37.82,3.56,1.19,2.2.7,2.82.4,3.97-1.59.39-.68.85-1.55,1.48-1.79.69-.26,1.83-.15,2.39.29.57.45.99,1.53.91,2.28-.34,3.24-3.83,6.23-8.12,6.25Z"/>
        </g>
        <g>
          <path class="cls-1" d="M122.1,85.66c0-1.89,0-3.52,0-5.16,0-4.43-.02-8.86,0-13.29.01-2.13,1.23-3.36,3.16-3.3,1.41.05,2.71,1.07,2.7,2.66-.04,6.63-.23,13.26-.37,19.89-.03,1.19-.23,2.4-.09,3.58.81,7.12.68,14.2-.53,21.27-.21,1.21-.12,2.66.37,3.78,1.12,2.57,1.12,5.02.15,7.58-.18.49-.31,1.12-.17,1.59,2.73,8.96,3.87,18.15,4.04,27.47.11,5.9.07,11.81.09,17.71,0,1.98,0,1.97,1.92,1.97,2.08,0,4.16,0,6.34,0,.04-.42.11-.76.09-1.08-.41-6.41,1.54-12.16,4.89-17.5,1.15-1.83,2.43-3.6,3.71-5.34,1.06-1.44,2.43-1.73,4-.89,8.49,4.54,13.7,11.51,15.5,20.99.06.3.1.6.16.9.04.21.09.42.18.8,2.93-.46,5.86-.93,8.92-1.41-.51-2.25-1.05-4.42-1.48-6.61-1.91-9.65-2.83-19.4-3.07-29.22-.12-5.08-.27-10.16-.22-15.24.04-4.6.43-9.19.47-13.79.08-10.07-.03-20.14.06-30.21.03-3.46.44-6.92.68-10.39.03-.47.07-.94.11-1.6-2.59-.42-5.13-.96-7.69-1.21-4.83-.47-9.67-.93-14.52-1.1-5.18-.18-10.28.62-15.31,1.89-3.17.8-6.28.63-9.12-1.28-1.61-1.09-2.63-2.4-1.94-4.47.03-.08.07-.18.05-.25-.93-2.46.68-3.85,2.17-5.37,7-7.17,12.76-15.33,18.52-23.48.8-1.13,1.66-2.22,2.48-3.34.14-.19.28-.46.25-.68-.28-2.1-.6-4.19-.92-6.33-.45,0-.96.01-1.47,0-1.86-.04-3.14-1.31-3.17-3.1-.03-1.74,1.16-3,2.95-3.16.91-.08,1.81-.17,2.58-.24,1.02-2.29,1.94-4.53,3.01-6.69.92-1.86,2.51-2.44,4.06-1.66,1.58.79,2.11,2.73,1.22,4.5-.55,1.1-1.12,2.2-1.71,3.36,1.27,0,2.3-.02,3.33,0,1.74.04,2.92,1.22,2.99,2.96.07,1.81-1.05,3.13-2.81,3.27-1.55.13-3.1.22-4.77.33-.24,3.52.3,6.87,2.44,9.63,3.6,4.67,7.33,9.25,11.2,13.7,3.58,4.12,7.77,7.56,12.62,10.15,1.67.89,2.22,2.23,1.63,4.05-2.64,8.21-3.04,16.69-3.03,25.22,0,8.16.15,16.32.09,24.48-.05,6.51-.33,13.02-.5,19.52,0,.26,0,.52,0,.69,5.96,3.33,9.15,8.47,10.12,14.99.41,2.77.55,5.63.44,8.43-.23,5.79.79,11.41,1.81,17.05.36,2,.75,4,1.18,5.99.18.83.48,1.65.78,2.45.47,1.26.28,2.39-.59,3.4-.79.92-1.86,1.23-2.95.83-5.09-1.86-10.26-1.57-15.41-.57-9.87,1.9-19.82,2.83-29.87,2.84-17.62.03-35.25.13-52.87.17-10.63.03-21.27,0-31.9,0-11.29,0-22.57-.04-33.86.04-4.81.04-9.63.34-14.44.53-.21,0-.42.05-.71.09,0,.55.02,1.06,0,1.56-.09,1.48-1.14,2.66-2.55,2.88-1.32.2-2.75-.59-3.09-2.02-.28-1.15-.57-2.55-.16-3.56.97-2.39.58-4.69.42-7.11-.3-4.53-.28-9.09-.28-13.64,0-5.86.33-11.72.12-17.56-.24-6.54-.78-13.08-1.5-19.59-.56-5.03-1.65-10-2.41-15.02-.83-5.45-.88-10.89.41-16.29.45-1.88,1.2-2.64,3.23-2.79,1.83-.14,3.67-.03,5.51.02.32,0,.73.17.93.41.96,1.16,2.18.88,3.44.79,6.92-.51,13.84-1.25,20.78-1.38,12.19-.24,24.39-.05,36.59-.16,10.76-.1,21.52-.31,32.28-.57,5.18-.13,10.32.11,15.42,1.02.8.14,1.62.13,2.93.23ZM8.67,116.7c.21,1.9.46,3.83.62,5.76.34,4.15.78,8.3.91,12.46.21,6.63.23,13.27.26,19.91.02,4.29-.14,8.58-.12,12.87,0,1.44.34,2.88.52,4.33.56,0,.9,0,1.24,0,10.2-.21,20.39-.56,30.59-.59,23.79-.06,47.57.02,71.36.08,1.09,0,1.48-.28,1.63-1.39.6-4.56-.23-8.98-.99-13.43-.85-4.95-1.82-9.89-2.29-14.88-.56-5.95.88-11.48,4.89-16.12,1.13-1.31,2.47-2.44,3.63-3.73,1.27-1.41,1.95-3.01.71-4.8-.23-.33-.73-.69-1.1-.68-4.25.1-8.5.36-12.75.4-18.97.15-37.93.25-56.9.35-8.07.04-16.14.1-24.21.01-5.94-.06-11.87-.36-18-.56ZM13.18,110.65c3.09.1,5.86.28,8.63.26,16.58-.08,33.16-.24,49.74-.3,12.55-.04,25.09.06,37.64.02,3.64-.01,7.28-.29,10.92-.44.67-.03,1.07-.25,1.2-1.04.77-4.69.94-9.41.69-14.15-.05-.95.14-2.18-.37-2.76-.46-.53-1.74-.29-2.64-.48-6.78-1.42-13.64-1.07-20.49-.94-10.37.21-20.74.49-31.12.42-14.28-.1-28.56-.31-42.83.61-3.84.25-7.67.68-11.38,1.01v17.79ZM175.5,52.68c-10.15-6.06-16.81-15.5-24.04-24.58-6.43,9.12-12.76,18.1-20.44,26.14,1.12.16,2.2.3,3.23.14,3.67-.58,7.31-1.47,11-1.86,7.99-.84,15.93-.07,23.83,1.2,1.95.31,3.9.61,5.91.92.19-.72.34-1.3.52-1.96ZM125.53,171.42c.12-14.26.62-28.37-3.03-42.35-.32.3-.49.42-.63.58-2.61,2.88-3.87,6.36-3.62,10.15.27,4.26.93,8.51,1.66,12.73,1.05,6.06,2.51,12.06,1.66,18.28-.03.19.04.4.07.62h3.9ZM162.36,170.46c-1.04-7.58-4.45-13.22-10.75-17.18-3.83,5.41-6.71,11.04-5.72,18.18,5.47-.33,10.86-.66,16.47-1ZM185.65,167.86c-.05-.34-.08-.6-.12-.85-.77-4.74-1.74-9.46-2.26-14.23-.38-3.39-.15-6.85-.22-10.27-.06-2.97-.34-5.92-1.69-8.61-.69-1.39-1.67-2.62-2.52-3.93-.13.07-.25.14-.38.21,0,.46-.02.92,0,1.38.13,2.69.23,5.38.42,8.06.63,8.88,1.67,17.69,3.96,26.32q.54,2.04,2.82,1.93ZM6.9,91.37c-.15,0-.3-.02-.45-.02-.99,4.72-.53,9.42.45,14.11v-14.09Z"/>
          <path class="cls-1" d="M154.75,129.1c.77-3.84-.07-7.34-1.39-10.78-1.91-.16-2.42.12-3.22,1.77-.78,1.63-2.24,2.33-3.69,1.78-1.54-.58-2.33-2.28-1.85-3.96,1.32-4.55,6.44-7.14,10.91-5.51,1.86.68,2.85,2.12,3.57,3.89,2.11,5.22,1.91,10.69,1.78,16.15-.04,1.71-1.31,2.86-3.04,2.92-2.77.09-5.55.11-8.32.24-.9.04-1.79.29-2.68.46-1.67.32-3.16-.5-3.6-2.01-.52-1.77.21-3.53,1.97-3.9,2.53-.53,5.12-.73,7.69-1.04.63-.08,1.28-.01,1.87-.01Z"/>
          <path class="cls-1" d="M145.23,81.73c-.04-4.1,1.39-7.64,3.08-11.16.94-1.95,5.64-2.05,6.48-.08,1.56,3.66,2.98,7.34,2.46,11.42-.53,4.11-3.05,6.91-6.36,9.05-1.43.92-3.17.16-3.95-1.55-1.12-2.48-1.78-5.07-1.72-7.68Z"/>
          <path class="cls-1" d="M170.54,77.79c-.14.99-.4,2.53-.54,4.08-.12,1.33-.19,2.67-.12,4,.08,1.7-.7,2.96-2.32,3.44-.79.23-1.57.46-2.37.65-3.59.85-6.2-1.42-6.1-5.18.05-1.98.01-3.98-.18-5.95-.45-4.62,1.87-8.08,6.33-9.26,1.36-.36,2.47.03,3.3,1.18,1.39,1.93,1.98,4.11,2.01,7.04Z"/>
          <path class="cls-1" d="M142.06,83.61c.14,1.51-.98,3.88-3.22,5.77-1.28,1.08-2.99,1.1-3.95-.17-1.99-2.63-3.85-5.39-4.46-8.71-.67-3.67,1.08-6.74,4.78-8.67,1.92-1,3.24-.69,4.42,1.14,1.79,2.8,2.15,5.97,2.44,10.64Z"/>
          <path class="cls-1" d="M50.72,145.78c.07-4.25,2.05-7.71,4.5-10.99,1.05-1.41,2.15-2.75,3.87-3.34,2.59-.88,4.88-.27,6.37,2.06,2.27,3.55,4.26,7.26,4.6,11.59.06.73.01,1.47,0,2.2,0,1.32-.09,2.64-.01,3.96.13,2.21-1.64,3.99-3.68,3.29-3.16-1.09-6.24-.64-9.36-.08-2.5.45-3.94.13-4.72-2.33-.66-2.08-1.3-4.17-1.95-6.25.12-.04.24-.08.37-.12ZM60.87,137.33c-2.42,3.38-5.16,6.29-3.86,10.66,2.43-.19,4.73-.36,7.15-.55.45-3.8-1.63-6.71-3.3-10.11Z"/>
          <path class="cls-1" d="M39.4,147.25c0,1.43.06,2.86-.01,4.29-.09,1.84-.9,2.65-2.69,3.13-.99.27-1.9.82-2.87,1.16-4.84,1.71-9.02.48-11.78-3.36-1.52-2.12-1.89-4.48-1.44-6.94.92-5.01,3.45-9.12,7.46-12.27.81-.63,1.76-1.09,2.71-1.52,1.41-.64,2.67-.37,3.78.77,2.82,2.88,4.24,6.38,4.67,10.32.16,1.46.18,2.94.26,4.41-.03,0-.05,0-.08,0ZM31.48,138.33c-2.81,2.45-4.78,5.29-5.07,9.04-.11,1.38,1.31,2.85,2.83,2.83,1.18-.01,2.37-.34,3.52-.68.34-.1.73-.71.75-1.1.06-1.42.04-2.86-.08-4.28-.18-2.03-.55-4.02-1.94-5.81Z"/>
          <path class="cls-1" d="M100.78,143.4c0,1.3,0,2.6,0,3.91-.02,2.97-1.83,4.43-4.8,4.36-2.01-.05-4.02.57-6.05.67-1.54.07-3.12-.05-4.63-.37-1.9-.41-2.81-1.91-2.5-3.81.56-3.33,1.13-6.66,1.79-9.97.45-2.24,1.39-4.31,3.01-5.97,3.75-3.85,10.01-2.55,12.11,2.49.3.72.62,1.47.7,2.22.23,2.15.34,4.32.49,6.48-.05,0-.09,0-.14,0ZM88.88,146.2c2.18-.33,3.81-.55,5.42-.85.24-.04.6-.43.6-.65-.05-2.2-.12-4.41-.3-6.6-.07-.87-.45-1.68-1.55-1.8-1.08-.12-1.71.53-1.95,1.37-.78,2.71-1.43,5.46-2.22,8.52Z"/>
        </g>
      </g>
      <path class="cls-1" d="M607.2,410.61c-2.52.35-5.03.78-7.55,1.09.1,2.23.21,4.46.31,6.69,2.62,0,5.23,0,7.85,0-.15-2.6-.36-5.19-.61-7.78Z"/>
      <path class="cls-1" d="M622.66,409.93c-1.84,0-3.68,0-5.51.02.28,2.81.5,5.63.66,8.45,2.18,0,4.36-.01,6.54-.02-.52-2.83-1.07-5.65-1.69-8.45Z"/>
      <path class="cls-1" d="M640.33,410.5c-2.47-.16-4.93-.27-7.41-.36.55,2.72,1.05,5.45,1.55,8.18,2.69-.03,5.38-.05,8.06-.1,1.16-.02,2.28-2.45,3.42-3.76-1.87-1.38-3.67-3.84-5.62-3.96Z"/>
      <path class="cls-1" d="M742.68,1344.93c-3.24-1.48-6.38-2.28-9.14-2.06,1.98,2,3.96,4,5.93,5.99,1.02-1.35,2.09-2.66,3.21-3.93Z"/>
      <path class="cls-1" d="M755.51,1353.77c-1.4-1.27-2.85-2.49-4.34-3.62-1.72,1.77-3.27,3.74-4.71,5.79,1.35,1.36,2.7,2.73,4.05,4.09,1.64-2.11,3.32-4.18,5-6.25Z"/>
      <path class="cls-1" d="M762.37,1361.02c-1.63,2.01-3.26,4.01-4.8,6.09,0,0-.01.02-.02.03,2.78,2.81,5.57,5.63,8.35,8.44.91-.8,1.83-1.61,2.74-2.41-.24-3.23-2.67-7.67-6.27-12.15Z"/>
      <path class="cls-1" d="M640.91,1319.8c-2.42,1.08-4.37,2.45-5.52,4.12,2.07-.09,4.13-.18,6.2-.27-.2-1.29-.43-2.57-.67-3.85Z"/>
      <path class="cls-1" d="M651.56,1323.21c6.55-.29,13.11-.57,19.66-.86-.07-.94-.14-1.88-.21-2.82-3.62-2.61-12.38-3.42-20.43-2.31.38,1.98.7,3.98.99,5.98Z"/>
      <path class="cls-1" d="M367.9,1996.46c.74,4.67-.24,12.74,8.79,10.1-.14-3.05-.28-6.06-.43-9.06-2.79-.43-5.57-.8-8.36-1.04Z"/>
      <path class="cls-1" d="M375.8,1987.67c-.35-7.39-.69-14.68-1.03-21.95-6.22,1.93-9.4,9.54-8.46,20.91,3.17.23,6.33.6,9.49,1.03Z"/>
      <path class="cls-1" d="M576.65,950.86c2.23-1.82,3.67-3.87,3.96-6.06-1.96.63-3.94,1.16-5.92,1.62.69,1.45,1.34,2.94,1.96,4.44Z"/>
      <path class="cls-1" d="M547.88,952.31c-3.23,1.15-6.36,2.62-9.33,4.63,3.48,1.07,7.37,1.57,11.35,1.59-.68-2.07-1.35-4.14-2.02-6.22Z"/>
      <path class="cls-1" d="M560.12,957.6c2.75-.52,5.41-1.22,7.84-2.1-1-2.44-2.07-4.85-3.37-7.09-2.37.42-4.72.83-7.05,1.31.84,2.63,1.7,5.26,2.58,7.88Z"/>
      <path class="cls-1" d="M620.63,1328.3c.14-.02.28-.04.42-.06,2.54-.41,4.81-2.53,7.2-3.87-.59-1.35-1.18-2.69-1.77-4.04-2.86.28-5.72.54-8.58.8.85,2.41,1.77,4.8,2.74,7.17Z"/>
      <path class="cls-1" d="M607.66,1322.09c-5.74.56-11.47,1.18-17.17,1.96-2.07.28-3.73,3.59-5.57,5.49,2.22.83,4.53,2.54,6.66,2.35,6.32-.57,12.64-1.28,18.93-2.12-1.01-2.54-1.98-5.09-2.85-7.68Z"/>
      <path class="cls-1" d="M533.55,1332.14c-1.63.29-3.26.59-4.88.91-2.01.39-3.62,2.87-5.41,4.39,1.68,1.55,3.37,3.1,4.06,3.74,3.08-.45,6.01-.85,8.86-1.24-.85-2.61-1.72-5.2-2.62-7.79Z"/>
      <path class="cls-1" d="M555.64,1328.97c-4.04.41-8.07.93-12.1,1.52.92,2.66,1.81,5.33,2.67,8.01,3.77-.56,7.42-1.16,11.05-1.87,2.26-.44,4.04-3.3,6.05-5.04-2.56-.93-5.22-2.86-7.66-2.62Z"/>
      <path class="cls-1" d="M371.27,963.8c-5.66.55-11.32,1.13-16.97,1.8-1.02.12-1.71,2.93-2.56,4.49,1.84.99,3.76,2.94,5.52,2.82,4.88-.35,9.76-.78,14.63-1.29-.27-2.6-.48-5.2-.62-7.81Z"/>
      <path class="cls-1" d="M390.72,961.98c-3.16.3-6.33.59-9.49.88.13,2.54.32,5.07.57,7.59,1.65-.21,3.3-.41,4.95-.64,1.79-.24,3.31-2.39,4.95-3.65-.33-1.39-.66-2.79-.99-4.18Z"/>
      <path class="cls-1" d="M361.25,1338.95c-4.84.42-8.86,1.5-10.84,3.34,3.47,1.64,7.28,2.93,11.15,3.87-.06-2.41-.16-4.81-.32-7.22Z"/>
      <path class="cls-1" d="M371.21,1338.93c.19,2.97.3,5.94.36,8.92,9.16.84,17.18-.41,19.95-3.82-4.59-2.75-12.52-4.54-20.3-5.1Z"/>
      <path class="cls-1" d="M656.59,1840.99c3.85-.74,7.75-1.49,11.77-2.26-2.11-3.23-7.28-4.65-13.37-4.59.53,2.28,1.06,4.56,1.6,6.85Z"/>
      <path class="cls-1" d="M645.03,1835.41c-8.25,1.94-16.21,6.01-19.52,11.55,7.51-1.44,14.44-2.77,21.26-4.08-.58-2.49-1.17-4.98-1.74-7.47Z"/>
      <path class="cls-1" d="M473.17,1341.04c-2.36,1.27-3.96,2.83-4.62,4.65,1.81.33,3.65.58,5.5.76-.29-1.8-.58-3.61-.88-5.41Z"/>
      <path class="cls-1" d="M497.09,1337.28c.68,2.28,1.39,4.56,2.11,6.83,4.2-1.47,7.33-3.51,8.66-6.01-3.77-.46-7.37-.73-10.77-.82Z"/>
      <path class="cls-1" d="M486.75,1337.59c-1.39.13-2.73.29-3.99.5.47,2.88.93,5.76,1.4,8.64,1.79-.08,3.54-.23,5.24-.44-.92-2.89-1.8-5.79-2.65-8.69Z"/>
      <path class="cls-1" d="M378.08,399.19c-4.85-.73-9.71-.74-14.6,1.27-.01,1.6-.03,3.19-.04,4.79,4.88.74,9.76,1.48,14.64,2.22v-8.27Z"/>
      <path class="cls-1" d="M398.11,403.03c-3.34-.22-6.68-.93-10.02-1.71v7.66c4.9.74,9.8,1.48,14.69,2.23.52-1.14,1.04-2.27,1.56-3.41-2.07-1.66-4.06-4.61-6.24-4.76Z"/>
      <path class="cls-1" d="M433.7,1900.32c4.99-2.89,9.98-5.78,15.11-8.76-4.7-2.9-12.18-1.67-19.03,1.77,1.3,2.33,2.61,4.66,3.92,6.99Z"/>
      <path class="cls-1" d="M421.45,1898.93c-4.3,3.81-7.4,8.42-7.78,13,3.89-2.26,7.66-4.44,11.37-6.59-1.2-2.14-2.4-4.27-3.59-6.41Z"/>
      <path class="cls-1" d="M205.07,317.37c1.3-2.55,2.26-5.35,2.92-8.25-4.22-4.99-8.12-9.61-12.02-14.22-1.27,1.98-4.08,5.06-3.57,5.78,4.04,5.69,8.27,11.27,12.67,16.69Z"/>
      <path class="cls-1" d="M215.56,318.07c-.86,2.18-1.89,4.28-3.07,6.26,1.66-.18,4.21-.87,7.31-1.23-1.47-1.73-2.87-3.4-4.25-5.02Z"/>
      <path class="cls-1" d="M274.03,1322.33c.93-2.11,1.85-4.24,2.69-6.4-5.72-2.46-11.49-4.79-17.31-6.98-1.22-.46-4.01.78-4.63,1.98-.56,1.08.41,4.15,1.5,4.67,5.64,2.68,11.37,5.19,17.29,7.76.16-.34.31-.69.46-1.03Z"/>
      <path class="cls-1" d="M285.51,1320.7c-.89,2.19-1.89,4.38-2.92,6.57.19.08.37.16.56.24,1.28-1.09,3.41-2.04,3.63-3.32.19-1.09-.33-2.86-1.1-3.91-.06.14-.11.28-.17.42Z"/>
      <path class="cls-1" d="M698.3,1323.15c-6-1.23-12.04-2.35-18.05-3.54-.63,1.37-1.26,2.73-1.89,4.1,1.68,1.43,3.16,3.67,5.07,4.15,4.46,1.12,8.94,2.14,13.45,3.06.31-2.61.75-5.23,1.42-7.76Z"/>
      <path class="cls-1" d="M709.63,1325.66c-.51-.12-1.03-.24-1.54-.36-.7,2.39-1.11,4.92-1.39,7.42.39.07.79.14,1.18.2,1.98.32,4.27-1.35,6.42-2.1-1.54-1.78-2.81-4.71-4.68-5.16Z"/>
      <path class="cls-1" d="M307.26,972.03c-4.89.79-9.77,1.6-14.66,2.39.41,2.28.81,4.56,1.22,6.85,5.21-.82,10.42-1.62,15.62-2.44-.72-2.27-1.44-4.54-2.18-6.8Z"/>
      <path class="cls-1" d="M329.84,972.62c-.64-1.46-2.45-3.63-3.51-3.48-3.05.41-6.09.86-9.13,1.32.71,2.26,1.41,4.52,2.12,6.77,2.75-.45,5.49-.92,8.23-1.4.99-.17,2.57-2.56,2.28-3.21Z"/>
      <path class="cls-1" d="M256.6,355.81c-1.15,2.21-2.07,4.54-2.87,6.92,1.42,1.16,2.86,2.34,4.37,3.58.74-4.86,1.84-7.5,1.13-8.14-.87-.79-1.76-1.57-2.64-2.36Z"/>
      <path class="cls-1" d="M249.05,349.18c-3.99-3.42-8.03-6.78-12.13-10.06-.85-.68-3.28.64-4.98,1.04.52,1.98.4,4.69,1.67,5.81,3.85,3.39,7.8,6.68,12.07,10.19.97-2.39,2.07-4.72,3.37-6.98Z"/>
      <path class="cls-1" d="M542.13,1867.34c2.24-.5,4.48-1.01,6.72-1.51-.48-2.34-.97-4.69-1.45-7.03-2.29.52-4.59,1.04-6.88,1.55.56,2.32,1.1,4.65,1.61,6.99Z"/>
      <path class="cls-1" d="M530.77,1862.57c-.93.21-1.85.42-2.78.63.45,2.33.92,4.65,1.37,6.97,1.01-.22,2.01-.45,3.02-.67-.51-2.32-1.05-4.63-1.61-6.94Z"/>
      <path class="cls-1" d="M518.33,1865.49c-.91.22-1.83.44-2.74.66-.72.18-1.5,2.73-1.16,3.85.35,1.15,2.23,2.84,3.11,2.67.72-.15,1.44-.3,2.17-.45-.45-2.24-.92-4.49-1.37-6.73Z"/>
      <path class="cls-1" d="M616.71,932.93c-2.87,1.01-5.74,2.03-8.57,3.12-1.97.76-3.21,3.4-4.79,5.17,2.53.73,5.34,2.55,7.54,1.98,3.39-.88,6.74-1.91,10.07-3.04-1.62-2.3-3.1-4.68-4.24-7.23Z"/>
      <path class="cls-1" d="M634.8,926.8c-2.86.97-5.72,1.93-8.58,2.89,1.16,2.42,2.72,4.65,4.34,6.82.27-.11.55-.22.83-.34,2.39-1.01,4-3.86,5.96-5.86-.85-1.17-1.7-2.34-2.54-3.51Z"/>
      <path class="cls-1" d="M445.83,961.07c-4.13,3.46-5.98,6.3-8.21,6.64-6.33.97-12.82,1.24-19.22,1.04-1.85-.06-3.61-2.62-5.42-4.04,1.61-1.22,3.17-3.41,4.83-3.49,8.18-.36,16.39-.17,28.02-.17Z"/>
      <path class="cls-1" d="M519.5,956.89c.31,2.23.62,4.47.95,6.7.16-.03.32-.06.48-.1,2.21-.47,3.89-3.42,7.81-7.11-3.34.2-6.39.36-9.24.51Z"/>
      <path class="cls-1" d="M509.57,957.46c-3.03.2-5.91.43-8.79.72-1.65.17-3.09,2.45-4.62,3.76,1.88,1.31,3.8,3.77,5.65,3.71,2.94-.08,5.9-.27,8.84-.57-.37-2.54-.72-5.08-1.07-7.63Z"/>
      <path class="cls-1" d="M764.55,1815.43c1.07-.28,2.14-.55,3.21-.82-.61-2.33-1.22-4.65-1.83-6.98-1.84.48-3.67.95-5.51,1.42,1.46,2.07,2.85,4.19,4.13,6.38Z"/>
      <path class="cls-1" d="M750.08,1811.74c-.4.11-.81.21-1.21.31,1.28,2.1,2.41,4.27,3.34,6.54.74-.19,1.47-.38,2.21-.56-1.36-2.14-2.82-4.23-4.34-6.28Z"/>
      <path class="cls-1" d="M738.81,1814.77c-.74.21-1.48.4-2.22.61-.82.23-1.66,2.63-1.4,3.78.27,1.17,2.12,3.05,2.88,2.87,1.43-.33,2.85-.68,4.27-1.02-.99-2.17-2.19-4.24-3.53-6.24Z"/>
      <path class="cls-1" d="M847.49,724.16c.12-3.97-.54-7.32-2.04-8.99-.84-.94-2.75-1.62-3.92-1.36-1.09.25-2.6,1.91-2.62,2.98-.06,2.44-.09,4.89-.11,7.39,2.89-.27,5.8-.27,8.7-.02Z"/>
      <path class="cls-1" d="M838.77,734.27c0,3.72.02,7.67.02,11.99,3.2-2.77,5.57-7.34,7.03-12.17-2.35-.15-4.7-.1-7.05.18Z"/>
      <path class="cls-1" d="M393.84,1933.26c1.67-2.75,3.34-5.5,5.01-8.25-2.3-.51-6.04-2.16-6.66-1.36-1.28,1.64-2.54,3.31-3.77,4.99,1.91,1.42,3.7,2.96,5.42,4.61Z"/>
      <path class="cls-1" d="M382.83,1936.75c-1.43,2.18-2.82,4.39-4.14,6.63-.89,1.51.7,4.48,1.15,6.77,1.15.15,2.3.29,3.46.44,1.75-2.88,3.51-5.77,5.26-8.65-1.77-1.88-3.68-3.64-5.73-5.19Z"/>
      <path class="cls-1" d="M710.82,891.07c-3.3,1.9-6.57,3.87-9.79,5.91-1.16.73-1.65,3.13-1.71,4.79-.05,1.44.93,2.93,1.62,4.84,5.65-3.6,10.58-6.71,15.17-9.66-1.67-2.03-3.46-3.97-5.29-5.87Z"/>
      <path class="cls-1" d="M724.51,891.45c.49-.33.98-.65,1.46-.98.59-.4.41-3.44-.34-3.99-1.21-.9-3.61-1.53-4.79-.91-.33.18-.66.36-1,.54,1.61,1.74,3.19,3.51,4.67,5.35Z"/>
      <path class="cls-1" d="M556.03,410.85h-5.9c.02,2.45-.03,7.03.09,7.03,2.18.09,4.35.15,6.53.19-.19-2.41-.43-4.82-.72-7.22Z"/>
      <path class="cls-1" d="M566.02,410.85c.28,2.44.52,4.88.71,7.33,3.05.01,6.09.01,9.14.01,0-2.45,0-4.89.01-7.34h-9.87Z"/>
      <path class="cls-1" d="M771.86,445.41c1.29-2.55,2.6-5.09,3.97-7.59-2.8-1.66-5.34-2.52-6.98-2.05-1.27.36-2.65,5.89-2.1,6.26,1.68,1.15,3.39,2.27,5.11,3.38Z"/>
      <path class="cls-1" d="M792.05,457.94c-.11-4.05-3.77-9.39-8.26-13.83-1.18,2.2-2.32,4.42-3.45,6.65,3.75,2.31,7.63,4.67,11.71,7.18Z"/>
      <path class="cls-1" d="M717.51,417.92c8.92,2.19,17.91,4.17,26.68,6.86.96.29,1.85,5.68.76,6.84-2.35,2.54-25.67-6.4-27.45-13.7Z"/>
      <path class="cls-1" d="M585.73,1848.85c-2.19.55-4.37,1.12-6.53,1.74-1.55.45-3.39,3.14-3.35,4.75.03,1.22,2.85,2.36,4,3.21,2.7-.68,5.29-1.31,7.81-1.92-.63-2.6-1.26-5.19-1.93-7.78Z"/>
      <path class="cls-1" d="M601.37,1845.45c-1.96.37-3.93.76-5.88,1.17.65,2.51,1.25,5.03,1.87,7.55,1.88-.51,3.73-1.04,5.57-1.61,1.39-.43,2.05-3.24,3.05-4.96-1.54-.76-3.25-2.4-4.6-2.14Z"/>
      <path class="cls-1" d="M438.81,416.76c-5.63-2.54-10.66-4.81-15.7-7.08,5.29-.84,10.64-2.56,15.87-2.26,4.61.27,9.08,2.8,13.61,4.32-4.36,1.59-8.72,3.17-13.78,5.02Z"/>
      <path class="cls-1" d="M838.99,770.47c.38-.96.75-1.92,1.12-2.89.28-.74-3.83-4.57-5.07-4.19-1.18.36-2.38,1.84-3.47,3.98,2.53.84,5,1.9,7.42,3.1Z"/>
      <path class="cls-1" d="M828.49,776.83c-1.26,6.18-1.41,12.89.66,16.45,2.13-4.85,4.14-9.31,6.01-13.61-2.17-1.11-4.38-2.1-6.66-2.84Z"/>
      <path class="cls-1" d="M819.86,812.04c2.52-3.16,4.03-6.13,3.58-7.86-.33-1.25-5.74-2.75-6.22-2.12-1.4,1.8-2.76,3.63-4.12,5.5,2.21,1.55,4.52,2.97,6.76,4.48Z"/>
      <path class="cls-1" d="M807.39,815.66c-2.02,2.92-4.1,5.97-6.34,9.19,3.32-.08,7.64-2.47,11.6-5.66-1.76-1.17-3.53-2.33-5.27-3.54Z"/>
      <path class="cls-1" d="M853.06,1774.07c1.66-1.19,3.36-2.41,5.14-3.68-2.17-.68-5.08-.49-8.2.23,1.04,1.13,2.07,2.27,3.06,3.44Z"/>
      <path class="cls-1" d="M839.81,1774.46c-5.41,2.78-9.65,6.21-9.53,8.38.08,1.35,4.27,4,4.98,3.55,3.21-2.05,6.37-4.2,9.63-6.49-1.62-1.87-3.31-3.68-5.07-5.43Z"/>
      <path class="cls-1" d="M678.5,917.47c.16-.08.32-.15.48-.23,1.85-.96,2.57-4.09,3.8-6.23-.74-.86-1.48-1.71-2.22-2.57-1.75.7-3.51,1.4-5.27,2.09,1.1,2.3,2.18,4.61,3.21,6.95Z"/>
      <path class="cls-1" d="M666.05,914.23c-2.64,1.09-5.27,2.2-7.86,3.39-1.43.66-1.84,3.51-2.72,5.35,1.94.58,4.19,2.1,5.75,1.58,2.77-.92,5.52-1.93,8.24-3.01-1.06-2.47-2.23-4.9-3.41-7.31Z"/>
      <path class="cls-1" d="M298.17,377.87c-1.59,1.95-2.62,4.54-3.32,7.34,2.65,1.19,5.3,2.38,7.95,3.56l2.66-3.78c-1.63-3.49-4.26-5.58-7.29-7.12Z"/>
      <path class="cls-1" d="M288.91,374.27c-1.96-.73-3.87-1.55-5.58-2.62-1.23-.77-4.31,1.39-6.53,2.2.02,1.1.04,2.2.05,3.29,3.04,1.36,6.07,2.72,9.11,4.08.73-2.45,1.68-4.79,2.94-6.95Z"/>
      <path class="cls-1" d="M164.57,237.3c-.95-10.39-1.83-18.64-2.19-26.91-.03-.61,4.5-2.56,5.51-1.87,3.93,2.71,2.95,22.36-3.32,28.77Z"/>
      <path class="cls-1" d="M895.94,1697.98c-.14-2.72-.42-5.46-.51-8.18-2.02.94-5.55,1.59-5.8,2.88-.3,1.51-.55,3.02-.79,4.54,2.38.17,4.74.44,7.1.76Z"/>
      <path class="cls-1" d="M887.52,1707.15c-.31,2.65-.61,5.3-.94,7.95,1.48.8,2.97,1.6,4.45,2.4,1.29-3.19,3.07-6.31,4.07-9.54-2.51-.37-5.04-.63-7.59-.81Z"/>
      <path class="cls-1" d="M498.85,413.27c-.23-1.17-1.83-2.92-2.88-2.96-.64-.02-1.29-.04-1.94-.05.29,2.52.5,5.05.71,7.58,1.05-.17,1.89-.45,2.41-.87.99-.78,1.91-2.6,1.69-3.71Z"/>
      <path class="cls-1" d="M484,410.16c-4.58,0-9.55.02-15.37.02,3.57,3.39,10.11,5.85,16.09,7.04-.19-2.36-.4-4.72-.72-7.06Z"/>
      <path class="cls-1" d="M315.42,392.8c11.08,1.52,19.11,2.51,27.07,3.85,1.03.17,2.38,2.13,2.45,3.32.06,1.13-1.09,2.81-2.18,3.45-3.94,2.32-21.39-3.17-27.35-10.61Z"/>
      <path class="cls-1" d="M469.58,959.62c-2.77.1-5.54.21-8.31.31.14,2.02.29,4.05.43,6.07,3,0,6,.02,8.99.02-.4-2.13-.78-4.27-1.11-6.4Z"/>
      <path class="cls-1" d="M484.5,959.26c-1.65,0-3.3.03-4.95.06.33,2.21.73,4.41,1.13,6.61,1-.02,2-.04,3-.07.98-.04,2.51-1.92,2.67-3.1.15-1.12-1.17-3.51-1.84-3.51Z"/>
      <path class="cls-1" d="M786.64,1804.79c3.31-2.47,6.3-5.86,10.02-7.18,4.6-1.63,9.8-1.55,14.75-2.2-4.03,3.17-7.83,6.72-12.18,9.38-2.98,1.83-6.72,2.42-10.12,3.57-.82-1.19-1.64-2.38-2.47-3.56Z"/>
      <path class="cls-1" d="M197.63,1264.84c-2.89-1.86-6.42-3.18-11.18-3.35,2.82,4.36,5.29,7.83,7.55,10.51,1.13-2.43,2.34-4.81,3.64-7.15Z"/>
      <path class="cls-1" d="M205.22,1271.79c-1.16,2.21-2.23,4.46-3.23,6.76,2.97,1.15,5.83.65,9.04-1.18-2.14-1.59-3.96-3.57-5.81-5.58Z"/>
      <path class="cls-1" d="M329.35,1340.8c-8.34-2.38-16.68-4.76-27.38-7.81,10.3-6.43,24.24-2.82,27.38,7.81Z"/>
      <path class="cls-1" d="M699.83,1824.15c-2.73.51-5.45,1.05-8.16,1.67-1.15.26-2.29,2.78-2.43,4.35-.08.89,2.07,2.97,2.89,2.81,3.66-.71,7.31-1.52,10.95-2.35-1.08-2.16-2.16-4.32-3.24-6.48Z"/>
      <path class="cls-1" d="M713.06,1828.3c.53-.12,1.07-.25,1.6-.37-.5-2.05-1-4.1-1.49-6.15-1.03.19-2.06.36-3.1.54,1,1.99,1.99,3.99,2.99,5.98Z"/>
      <path class="cls-1" d="M760.83,866.2c1.95-2.94,3.27-6.08,3.22-8.78-2.53,1.62-4.87,3.08-7.08,4.47,1.33,1.39,2.62,2.83,3.85,4.32Z"/>
      <path class="cls-1" d="M748.42,867.44c-.6.41-1.19.82-1.78,1.24-1.29.92-2.19,3.07-2.3,4.72-.07.99,1.57,2.71,2.74,3.05,1.65.48,4.26-.72,6.94-2.82-1.75-2.17-3.62-4.23-5.6-6.18Z"/>
      <path class="cls-1" d="M819.13,484.27c-10.65-5.68-13.9-11.13-9.84-20.9,5.03,7.05,9.2,12.88,13.37,18.72-1.18.73-2.35,1.45-3.53,2.18Z"/>
      <path class="cls-1" d="M204.16,999.5c1.96-1.07,3.9-2.15,5.82-3.26.58-.33-.4-5.95-1.64-6.4-2.38-.87-6.94,1.02-11.51,4.15,2.46,1.81,4.91,3.64,7.32,5.51Z"/>
      <path class="cls-1" d="M189.09,1000.65c-3.01,3.24-5.21,6.69-5.5,9.61,3.78-1.96,7.4-3.81,10.9-5.62-1.79-1.34-3.58-2.67-5.39-3.99Z"/>
      <path class="cls-1" d="M246.72,978.14c.87,2.04,1.7,4.1,2.48,6.17,5.59-2.31,10.65-5.42,11.65-8.52-4.71.8-9.43,1.54-14.13,2.35Z"/>
      <path class="cls-1" d="M236.7,980.04c-.99.21-1.98.42-2.96.64-.98.22-2.25,5.53-1.26,6.77.68.85,3.54.72,7.2-.1-.93-2.46-1.93-4.9-2.98-7.32Z"/>
      <path class="cls-1" d="M442.69,1349.14c2.43-.44,4.78-1.47,6.97-3.58-.16-1.43-.32-2.85-.49-4.28l-7.7.43c.4,2.48.8,4.96,1.22,7.44Z"/>
      <path class="cls-1" d="M431.47,1342.26c-2.1.12-4.21.23-6.31.35.29,2.01.59,4.02.88,6.04,2.14-.18,4.33.01,6.52.24-.36-2.21-.72-4.42-1.09-6.63Z"/>
      <path class="cls-1" d="M470.39,1877.21c5.54-1.39,11.05-2.91,16.65-4.01.83-.16,3.02,1.84,2.91,2.6-.22,1.51-1.36,3.77-2.56,4.09-5.1,1.38-10.36,2.18-15.57,3.18-.48-1.96-.96-3.91-1.44-5.87Z"/>
      <path class="cls-1" d="M183.89,275.24c-11.71-2.69-11.22-10.08-12.11-16.4-.11-.81,1.85-2.58,2.99-2.71,1.13-.13,3.14.98,3.54,2.01,1.89,4.97,3.35,10.1,5.58,17.1Z"/>
      <path class="cls-1" d="M779.54,844.78c3.78-4.06,7.42-8.27,11.48-12.03.78-.73,3.51-.11,4.78.72.77.51,1.15,3.34.54,3.92-4.13,4-8.56,7.69-12.9,11.47-1.3-1.36-2.61-2.72-3.91-4.08Z"/>
      <path class="cls-1" d="M880.94,1741.37c.87-1.37,1.75-2.75,2.62-4.12-1.7-1.1-3.4-2.2-5.1-3.3-.72,1.08-1.45,2.16-2.17,3.24,1.51,1.44,3.05,2.85,4.64,4.19Z"/>
      <path class="cls-1" d="M870.66,1745.59c-1.22,1.82-2.44,3.64-3.66,5.46,1.85,1.17,3.69,2.35,5.54,3.52,1-1.58,2.01-3.15,3.01-4.73-1.68-1.36-3.3-2.78-4.89-4.25Z"/>
      <path class="cls-1" d="M691.03,418.72c-6.77,3.73-12.86,3.06-18.26-2.13.22-1.47.43-2.94.65-4.41,6.07.82,12.14,1.63,18.21,2.45-.2,1.36-.39,2.73-.59,4.09Z"/>
      <path class="cls-1" d="M517.39,412.8c6.53-4.13,12.65-3.83,18.36,1.02-.13,1.48-.25,2.96-.38,4.44-6.11-.45-12.21-.9-18.32-1.35.11-1.37.23-2.74.34-4.12Z"/>
      <path class="cls-1" d="M234.2,1303.74c-4.55-3.62-8.28-6.59-12.01-9.57,1.38-1.45,3.6-4.37,4.02-4.13,4.09,2.33,7.93,5.13,11.6,8.08.16.12-1.98,3.1-3.61,5.61Z"/>
    </g>
  </g>
</svg>