<?xml version="1.0" encoding="UTF-8"?>
<svg id="Calque_2" data-name="Calque 2" xmlns="http://www.w3.org/2000/svg" viewBox="0 0 208.32 241.26">
  <defs>
    <style>
      .cls-1 {
        fill: #fff;
        stroke-width: 0px;
      }
    </style>
  </defs>
  <g id="Calque_1-2" data-name="Calque 1">
    <path class="cls-1" d="M40.92,62.29c-9.78-11.98-15.18-25.41-3.13-38.51,10.65-11.57,24.35-8.57,37.39-3.61,13.11-23.43,28.9-26.35,49.39-9.28,18.36-8.04,25.02-6.52,32.66,7.43,3.24-1.19,6.49-2.36,9.72-3.56,11.04-4.11,20.91,1.43,24.1,12.83,3.39,12.09-.42,21.86-7.97,31.06-2.78,3.39-6.85,6.6-5.55,11.09,6.38,2.82,12.56,4.77,17.92,8.07,12.33,7.59,13.51,19.96,12.66,32.85-.35,5.25-1.2,10.48-1.3,15.73-.07,3.57-1.59,5.29-4.86,5.58-3.01.27-3.89,2-3.94,4.67-.23,12.58-.66,25.16-.69,37.74-.04,13.6.31,27.2.43,40.8.03,3.38-1.09,5.78-4.64,7.38-17.09,7.71-34.75,13.19-53.44,15.23-9.07.99-18.09,2.78-27.18,3.15-17.58.71-35.07.31-52.66-2.06-13.62-1.83-26.57-5.62-39.63-9.2-4.49-1.23-8.65-4.09-12.56-6.8-1.32-.92-1.93-3.67-1.88-5.56.09-3.08,1.38-6.12,1.5-9.2.69-17.7,1.2-35.4,1.76-53.11.24-7.59.59-15.18.58-22.77,0-1.53-1.11-4.15-2.17-4.42-5.49-1.39-6.23-5.79-6.45-10.02-.41-7.93-.16-15.89-.19-23.84,0-1.99.41-4.09-.1-5.94-2.1-7.62.86-13.1,7.18-16.86,10.01-5.95,21.06-8.28,33.07-8.88ZM81.58,212.36c-.26,0-.52,0-.78,0-.05,4.65-.37,9.32-.08,13.95.43,6.71,1.26,7.16,7.88,6.72,4.81-.32,9.64-.32,14.45-.54,4.47-.2,8.93-.48,13.39-.8,2.61-.19,3.47-1.55,3.47-4.29.02-17.45.38-34.9.37-52.34,0-11.9-.39-23.8-.68-35.69-.24-9.56-.99-19.13-.76-28.67.17-7.23-2.59-13.3-7.99-16.82-5.28-3.45-12.16-5.53-18.19-.31-4.55,3.95-9.55,7.44-9.07,14.9.52,8.09.09,16.25-.17,24.38-.56,17.56-1.4,35.11-1.89,52.67-.25,8.94.01,17.9.04,26.85ZM18.13,134.69c-.91,10.85-2.1,20.86-2.5,30.91-.67,16.54-.66,33.11-1.33,49.65-.17,4.08,1.64,5.89,4.84,6.81,14.65,4.2,29.37,8.09,44.64,9.33,2.42.2,4.84.4,6.43.54.91-10.84,2.28-21.2,2.53-31.6.39-16.74-.24-33.5.15-50.23.12-5.06-1.8-6.46-6.13-6.8-6.26-.5-12.59-.76-18.74-1.92-10.03-1.89-19.94-4.42-29.87-6.68ZM129.48,229.83c20.97-2,40.57-6.45,59.54-16.65.49-25.25.99-50.75,1.51-77.32-3.54,1.32-6.08,2.3-8.64,3.21-15.21,5.4-31.05,6.72-47.02,7.32-6.2.23-6.79,1.21-6.65,7.51.32,14.08.56,28.16.8,42.24.19,11.08.31,22.15.47,33.69ZM200.95,96.42c-23.77,11.65-47.95,12.93-73.78,11.5.05,10.52.1,20.92.15,31.65,3.86-.27,6.32-.48,8.78-.6,17.03-.86,33.79-2.83,49.19-11.04,1.49-.79,3.53-.47,5.17-1.07,2.81-1.03,7.6-2,7.89-3.64,1.47-8.34,1.77-16.89,2.6-26.79ZM9.87,93.63c-.16.36-1.09,1.53-1.13,2.72-.23,6.62-.51,13.25-.17,19.85.11,2.11,1.53,5.26,3.21,6.01,6.94,3.08,13.27,7.58,21.33,8.21,6.67.52,13.21,2.64,19.87,3.55,6.65.91,13.38,1.2,21.48,1.87.18-10.12.36-20.35.52-29.42-22.22-4.36-43.42-8.53-65.12-12.79ZM8.71,80.87c.05.72.09,1.43.14,2.15,21.78,9.08,45.29,10.68,69.12,14.18.98-1.09,2.62-2.9,4.99-5.53-9.09-2.51-13.41-9.42-18.64-15.62-2.58-3.06-7.32-4.33-11.14-6.28-.56-.29-1.49.06-2.23.23-2.07.46-4.15,1.46-6.19,1.38-9.18-.33-17.95,1.71-26.53,4.52-3.36,1.1-6.35,3.28-9.52,4.97ZM196.11,87.44c-.76-.85-1.34-2.01-2.27-2.44-3.71-1.73-7.43-4.19-11.32-4.54-4.29-.39-8.36-.02-12.93,3.22-10.08,7.16-21.95,10.2-34.85,7.77-4.96-.93-10.56-3.19-15.78.82,2.76,4.81,5.29,9.12,11.76,8.06,2.77-.45,5.64-.17,8.45-.45,13.77-1.37,27.59-2.38,41.26-4.45,5.6-.85,11.86-2.09,15.67-7.99ZM91.65,42.44c-5.75-10.76-28.1-21.88-39.25-20.25-7.74,1.13-16.06,11.86-12.57,19.57.57-.08,1.24-.06,1.83-.27,10.5-3.74,20.71-3.7,30.86,1.49,6.17,3.16,12.45.93,19.13-.54ZM77.53,55.44c-7.83-.25-12.18,5.75-9.22,12.55.26.59.79,1.09.96,1.69,3.97,13.58,9.53,17.88,23.53,17.14,2.17-.11,4.19-3.03,6.28-4.65-1.24-1.48-2.19-3.46-3.76-4.35-9-5.11-15.88-11.77-17.8-22.39ZM139.03,82.95c10.98,1.89,18.68-2.97,26.29-7,6.64-3.52,6.47-12.6.3-16.81-7.74-5.28-16.46-3.83-25.87-3.8,7.06,4.5,10.61,10.05,10.34,17.52-.21,5.99-4.91,8.06-11.07,10.09ZM114.02,8.94c-4.53-1.06-9.01-2.7-13.6-3.05-6.71-.52-14.39,5.51-16.63,12.73-1.92,6.16,3.56,8.57,6.91,11.94,1.48,1.48,3.16,2.76,4.92,4.28,4.72-9.58,7.59-19.97,18.4-25.89ZM96.21,48.78c1.82,2.01,3.39,3.15,4.17,4.69,2.42,4.78,5.59,9.53,6.49,14.64.85,4.81-.83,10.06-1.28,15.12-.06.67.48,1.92.95,2.04,2.83.69,5.73,1.47,8.59,1.4.67-.02,1.31-3.18,1.87-4.93.45-1.4.78-2.83,1.12-4.26.59-2.47,1.83-5.02,1.6-7.42-1.42-14.5-7.71-20.29-23.51-21.28ZM153.81,44.06c4.94-1.04,9.78-1.74,14.43-3.11,7.05-2.08,11.4-8.54,11.04-15.93-.18-3.82-2.99-5.73-6.28-5.78-8.3-.14-15.69,6.76-17.09,15.2-.48,2.92-1.25,5.8-2.1,9.63ZM73.39,49.52c-9.02-4.25-17.62-6.42-26.84-3.43-4.04,1.31-5.12,3.53-3.17,7.12,3.85,7.07,10.65,10.3,17.59,13.84q.94-13.16,12.42-17.53ZM131.5,14.35c.16.64.32,1.27.48,1.91,1.8.81,3.6,1.64,5.41,2.42,5.26,2.26,6.27,4.87,5.4,10.61-1.1,7.22-5.19,12.31-10.69,16.81,9.98-.8,12.68-2.57,15.06-11.8,1.21-4.69,1.46-9.79,1.15-14.64-.27-4.3-3.52-7.68-7.67-8.11-2.92-.3-6.09,1.78-9.15,2.8ZM104.48,42.43c5.45-4.41,13.81-5.74,14.36-14.75.13-2.13-.53-4.31-.7-6.47-.11-1.41,0-2.83,0-4.25-1.6.3-3.66.08-4.71,1-5.21,4.59-12.22,15.33-8.96,24.48ZM99.17,73.33c2.09-7.56-1.39-17.26-7.29-20.45-1.68-.91-4.54-1.51-5.86-.67-1.32.83-2.38,3.99-1.84,5.53,2.54,7.17,6.72,13.1,14.99,15.6ZM127.72,76.17c4.06-1.23,7.99-2.26,11.8-3.61,3.54-1.25,4.18-4.38,1.4-6.88-4.22-3.8-9.33-4.89-14.79-4.72.51,4.94.99,9.48,1.58,15.2ZM119.92,42.83c7.86-.72,14.81-7.9,13.78-15.17-.26-1.86-2.48-3.45-3.79-5.16-1.13,1.18-2.69,2.17-3.3,3.58-2.41,5.57-4.53,11.26-6.69,16.75ZM184.88,39.9c-7.55,3.48-14.03,6.47-20.28,9.35,1.83,1.74,4.03,3.92,6.34,5.98,2.09,1.87,4.54,1.95,5.98-.44,2.83-4.69,5.2-9.65,7.96-14.89Z"/>
  </g>
</svg>